<?xml version="1.0" encoding="UTF-8"?>
<svg id="Layer_1" data-name="Layer 1" xmlns="http://www.w3.org/2000/svg" viewBox="0 0 343.33 265.32">
  <defs>
    <style>
      .cls-1 {
        fill: none;
      }

      .cls-1, .cls-2 {
        stroke: #231f20;
        stroke-miterlimit: 10;
      }

      .cls-3 {
        letter-spacing: 0em;
      }

      .cls-4 {
        letter-spacing: -.04em;
      }

      .cls-2 {
        fill: #fff;
      }

      .cls-5, .cls-6 {
        fill: #ed1c24;
      }

      .cls-5, .cls-6, .cls-7, .cls-8 {
        font-family: PresicavHv-Regular, Presicav;
      }

      .cls-5, .cls-7 {
        font-size: 11px;
      }

      .cls-9 {
        letter-spacing: 0em;
      }

      .cls-6 {
        font-size: 12px;
      }

      .cls-10 {
        letter-spacing: 0em;
      }

      .cls-7, .cls-8 {
        fill: #231f20;
      }

      .cls-11 {
        letter-spacing: 0em;
      }

      .cls-8 {
        font-size: 6px;
      }

      .cls-12 {
        letter-spacing: 0em;
      }

      .cls-13 {
        letter-spacing: 0em;
      }

      .cls-14 {
        letter-spacing: -.01em;
      }
    </style>
  </defs>
  <polygon class="cls-2" points="96.96 28.88 .87 195.32 193.06 195.32 96.96 28.88"/>
  <line class="cls-1" x1="57.59" y1="97.08" x2="136.34" y2="97.08"/>
  <text class="cls-5" transform="translate(93.84 78.07) scale(.56 1)"><tspan x="0" y="0">9 </tspan><tspan x="-50.08" y="13.2">Co</tspan><tspan class="cls-13" x="-30.99" y="13.2">r</tspan><tspan x="-25.76" y="13.2">e memebe</tspan><tspan class="cls-3" x="49.49" y="13.2">r</tspan><tspan x="54.71" y="13.2">s</tspan></text>
  <text class="cls-5" transform="translate(86.02 120.37)"><tspan x="0" y="0">317</tspan><tspan x="-28.91" y="13.2">Committe</tspan><tspan class="cls-10" x="39.2" y="13.2">r</tspan><tspan x="44.42" y="13.2">s</tspan></text>
  <text class="cls-6" transform="translate(75.71 167.63)"><tspan x="0" y="0">5500</tspan><tspan x="-27.38" y="14.4">Contributio</tspan><tspan class="cls-11" x="57.03" y="14.4">r</tspan><tspan x="62.73" y="14.4">s</tspan></text>
  <text class="cls-7" transform="translate(5.19 9.21)"><tspan x="0" y="0">F</tspan><tspan class="cls-9" x="8.25" y="0">r</tspan><tspan class="cls-12" x="13.48" y="0">eeBSD P</tspan><tspan class="cls-14" x="74.18" y="0">r</tspan><tspan x="79.41" y="0">oject Structu</tspan><tspan class="cls-9" x="166.78" y="0">r</tspan><tspan x="172.01" y="0">e</tspan></text>
  <text class="cls-8" transform="translate(240.98 264)"><tspan x="0" y="0">Co</tspan><tspan class="cls-4" x="10.42" y="0">p</tspan><tspan x="15.2" y="0">yright(c) Bit=Theory W23</tspan></text>
  <line class="cls-1" x1="28.65" y1="147.19" x2="165.27" y2="147.19"/>
</svg>