<?xml version="1.0" encoding="UTF-8" standalone="no"?><svg xmlns="http://www.w3.org/2000/svg" xmlns:xlink="http://www.w3.org/1999/xlink" contentStyleType="text/css" height="728px" preserveAspectRatio="none" style="width:223px;height:728px;background:#FFFFFF;" version="1.1" viewBox="0 0 223 728" width="223px" zoomAndPan="magnify"><defs/><g><text fill="#888888" font-family="sans-serif" font-size="10" lengthAdjust="spacing" textLength="215" x="0" y="9.2822">EECS 4314 FreeBSD Analysis - BitTheory</text><ellipse cx="77.5" cy="28.6406" fill="#222222" rx="10" ry="10" style="stroke:none;stroke-width:1.0;"/><g id="start"><rect fill="#E1E1E1" height="50.2656" rx="12.5" ry="12.5" style="stroke:#000000;stroke-width:0.5;" width="113" x="21" y="99.6406"/><line style="stroke:#000000;stroke-width:0.5;" x1="21" x2="134" y1="125.9375" y2="125.9375"/><text fill="#000000" font-family="Impact" font-size="14" lengthAdjust="spacing" textLength="35" x="60" y="117.6357">start</text><text fill="#000000" font-family="Impact" font-size="12" lengthAdjust="spacing" textLength="93" x="26" y="142.0762">parent process</text></g><g id="end"><rect fill="#E1E1E1" height="50.2656" rx="12.5" ry="12.5" style="stroke:#000000;stroke-width:0.5;" width="113" x="19" y="591.6406"/><line style="stroke:#000000;stroke-width:0.5;" x1="19" x2="132" y1="617.9375" y2="617.9375"/><text fill="#000000" font-family="Impact" font-size="14" lengthAdjust="spacing" textLength="27" x="62" y="609.6357">end</text><text fill="#000000" font-family="Impact" font-size="12" lengthAdjust="spacing" textLength="93" x="24" y="634.0762">parent process</text></g><g id="fork"><rect fill="#E1E1E1" height="50.2656" rx="12.5" ry="12.5" style="stroke:#000000;stroke-width:0.5;" width="102" x="95.5" y="226.6406"/><line style="stroke:#000000;stroke-width:0.5;" x1="95.5" x2="197.5" y1="252.9375" y2="252.9375"/><text fill="#000000" font-family="Impact" font-size="14" lengthAdjust="spacing" textLength="30" x="131.5" y="244.6357">fork</text><text fill="#000000" font-family="Impact" font-size="12" lengthAdjust="spacing" textLength="82" x="100.5" y="269.0762">child process</text></g><g id="execve"><rect fill="#E1E1E1" height="50.2656" rx="12.5" ry="12.5" style="stroke:#000000;stroke-width:0.5;" width="102" x="101.5" y="353.6406"/><line style="stroke:#000000;stroke-width:0.5;" x1="101.5" x2="203.5" y1="379.9375" y2="379.9375"/><text fill="#000000" font-family="Impact" font-size="14" lengthAdjust="spacing" textLength="51" x="127" y="371.6357">execve</text><text fill="#000000" font-family="Impact" font-size="12" lengthAdjust="spacing" textLength="82" x="106.5" y="396.0762">child process</text></g><g id="zombie"><rect fill="#E1E1E1" height="50.2656" rx="12.5" ry="12.5" style="stroke:#000000;stroke-width:0.5;" width="119" x="91" y="480.6406"/><line style="stroke:#000000;stroke-width:0.5;" x1="91" x2="210" y1="506.9375" y2="506.9375"/><text fill="#000000" font-family="Impact" font-size="14" lengthAdjust="spacing" textLength="54" x="123.5" y="498.6357">zombie</text><text fill="#000000" font-family="Impact" font-size="12" lengthAdjust="spacing" textLength="99" x="96" y="523.0762">zombie process</text></g><ellipse cx="75.5" cy="712.6406" fill="none" rx="10" ry="10" style="stroke:#222222;stroke-width:1.0;"/><ellipse cx="76" cy="713.1406" fill="#222222" rx="6" ry="6" style="stroke:none;stroke-width:1.0;"/><!--link *start* to start--><g id="link_*start*_start"><path d="M77.5,38.6536 C77.5,51.3386 77.5,75.0496 77.5,94.2106 " fill="none" id="*start*-to-start" style="stroke:#B70000;stroke-width:1.0;"/><polygon fill="#B70000" points="77.5,99.4806,81.5,90.4806,77.5,94.4806,73.5,90.4806,77.5,99.4806" style="stroke:#B70000;stroke-width:1.0;"/></g><!--link start to end--><g id="link_start_end"><path d="M64.8438,149.8116 C53.125,174.4696 37.5,214.1836 37.5,250.6406 C37.5,250.6406 37.5,250.6406 37.5,506.6406 C37.5,534.9606 49.0788,565.2276 59.4534,586.6636 " fill="none" id="start-to-end" style="stroke:#B70000;stroke-width:1.0;stroke-dasharray:7.0,7.0;"/><polygon fill="#B70000" points="61.7811,591.3716,61.3784,581.531,59.5653,586.8894,54.2069,585.0763,61.7811,591.3716" style="stroke:#B70000;stroke-width:1.0;"/><text fill="#000000" font-family="sans-serif" font-size="13" lengthAdjust="spacing" textLength="27" x="38.5" y="383.2075">wait</text></g><!--link start to fork--><g id="link_start_fork"><path d="M90.8039,149.7416 C102.2109,170.4066 118.6652,200.2156 130.732,222.0756 " fill="none" id="start-to-fork" style="stroke:#B70000;stroke-width:1.0;"/><polygon fill="#B70000" points="133.237,226.6136,132.3917,216.8011,130.8217,222.2357,125.387,220.6657,133.237,226.6136" style="stroke:#B70000;stroke-width:1.0;"/><text fill="#000000" font-family="sans-serif" font-size="13" lengthAdjust="spacing" textLength="25" x="117.5" y="192.7075">fork</text></g><!--link fork to execve--><g id="link_fork_execve"><path d="M147.657,276.7416 C148.64,297.2336 150.056,326.7166 151.102,348.5246 " fill="none" id="fork-to-execve" style="stroke:#B70000;stroke-width:1.0;"/><polygon fill="#B70000" points="151.347,353.6136,154.913,344.433,151.1084,348.6193,146.9221,344.8147,151.347,353.6136" style="stroke:#B70000;stroke-width:1.0;"/><text fill="#000000" font-family="sans-serif" font-size="13" lengthAdjust="spacing" textLength="47" x="150.5" y="319.7075">execve</text></g><!--link execve to zombie--><g id="link_execve_zombie"><path d="M152.114,403.7416 C151.787,424.2336 151.315,453.7166 150.966,475.5246 " fill="none" id="execve-to-zombie" style="stroke:#B70000;stroke-width:1.0;"/><polygon fill="#B70000" points="150.884,480.6136,155.0275,471.6788,150.964,475.6143,147.0285,471.5508,150.884,480.6136" style="stroke:#B70000;stroke-width:1.0;"/><text fill="#000000" font-family="sans-serif" font-size="13" lengthAdjust="spacing" textLength="24" x="152.5" y="446.7075">exit</text></g><!--link zombie to end--><g id="link_zombie_end"><path d="M133.855,530.8316 C122.397,547.4836 107.1309,569.6706 95.0868,587.1746 " fill="none" id="zombie-to-end" style="stroke:#B70000;stroke-width:1.0;stroke-dasharray:7.0,7.0;"/><polygon fill="#B70000" points="92.0984,591.5176,100.4953,586.3706,94.9327,587.3985,93.9048,581.8358,92.0984,591.5176" style="stroke:#B70000;stroke-width:1.0;"/></g><!--link end to *end*--><g id="link_end_*end*"><path d="M75.5,641.8479 C75.5,659.4829 75.5,682.7667 75.5,697.4757 " fill="none" id="end-to-*end*" style="stroke:#B70000;stroke-width:1.0;"/><polygon fill="#B70000" points="75.5,702.4805,79.5,693.4805,75.5,697.4805,71.5,693.4805,75.5,702.4805" style="stroke:#B70000;stroke-width:1.0;"/></g><!--SRC=[PP31QiCm38RlUWh1ReD0oWg370PDry8kktItqeCMQuj9OWVPMzUDlVlanDrWjS6oVd-_BBjbCYousQntkBnPB74hpFNk7bUE-bEm0GkiRNngsSi987JMZIGqO8WK6Ry0SINYZslVUy6h-hRKeMBjHUjcjIopklKkFjB0-32CrCJ4KTEzYdzp9hEyI1E-0VRN1ooAktIJH9XMBFQ6Gilce3exWnKUoUR32hKpTX57yGs700fSQESwwd_nqcc1520j5JQjxSqVEW69v0zktbdPUGDpkE0pbXoVVdYsiqFRcxFghFuQSlxlKP0Qdwhe3_m0]--></g></svg>