<?xml version="1.0" encoding="UTF-8" standalone="no"?><svg xmlns="http://www.w3.org/2000/svg" xmlns:xlink="http://www.w3.org/1999/xlink" contentStyleType="text/css" height="235px" preserveAspectRatio="none" style="width:531px;height:235px;background:#FFFFFF;" version="1.1" viewBox="0 0 531 235" width="531px" zoomAndPan="magnify"><defs/><g><text fill="#888888" font-family="sans-serif" font-size="10" lengthAdjust="spacing" textLength="215" x="302" y="9.2822">EECS 4314 FreeBSD Analysis - BitTheory</text><ellipse cx="16" cy="44.6406" fill="#222222" rx="10" ry="10" style="stroke:none;stroke-width:1.0;"/><g id="start"><rect fill="#E1E1E1" height="50.2656" rx="12.5" ry="12.5" style="stroke:#000000;stroke-width:0.5;" width="113" x="61.5" y="19.6406"/><line style="stroke:#000000;stroke-width:0.5;" x1="61.5" x2="174.5" y1="45.9375" y2="45.9375"/><text fill="#000000" font-family="Impact" font-size="14" lengthAdjust="spacing" textLength="35" x="100.5" y="37.6357">start</text><text fill="#000000" font-family="Impact" font-size="12" lengthAdjust="spacing" textLength="93" x="66.5" y="62.0762">parent process</text></g><g id="end"><rect fill="#E1E1E1" height="50.2656" rx="12.5" ry="12.5" style="stroke:#000000;stroke-width:0.5;" width="113" x="238.5" y="179.6406"/><line style="stroke:#000000;stroke-width:0.5;" x1="238.5" x2="351.5" y1="205.9375" y2="205.9375"/><text fill="#000000" font-family="Impact" font-size="14" lengthAdjust="spacing" textLength="27" x="281.5" y="197.6357">end</text><text fill="#000000" font-family="Impact" font-size="12" lengthAdjust="spacing" textLength="93" x="243.5" y="222.0762">parent process</text></g><g id="fork"><rect fill="#E1E1E1" height="50.2656" rx="12.5" ry="12.5" style="stroke:#000000;stroke-width:0.5;" width="102" x="236" y="19.6406"/><line style="stroke:#000000;stroke-width:0.5;" x1="236" x2="338" y1="45.9375" y2="45.9375"/><text fill="#000000" font-family="Impact" font-size="14" lengthAdjust="spacing" textLength="30" x="272" y="37.6357">fork</text><text fill="#000000" font-family="Impact" font-size="12" lengthAdjust="spacing" textLength="82" x="241" y="62.0762">child process</text></g><g id="execve"><rect fill="#E1E1E1" height="50.2656" rx="12.5" ry="12.5" style="stroke:#000000;stroke-width:0.5;" width="102" x="422" y="19.6406"/><line style="stroke:#000000;stroke-width:0.5;" x1="422" x2="524" y1="45.9375" y2="45.9375"/><text fill="#000000" font-family="Impact" font-size="14" lengthAdjust="spacing" textLength="51" x="447.5" y="37.6357">execve</text><text fill="#000000" font-family="Impact" font-size="12" lengthAdjust="spacing" textLength="82" x="427" y="62.0762">child process</text></g><g id="zombie"><rect fill="#E1E1E1" height="50.2656" rx="12.5" ry="12.5" style="stroke:#000000;stroke-width:0.5;" width="119" x="347.5" y="99.6406"/><line style="stroke:#000000;stroke-width:0.5;" x1="347.5" x2="466.5" y1="125.9375" y2="125.9375"/><text fill="#000000" font-family="Impact" font-size="14" lengthAdjust="spacing" textLength="54" x="380" y="117.6357">zombie</text><text fill="#000000" font-family="Impact" font-size="12" lengthAdjust="spacing" textLength="99" x="352.5" y="142.0762">zombie process</text></g><ellipse cx="397" cy="204.6406" fill="none" rx="10" ry="10" style="stroke:#222222;stroke-width:1.0;"/><ellipse cx="397.5" cy="205.1406" fill="#222222" rx="6" ry="6" style="stroke:none;stroke-width:1.0;"/><!--link *start* to start--><g id="link_*start*_start"><path d="M26.3594,44.6406 C36.3173,44.6406 46.2753,44.6406 56.2332,44.6406 " fill="none" id="*start*-to-start" style="stroke:#B70000;stroke-width:1.0;"/><polygon fill="#B70000" points="61.4406,44.6406,52.4406,40.6406,56.4406,44.6406,52.4406,48.6406,61.4406,44.6406" style="stroke:#B70000;stroke-width:1.0;"/></g><!--link start to fork--><g id="link_start_fork"><path d="M174.745,44.6406 C192.801,44.6406 212.759,44.6406 230.778,44.6406 " fill="none" id="start-to-fork" style="stroke:#B70000;stroke-width:1.0;"/><polygon fill="#B70000" points="235.805,44.6406,226.805,40.6406,230.805,44.6406,226.805,48.6406,235.805,44.6406" style="stroke:#B70000;stroke-width:1.0;"/><text fill="#000000" font-family="sans-serif" font-size="13" lengthAdjust="spacing" textLength="25" x="192.75" y="37.7075">fork</text></g><!--link fork to execve--><g id="link_fork_execve"><path d="M338.318,44.6406 C362.612,44.6406 391.69,44.6406 416.601,44.6406 " fill="none" id="fork-to-execve" style="stroke:#B70000;stroke-width:1.0;"/><polygon fill="#B70000" points="421.85,44.6406,412.85,40.6406,416.85,44.6406,412.85,48.6406,421.85,44.6406" style="stroke:#B70000;stroke-width:1.0;"/><text fill="#000000" font-family="sans-serif" font-size="13" lengthAdjust="spacing" textLength="47" x="356.5" y="37.7075">execve</text></g><!--link execve to zombie--><g id="link_execve_zombie"><path d="M452.479,69.8926 C445.65,77.9636 437.985,87.0226 430.921,95.3696 " fill="none" id="execve-to-zombie" style="stroke:#B70000;stroke-width:1.0;"/><polygon fill="#B70000" points="427.508,99.4036,436.3742,95.1151,430.7369,95.586,430.266,89.9488,427.508,99.4036" style="stroke:#B70000;stroke-width:1.0;"/></g><!--link zombie to end--><g id="link_zombie_end"><path d="M372.482,149.6796 C360.24,158.2054 346.384,167.8556 333.808,176.6137 " fill="none" id="zombie-to-end" style="stroke:#B70000;stroke-width:1.0;stroke-dasharray:7.0,7.0;"/><polygon fill="#B70000" points="329.596,179.5467,339.2671,177.6839,333.6985,176.6885,334.6939,171.1199,329.596,179.5467" style="stroke:#B70000;stroke-width:1.0;"/></g><!--link end to *end*--><g id="link_end_*end*"><path d="M351.578,204.6406 C361.55,204.6406 371.522,204.6406 381.494,204.6406 " fill="none" id="end-to-*end*" style="stroke:#B70000;stroke-width:1.0;"/><polygon fill="#B70000" points="386.709,204.6406,377.709,200.6406,381.709,204.6406,377.709,208.6406,386.709,204.6406" style="stroke:#B70000;stroke-width:1.0;"/></g><!--link start to end--><g id="link_start_end"><path d="M145.268,69.9816 C177.324,98.5966 230.401,145.9761 263.994,175.9627 " fill="none" id="start-to-end" style="stroke:#B70000;stroke-width:1.0;stroke-dasharray:7.0,7.0;"/><polygon fill="#B70000" points="267.991,179.531,263.9392,170.5542,264.2604,176.2019,258.6127,176.5231,267.991,179.531" style="stroke:#B70000;stroke-width:1.0;"/><text fill="#000000" font-family="sans-serif" font-size="13" lengthAdjust="spacing" textLength="27" x="233" y="129.2075">wait</text></g><!--SRC=[POzDImCn48Rlyoi6l1KMjbWGzY1q-m5UUgctqaDCHZViRh9CehMA_zryhQ0caCcyUTwPIKT24UDkjpdYwdQvmZqJjSSjheqOhauxhB3L_h4ZorS0rsip2HOZEYyyuISWhfdjPMC7otZJtjLX1R6r7EeMjQwBkhV67yH8-31EGlh82Tc_i7qrgh2qZ1k-04wBCrPStSTMx26T3ORkP3nER2Kv1sJKFosHsVfikSSc1OX7WxBJW_f1qtiYwPta6mKsNo27ltoXakF3ZaywExI7d3MpEXjAMl592TUHEiTMHiMvSvNmotdWtqWeV17QVmC0]--></g></svg>