<?xml version="1.0" encoding="UTF-8" standalone="no"?><svg xmlns="http://www.w3.org/2000/svg" xmlns:xlink="http://www.w3.org/1999/xlink" contentStyleType="text/css" height="716px" preserveAspectRatio="none" style="width:205px;height:716px;background:#FFFFFF;" version="1.1" viewBox="0 0 205 716" width="205px" zoomAndPan="magnify"><defs/><g><ellipse cx="65.5" cy="16" fill="#222222" rx="10" ry="10" style="stroke:none;stroke-width:1.0;"/><g id="start"><rect fill="#E1E1E1" height="50.2656" rx="12.5" ry="12.5" style="stroke:#000000;stroke-width:0.5;" width="113" x="9" y="87"/><line style="stroke:#000000;stroke-width:0.5;" x1="9" x2="122" y1="113.2969" y2="113.2969"/><text fill="#000000" font-family="Impact" font-size="14" lengthAdjust="spacing" textLength="35" x="48" y="104.9951">start</text><text fill="#000000" font-family="Impact" font-size="12" lengthAdjust="spacing" textLength="93" x="14" y="129.4355">parent process</text></g><g id="end"><rect fill="#E1E1E1" height="50.2656" rx="12.5" ry="12.5" style="stroke:#000000;stroke-width:0.5;" width="113" x="7" y="579"/><line style="stroke:#000000;stroke-width:0.5;" x1="7" x2="120" y1="605.2969" y2="605.2969"/><text fill="#000000" font-family="Impact" font-size="14" lengthAdjust="spacing" textLength="27" x="50" y="596.9951">end</text><text fill="#000000" font-family="Impact" font-size="12" lengthAdjust="spacing" textLength="93" x="12" y="621.4355">parent process</text></g><g id="fork"><rect fill="#E1E1E1" height="50.2656" rx="12.5" ry="12.5" style="stroke:#000000;stroke-width:0.5;" width="102" x="83.5" y="214"/><line style="stroke:#000000;stroke-width:0.5;" x1="83.5" x2="185.5" y1="240.2969" y2="240.2969"/><text fill="#000000" font-family="Impact" font-size="14" lengthAdjust="spacing" textLength="30" x="119.5" y="231.9951">fork</text><text fill="#000000" font-family="Impact" font-size="12" lengthAdjust="spacing" textLength="82" x="88.5" y="256.4355">child process</text></g><g id="execve"><rect fill="#E1E1E1" height="50.2656" rx="12.5" ry="12.5" style="stroke:#000000;stroke-width:0.5;" width="102" x="89.5" y="341"/><line style="stroke:#000000;stroke-width:0.5;" x1="89.5" x2="191.5" y1="367.2969" y2="367.2969"/><text fill="#000000" font-family="Impact" font-size="14" lengthAdjust="spacing" textLength="51" x="115" y="358.9951">execve</text><text fill="#000000" font-family="Impact" font-size="12" lengthAdjust="spacing" textLength="82" x="94.5" y="383.4355">child process</text></g><g id="zombie"><rect fill="#E1E1E1" height="50.2656" rx="12.5" ry="12.5" style="stroke:#000000;stroke-width:0.5;" width="119" x="79" y="468"/><line style="stroke:#000000;stroke-width:0.5;" x1="79" x2="198" y1="494.2969" y2="494.2969"/><text fill="#000000" font-family="Impact" font-size="14" lengthAdjust="spacing" textLength="54" x="111.5" y="485.9951">zombie</text><text fill="#000000" font-family="Impact" font-size="12" lengthAdjust="spacing" textLength="99" x="84" y="510.4355">zombie process</text></g><ellipse cx="63.5" cy="700" fill="none" rx="10" ry="10" style="stroke:#222222;stroke-width:1.0;"/><ellipse cx="64" cy="700.5" fill="#222222" rx="6" ry="6" style="stroke:none;stroke-width:1.0;"/><!--link *start* to start--><g id="link_*start*_start"><path d="M65.5,26.013 C65.5,38.698 65.5,62.409 65.5,81.57 " fill="none" id="*start*-to-start" style="stroke:#B70000;stroke-width:1.0;"/><polygon fill="#B70000" points="65.5,86.84,69.5,77.84,65.5,81.84,61.5,77.84,65.5,86.84" style="stroke:#B70000;stroke-width:1.0;"/></g><!--link start to end--><g id="link_start_end"><path d="M52.8438,137.171 C41.125,161.829 25.5,201.543 25.5,238 C25.5,238 25.5,238 25.5,494 C25.5,522.32 37.0788,552.587 47.4534,574.023 " fill="none" id="start-to-end" style="stroke:#B70000;stroke-width:1.0;stroke-dasharray:7.0,7.0;"/><polygon fill="#B70000" points="49.7811,578.731,49.3784,568.8904,47.5653,574.2488,42.2069,572.4357,49.7811,578.731" style="stroke:#B70000;stroke-width:1.0;"/><text fill="#000000" font-family="sans-serif" font-size="13" lengthAdjust="spacing" textLength="27" x="26.5" y="370.5669">wait</text></g><!--link start to fork--><g id="link_start_fork"><path d="M78.8039,137.101 C90.2109,157.766 106.6652,187.575 118.732,209.435 " fill="none" id="start-to-fork" style="stroke:#B70000;stroke-width:1.0;"/><polygon fill="#B70000" points="121.237,213.973,120.3917,204.1605,118.8217,209.5951,113.387,208.025,121.237,213.973" style="stroke:#B70000;stroke-width:1.0;"/><text fill="#000000" font-family="sans-serif" font-size="13" lengthAdjust="spacing" textLength="25" x="105.5" y="180.0669">fork</text></g><!--link fork to execve--><g id="link_fork_execve"><path d="M135.657,264.101 C136.64,284.593 138.056,314.076 139.102,335.884 " fill="none" id="fork-to-execve" style="stroke:#B70000;stroke-width:1.0;"/><polygon fill="#B70000" points="139.347,340.973,142.913,331.7924,139.1084,335.9787,134.9221,332.1741,139.347,340.973" style="stroke:#B70000;stroke-width:1.0;"/><text fill="#000000" font-family="sans-serif" font-size="13" lengthAdjust="spacing" textLength="47" x="138.5" y="307.0669">execve</text></g><!--link execve to zombie--><g id="link_execve_zombie"><path d="M140.114,391.101 C139.787,411.593 139.315,441.076 138.966,462.884 " fill="none" id="execve-to-zombie" style="stroke:#B70000;stroke-width:1.0;"/><polygon fill="#B70000" points="138.884,467.973,143.0275,459.0382,138.964,462.9736,135.0285,458.9101,138.884,467.973" style="stroke:#B70000;stroke-width:1.0;"/><text fill="#000000" font-family="sans-serif" font-size="13" lengthAdjust="spacing" textLength="24" x="140.5" y="434.0669">exit</text></g><!--link zombie to end--><g id="link_zombie_end"><path d="M121.855,518.191 C110.397,534.843 95.1309,557.03 83.0868,574.534 " fill="none" id="zombie-to-end" style="stroke:#B70000;stroke-width:1.0;stroke-dasharray:7.0,7.0;"/><polygon fill="#B70000" points="80.0984,578.877,88.4953,573.73,82.9327,574.7579,81.9048,569.1952,80.0984,578.877" style="stroke:#B70000;stroke-width:1.0;"/></g><!--link end to *end*--><g id="link_end_*end*"><path d="M63.5,629.2073 C63.5,646.8423 63.5,670.1261 63.5,684.8351 " fill="none" id="end-to-*end*" style="stroke:#B70000;stroke-width:1.0;"/><polygon fill="#B70000" points="63.5,689.8399,67.5,680.8399,63.5,684.8399,59.5,680.8399,63.5,689.8399" style="stroke:#B70000;stroke-width:1.0;"/></g><!--SRC=[PP31QiCm38RlUWh1ReD0TYhaK5WBWrtw0YK7rrQRaCOAihkCbRxxvCHjeR71idv_lomxTAqVZ9WUGpIHy0g8do8yRldCWc-RLQb3nGsB8ybgMMRrYttScPxmkn-CZOapjZi9NxpBB7sa2JU0_NkDHR5EDqc4QSLYxqneoDMgatTOuMZQV5YXTaO-uY1iAGHGOA7TwwZ_oD9fWHGWBHNQfZsx9pe1YQHViZ-axBo1EIpuZ2N77_U7TdPeUtDMtTM78USlZuBK-5H5V-0V]--></g></svg>