<?xml version="1.0" encoding="us-ascii" standalone="no"?><svg xmlns="http://www.w3.org/2000/svg" xmlns:xlink="http://www.w3.org/1999/xlink" contentStyleType="text/css" height="1358px" preserveAspectRatio="none" style="width:1435px;height:1358px;background:#FFFFFF;" version="1.1" viewBox="0 0 1435 1358" width="1435px" zoomAndPan="magnify"><defs/><g><text fill="#000000" font-family="sans-serif" font-size="14" font-weight="bold" lengthAdjust="spacing" textLength="200" x="613.5" y="40.6357">FreeBSD IPC Using a Pipe</text><rect fill="#FFFFFF" height="273.5626" style="stroke:#181818;stroke-width:1.0;" width="10" x="222" y="213.1"/><rect fill="#FFFFFF" height="129.6297" style="stroke:#181818;stroke-width:1.0;" width="10" x="222" y="786.2611"/><rect fill="#FFFFFF" height="29.1328" style="stroke:#181818;stroke-width:1.0;" width="10" x="222" y="1230.6222"/><rect fill="#FFFFFF" height="330.4282" style="stroke:#181818;stroke-width:1.0;" width="10" x="558" y="426.2329"/><rect fill="#FFFFFF" height="345.561" style="stroke:#181818;stroke-width:1.0;" width="10" x="833" y="855.4611"/><rect fill="#FFFFFF" height="71.7328" style="stroke:#181818;stroke-width:1.0;" width="10" x="1210" y="285.3"/><rect fill="#FFFFFF" height="70.4297" style="stroke:#181818;stroke-width:1.0;" width="10" x="1210" y="386.6329"/><rect fill="#FFFFFF" height="29.1328" style="stroke:#181818;stroke-width:1.0;" width="10" x="1210" y="516.2626"/><rect fill="#FFFFFF" height="39.9328" style="stroke:#181818;stroke-width:1.0;" width="10" x="1210" y="585.3282"/><rect fill="#FFFFFF" height="29.6" style="stroke:#181818;stroke-width:1.0;" width="10" x="1210" y="654.8611"/><rect fill="#FFFFFF" height="29.6" style="stroke:#181818;stroke-width:1.0;" width="10" x="1210" y="756.6611"/><rect fill="#FFFFFF" height="29.1328" style="stroke:#181818;stroke-width:1.0;" width="10" x="1210" y="945.4908"/><rect fill="#FFFFFF" height="39.9328" style="stroke:#181818;stroke-width:1.0;" width="10" x="1210" y="1014.5565"/><rect fill="#FFFFFF" height="29.6" style="stroke:#181818;stroke-width:1.0;" width="10" x="1210" y="1084.0893"/><rect fill="#FFFFFF" height="29.6" style="stroke:#181818;stroke-width:1.0;" width="10" x="1210" y="1201.0222"/><line style="stroke:#181818;stroke-width:0.5;stroke-dasharray:5.0,5.0;" x1="27" x2="27" y1="131.2344" y2="1277.755"/><line style="stroke:#181818;stroke-width:0.5;stroke-dasharray:5.0,5.0;" x1="226.5" x2="226.5" y1="131.2344" y2="1277.755"/><line style="stroke:#181818;stroke-width:0.5;stroke-dasharray:5.0,5.0;" x1="562.5" x2="562.5" y1="425.2813" y2="1277.755"/><line style="stroke:#181818;stroke-width:0.5;stroke-dasharray:5.0,5.0;" x1="838" x2="838" y1="854.5096" y2="1277.755"/><line style="stroke:#181818;stroke-width:0.5;stroke-dasharray:5.0,5.0;" x1="1215" x2="1215" y1="131.2344" y2="1277.755"/><text fill="#000000" font-family="sans-serif" font-size="14" lengthAdjust="spacing" textLength="38" x="5" y="127.9326">actor</text><ellipse cx="27" cy="63.4375" fill="#F8CDCC" rx="8" ry="8" style="stroke:#B70000;stroke-width:0.5;"/><path d="M27,71.4375 L27,98.4375 M14,79.4375 L40,79.4375 M27,98.4375 L14,113.4375 M27,98.4375 L40,113.4375 " fill="none" style="stroke:#B70000;stroke-width:0.5;"/><text fill="#000000" font-family="sans-serif" font-size="14" lengthAdjust="spacing" textLength="38" x="5" y="1289.7501">actor</text><ellipse cx="27" cy="1301.5519" fill="#F8CDCC" rx="8" ry="8" style="stroke:#B70000;stroke-width:0.5;"/><path d="M27,1309.5519 L27,1336.5519 M14,1317.5519 L40,1317.5519 M27,1336.5519 L14,1351.5519 M27,1336.5519 L40,1351.5519 " fill="none" style="stroke:#B70000;stroke-width:0.5;"/><rect fill="#F8CDCC" height="30.2969" rx="2.5" ry="2.5" style="stroke:#B70000;stroke-width:0.5;" width="47" x="203.5" y="99.9375"/><text fill="#000000" font-family="sans-serif" font-size="14" lengthAdjust="spacing" textLength="33" x="210.5" y="119.9326">shell</text><rect fill="#F8CDCC" height="30.2969" rx="2.5" ry="2.5" style="stroke:#B70000;stroke-width:0.5;" width="47" x="203.5" y="1276.755"/><text fill="#000000" font-family="sans-serif" font-size="14" lengthAdjust="spacing" textLength="33" x="210.5" y="1296.7501">shell</text><rect fill="#F8CDCC" height="30.2969" rx="2.5" ry="2.5" style="stroke:#B70000;stroke-width:0.5;" width="83" x="521.5" y="1276.755"/><text fill="#000000" font-family="sans-serif" font-size="14" lengthAdjust="spacing" textLength="69" x="528.5" y="1296.7501">process 1</text><rect fill="#F8CDCC" height="30.2969" rx="2.5" ry="2.5" style="stroke:#B70000;stroke-width:0.5;" width="82" x="797" y="1276.755"/><text fill="#000000" font-family="sans-serif" font-size="14" lengthAdjust="spacing" textLength="68" x="804" y="1296.7501">process 2</text><rect fill="#F8CDCC" height="30.2969" rx="2.5" ry="2.5" style="stroke:#B70000;stroke-width:0.5;" width="60" x="1185" y="99.9375"/><text fill="#000000" font-family="sans-serif" font-size="14" lengthAdjust="spacing" textLength="46" x="1192" y="119.9326">kernel</text><rect fill="#F8CDCC" height="30.2969" rx="2.5" ry="2.5" style="stroke:#B70000;stroke-width:0.5;" width="60" x="1185" y="1276.755"/><text fill="#000000" font-family="sans-serif" font-size="14" lengthAdjust="spacing" textLength="46" x="1192" y="1296.7501">kernel</text><rect fill="#FFFFFF" height="273.5626" style="stroke:#181818;stroke-width:1.0;" width="10" x="222" y="213.1"/><rect fill="#FFFFFF" height="129.6297" style="stroke:#181818;stroke-width:1.0;" width="10" x="222" y="786.2611"/><rect fill="#FFFFFF" height="29.1328" style="stroke:#181818;stroke-width:1.0;" width="10" x="222" y="1230.6222"/><rect fill="#FFFFFF" height="330.4282" style="stroke:#181818;stroke-width:1.0;" width="10" x="558" y="426.2329"/><rect fill="#FFFFFF" height="345.561" style="stroke:#181818;stroke-width:1.0;" width="10" x="833" y="855.4611"/><rect fill="#FFFFFF" height="71.7328" style="stroke:#181818;stroke-width:1.0;" width="10" x="1210" y="285.3"/><rect fill="#FFFFFF" height="70.4297" style="stroke:#181818;stroke-width:1.0;" width="10" x="1210" y="386.6329"/><rect fill="#FFFFFF" height="29.1328" style="stroke:#181818;stroke-width:1.0;" width="10" x="1210" y="516.2626"/><rect fill="#FFFFFF" height="39.9328" style="stroke:#181818;stroke-width:1.0;" width="10" x="1210" y="585.3282"/><rect fill="#FFFFFF" height="29.6" style="stroke:#181818;stroke-width:1.0;" width="10" x="1210" y="654.8611"/><rect fill="#FFFFFF" height="29.6" style="stroke:#181818;stroke-width:1.0;" width="10" x="1210" y="756.6611"/><rect fill="#FFFFFF" height="29.1328" style="stroke:#181818;stroke-width:1.0;" width="10" x="1210" y="945.4908"/><rect fill="#FFFFFF" height="39.9328" style="stroke:#181818;stroke-width:1.0;" width="10" x="1210" y="1014.5565"/><rect fill="#FFFFFF" height="29.6" style="stroke:#181818;stroke-width:1.0;" width="10" x="1210" y="1084.0893"/><rect fill="#FFFFFF" height="29.6" style="stroke:#181818;stroke-width:1.0;" width="10" x="1210" y="1201.0222"/><path d="M202,146.2344 L202,186.2344 L1238,186.2344 L1238,156.2344 L1228,146.2344 L202,146.2344 " fill="#F8CDCC" style="stroke:#B70000;stroke-width:0.5;"/><path d="M1228,146.2344 L1228,156.2344 L1238,156.2344 L1228,146.2344 " fill="#F8CDCC" style="stroke:#B70000;stroke-width:0.5;"/><text fill="#000000" font-family="sans-serif" font-size="13" lengthAdjust="spacing" textLength="738" x="346.75" y="163.3013">Note that there are many ways the shell could implement pipes, and it's implementation may vary between shells.</text><text fill="#000000" font-family="sans-serif" font-size="13" lengthAdjust="spacing" textLength="705" x="346.75" y="178.4341">The goal of this diagram is to show how pipes work in FreeBSD, using the shell as an example parent process.</text><polygon fill="#B70000" points="210,209.1,220,213.1,210,217.1,214,213.1" style="stroke:#B70000;stroke-width:1.0;"/><line style="stroke:#B70000;stroke-width:1.0;" x1="27" x2="216" y1="213.1" y2="213.1"/><text fill="#000000" font-family="monospace" font-size="13" lengthAdjust="spacing" textLength="104" x="34" y="207.538">app_1&#160;|&#160;app_2</text><line style="stroke:#B70000;stroke-width:1.0;" x1="232" x2="274" y1="242.7" y2="242.7"/><line style="stroke:#B70000;stroke-width:1.0;" x1="274" x2="274" y1="242.7" y2="255.7"/><line style="stroke:#B70000;stroke-width:1.0;" x1="233" x2="274" y1="255.7" y2="255.7"/><polygon fill="#B70000" points="243,251.7,233,255.7,243,259.7,239,255.7" style="stroke:#B70000;stroke-width:1.0;"/><text fill="#000000" font-family="sans-serif" font-size="13" lengthAdjust="spacing" textLength="130" x="239" y="237.6341">Finds executable for</text><text fill="#000000" font-family="monospace" font-size="13" lengthAdjust="spacing" textLength="40" x="373" y="237.138">app_1</text><text fill="#000000" font-family="sans-serif" font-size="13" lengthAdjust="spacing" textLength="10" x="417" y="237.6341">&amp;</text><text fill="#000000" font-family="monospace" font-size="13" lengthAdjust="spacing" textLength="40" x="431" y="237.138">app_2</text><text fill="#000000" font-family="sans-serif" font-size="13" lengthAdjust="spacing" textLength="35" x="475" y="237.6341">(ie. in</text><text fill="#000000" font-family="monospace" font-size="13" lengthAdjust="spacing" textLength="32" x="514" y="237.138">PATH</text><text fill="#000000" font-family="sans-serif" font-size="13" lengthAdjust="spacing" textLength="5" x="546" y="237.6341">)</text><polygon fill="#B70000" points="1198,281.3,1208,285.3,1198,289.3,1202,285.3" style="stroke:#B70000;stroke-width:1.0;"/><line style="stroke:#B70000;stroke-width:1.0;" x1="232" x2="1204" y1="285.3" y2="285.3"/><text fill="#000000" font-family="monospace" font-size="13" lengthAdjust="spacing" textLength="128" x="239" y="279.738">pipe([fd0,&#160;fd1])</text><text fill="#000000" font-family="sans-serif" font-size="13" lengthAdjust="spacing" textLength="238" x="371" y="280.2341">to initialize pipe &amp; file descriptors (fd)</text><line style="stroke:#B70000;stroke-width:1.0;" x1="1220" x2="1262" y1="314.9001" y2="314.9001"/><line style="stroke:#B70000;stroke-width:1.0;" x1="1262" x2="1262" y1="314.9001" y2="327.9001"/><line style="stroke:#B70000;stroke-width:1.0;" x1="1221" x2="1262" y1="327.9001" y2="327.9001"/><polygon fill="#B70000" points="1231,323.9001,1221,327.9001,1231,331.9001,1227,327.9001" style="stroke:#B70000;stroke-width:1.0;"/><text fill="#000000" font-family="sans-serif" font-size="13" lengthAdjust="spacing" textLength="28" x="1227" y="309.8341">Sets</text><text fill="#000000" font-family="monospace" font-size="13" lengthAdjust="spacing" textLength="40" x="1259" y="309.3381">fd[0]</text><text fill="#000000" font-family="sans-serif" font-size="13" lengthAdjust="spacing" textLength="10" x="1303" y="309.8341">&amp;</text><text fill="#000000" font-family="monospace" font-size="13" lengthAdjust="spacing" textLength="40" x="1317" y="309.3381">fd[1]</text><polygon fill="#B70000" points="243,353.0329,233,357.0329,243,361.0329,239,357.0329" style="stroke:#B70000;stroke-width:1.0;"/><line style="stroke:#B70000;stroke-width:1.0;stroke-dasharray:2.0,2.0;" x1="237" x2="1214" y1="357.0329" y2="357.0329"/><text fill="#000000" font-family="sans-serif" font-size="13" lengthAdjust="spacing" textLength="191" x="249" y="351.9669">Returns 1 to indiciate success</text><polygon fill="#B70000" points="1198,382.6329,1208,386.6329,1198,390.6329,1202,386.6329" style="stroke:#B70000;stroke-width:1.0;"/><line style="stroke:#B70000;stroke-width:1.0;" x1="232" x2="1204" y1="386.6329" y2="386.6329"/><text fill="#000000" font-family="monospace" font-size="13" lengthAdjust="spacing" textLength="48" x="239" y="381.0709">fork()</text><text fill="#000000" font-family="sans-serif" font-size="13" lengthAdjust="spacing" textLength="174" x="291" y="381.567">to create duplicate process</text><polygon fill="#B70000" points="615.5,412.2329,605.5,416.2329,615.5,420.2329,611.5,416.2329" style="stroke:#B70000;stroke-width:1.0;"/><line style="stroke:#B70000;stroke-width:1.0;" x1="609.5" x2="1209" y1="416.2329" y2="416.2329"/><text fill="#000000" font-family="sans-serif" font-size="13" lengthAdjust="spacing" textLength="200" x="621.5" y="411.167">Create forked process (dupe of</text><text fill="#000000" font-family="monospace" font-size="13" lengthAdjust="spacing" textLength="40" x="825.5" y="410.6709">shell</text><text fill="#000000" font-family="sans-serif" font-size="13" lengthAdjust="spacing" textLength="5" x="865.5" y="411.167">)</text><rect fill="#F8CDCC" height="30.2969" rx="2.5" ry="2.5" style="stroke:#B70000;stroke-width:0.5;" width="83" x="521.5" y="394.6329"/><text fill="#000000" font-family="sans-serif" font-size="14" lengthAdjust="spacing" textLength="69" x="528.5" y="414.628">process 1</text><polygon fill="#B70000" points="243,453.0626,233,457.0626,243,461.0626,239,457.0626" style="stroke:#B70000;stroke-width:1.0;"/><line style="stroke:#B70000;stroke-width:1.0;stroke-dasharray:2.0,2.0;" x1="237" x2="1214" y1="457.0626" y2="457.0626"/><text fill="#000000" font-family="sans-serif" font-size="13" lengthAdjust="spacing" textLength="104" x="249" y="451.9967">PID of process 1</text><polygon fill="#B70000" points="1203,482.6626,1213,486.6626,1203,490.6626,1207,486.6626" style="stroke:#B70000;stroke-width:1.0;"/><line style="stroke:#B70000;stroke-width:1.0;" x1="227" x2="1209" y1="486.6626" y2="486.6626"/><text fill="#000000" font-family="monospace" font-size="13" lengthAdjust="spacing" textLength="48" x="234" y="481.1006">wait()</text><text fill="#000000" font-family="sans-serif" font-size="13" lengthAdjust="spacing" textLength="177" x="286" y="481.5967">to wait for process 1 to exit</text><polygon fill="#B70000" points="1198,512.2626,1208,516.2626,1198,520.2626,1202,516.2626" style="stroke:#B70000;stroke-width:1.0;"/><line style="stroke:#B70000;stroke-width:1.0;" x1="568" x2="1204" y1="516.2626" y2="516.2626"/><text fill="#000000" font-family="monospace" font-size="13" lengthAdjust="spacing" textLength="64" x="575" y="510.7006">close(1)</text><text fill="#000000" font-family="sans-serif" font-size="13" lengthAdjust="spacing" textLength="112" x="643" y="511.1967">to close stdout fd</text><polygon fill="#B70000" points="579,541.3954,569,545.3954,579,549.3954,575,545.3954" style="stroke:#B70000;stroke-width:1.0;"/><line style="stroke:#B70000;stroke-width:1.0;stroke-dasharray:2.0,2.0;" x1="573" x2="1214" y1="545.3954" y2="545.3954"/><text fill="#000000" font-family="sans-serif" font-size="13" lengthAdjust="spacing" textLength="188" x="585" y="540.3295">Returns 1 to indicate success</text><polygon fill="#B70000" points="1198,581.3282,1208,585.3282,1198,589.3282,1202,585.3282" style="stroke:#B70000;stroke-width:1.0;"/><line style="stroke:#B70000;stroke-width:1.0;" x1="568" x2="1204" y1="585.3282" y2="585.3282"/><text fill="#000000" font-family="monospace" font-size="13" lengthAdjust="spacing" textLength="72" x="575" y="579.7662">dupe(fd1)</text><text fill="#000000" font-family="sans-serif" font-size="13" lengthAdjust="spacing" textLength="296" x="651" y="580.2623">to direct process 1 output to write side of pipe</text><path d="M1225,558.3954 L1225,598.3954 L1426,598.3954 L1426,568.3954 L1416,558.3954 L1225,558.3954 " fill="#F8CDCC" style="stroke:#B70000;stroke-width:0.5;"/><path d="M1416,558.3954 L1416,568.3954 L1426,568.3954 L1416,558.3954 " fill="#F8CDCC" style="stroke:#B70000;stroke-width:0.5;"/><text fill="#000000" font-family="sans-serif" font-size="13" lengthAdjust="spacing" textLength="180" x="1231" y="575.4623">This is how process 1 writes</text><text fill="#000000" font-family="sans-serif" font-size="13" lengthAdjust="spacing" textLength="112" x="1231" y="590.5951">data to process 2</text><polygon fill="#B70000" points="579,621.261,569,625.261,579,629.261,575,625.261" style="stroke:#B70000;stroke-width:1.0;"/><line style="stroke:#B70000;stroke-width:1.0;stroke-dasharray:2.0,2.0;" x1="573" x2="1214" y1="625.261" y2="625.261"/><text fill="#000000" font-family="sans-serif" font-size="13" lengthAdjust="spacing" textLength="129" x="585" y="620.1951">Returns duplicate of</text><text fill="#000000" font-family="monospace" font-size="13" lengthAdjust="spacing" textLength="24" x="718" y="619.699">fd1</text><polygon fill="#B70000" points="1198,650.8611,1208,654.8611,1198,658.8611,1202,654.8611" style="stroke:#B70000;stroke-width:1.0;"/><line style="stroke:#B70000;stroke-width:1.0;" x1="568" x2="1204" y1="654.8611" y2="654.8611"/><text fill="#000000" font-family="monospace" font-size="13" lengthAdjust="spacing" textLength="232" x="575" y="649.2991">execve(app_1_path,&#160;args,&#160;env)</text><polygon fill="#B70000" points="579,680.4611,569,684.4611,579,688.4611,575,684.4611" style="stroke:#B70000;stroke-width:1.0;"/><line style="stroke:#B70000;stroke-width:1.0;" x1="573" x2="1214" y1="684.4611" y2="684.4611"/><text fill="#000000" font-family="sans-serif" font-size="13" lengthAdjust="spacing" textLength="175" x="585" y="679.3952">Transforms process 1 from</text><text fill="#000000" font-family="monospace" font-size="13" lengthAdjust="spacing" textLength="40" x="764" y="678.8991">shell</text><text fill="#000000" font-family="sans-serif" font-size="13" lengthAdjust="spacing" textLength="42" x="808" y="679.3952">fork to</text><text fill="#000000" font-family="monospace" font-size="13" lengthAdjust="spacing" textLength="40" x="854" y="678.8991">app_1</text><line style="stroke:#B70000;stroke-width:1.0;" x1="568" x2="610" y1="714.0611" y2="714.0611"/><line style="stroke:#B70000;stroke-width:1.0;" x1="610" x2="610" y1="714.0611" y2="727.0611"/><line style="stroke:#B70000;stroke-width:1.0;" x1="569" x2="610" y1="727.0611" y2="727.0611"/><polygon fill="#B70000" points="579,723.0611,569,727.0611,579,731.0611,575,727.0611" style="stroke:#B70000;stroke-width:1.0;"/><text fill="#000000" font-family="sans-serif" font-size="13" lengthAdjust="spacing" textLength="59" x="575" y="708.9952">Executes</text><text fill="#000000" font-family="monospace" font-size="13" lengthAdjust="spacing" textLength="40" x="638" y="708.4991">app_1</text><text fill="#000000" font-family="sans-serif" font-size="13" lengthAdjust="spacing" textLength="120" x="678" y="708.9952">, passing output to</text><text fill="#000000" font-family="monospace" font-size="13" lengthAdjust="spacing" textLength="24" x="802" y="708.4991">fd1</text><polygon fill="#B70000" points="1198,752.6611,1208,756.6611,1198,760.6611,1202,756.6611" style="stroke:#B70000;stroke-width:1.0;"/><line style="stroke:#B70000;stroke-width:1.0;" x1="563" x2="1204" y1="756.6611" y2="756.6611"/><text fill="#000000" font-family="monospace" font-size="13" lengthAdjust="spacing" textLength="48" x="570" y="751.0991">exit()</text><line style="stroke:#A80036;stroke-width:2.0;" x1="554" x2="572" y1="747.6611" y2="765.6611"/><line style="stroke:#A80036;stroke-width:2.0;" x1="554" x2="572" y1="765.6611" y2="747.6611"/><polygon fill="#B70000" points="243,782.2611,233,786.2611,243,790.2611,239,786.2611" style="stroke:#B70000;stroke-width:1.0;"/><line style="stroke:#B70000;stroke-width:1.0;" x1="237" x2="1214" y1="786.2611" y2="786.2611"/><text fill="#000000" font-family="monospace" font-size="13" lengthAdjust="spacing" textLength="120" x="249" y="780.6991">signal(SIGCHLD)</text><text fill="#000000" font-family="sans-serif" font-size="13" lengthAdjust="spacing" textLength="164" x="373" y="781.1952">to alert of process exiting</text><polygon fill="#B70000" points="1203,811.8611,1213,815.8611,1203,819.8611,1207,815.8611" style="stroke:#B70000;stroke-width:1.0;"/><line style="stroke:#B70000;stroke-width:1.0;" x1="232" x2="1209" y1="815.8611" y2="815.8611"/><text fill="#000000" font-family="monospace" font-size="13" lengthAdjust="spacing" textLength="48" x="239" y="810.2991">fork()</text><text fill="#000000" font-family="sans-serif" font-size="13" lengthAdjust="spacing" textLength="174" x="291" y="810.7952">to create duplicate process</text><polygon fill="#B70000" points="890,841.4611,880,845.4611,890,849.4611,886,845.4611" style="stroke:#B70000;stroke-width:1.0;"/><line style="stroke:#B70000;stroke-width:1.0;" x1="884" x2="1214" y1="845.4611" y2="845.4611"/><text fill="#000000" font-family="sans-serif" font-size="13" lengthAdjust="spacing" textLength="200" x="896" y="840.3952">Create forked process (dupe of</text><text fill="#000000" font-family="monospace" font-size="13" lengthAdjust="spacing" textLength="40" x="1100" y="839.8991">shell</text><text fill="#000000" font-family="sans-serif" font-size="13" lengthAdjust="spacing" textLength="5" x="1140" y="840.3952">)</text><rect fill="#F8CDCC" height="30.2969" rx="2.5" ry="2.5" style="stroke:#B70000;stroke-width:0.5;" width="82" x="797" y="823.8611"/><text fill="#000000" font-family="sans-serif" font-size="14" lengthAdjust="spacing" textLength="68" x="804" y="843.8562">process 2</text><polygon fill="#B70000" points="243,882.2908,233,886.2908,243,890.2908,239,886.2908" style="stroke:#B70000;stroke-width:1.0;"/><line style="stroke:#B70000;stroke-width:1.0;stroke-dasharray:2.0,2.0;" x1="237" x2="1214" y1="886.2908" y2="886.2908"/><text fill="#000000" font-family="sans-serif" font-size="13" lengthAdjust="spacing" textLength="104" x="249" y="881.2249">PID of process 2</text><polygon fill="#B70000" points="1203,911.8908,1213,915.8908,1203,919.8908,1207,915.8908" style="stroke:#B70000;stroke-width:1.0;"/><line style="stroke:#B70000;stroke-width:1.0;" x1="227" x2="1209" y1="915.8908" y2="915.8908"/><text fill="#000000" font-family="monospace" font-size="13" lengthAdjust="spacing" textLength="48" x="234" y="910.3288">wait()</text><text fill="#000000" font-family="sans-serif" font-size="13" lengthAdjust="spacing" textLength="177" x="286" y="910.8249">to wait for process 2 to exit</text><polygon fill="#B70000" points="1198,941.4908,1208,945.4908,1198,949.4908,1202,945.4908" style="stroke:#B70000;stroke-width:1.0;"/><line style="stroke:#B70000;stroke-width:1.0;" x1="843" x2="1204" y1="945.4908" y2="945.4908"/><text fill="#000000" font-family="monospace" font-size="13" lengthAdjust="spacing" textLength="64" x="850" y="939.9288">close(0)</text><text fill="#000000" font-family="sans-serif" font-size="13" lengthAdjust="spacing" textLength="102" x="918" y="940.4249">to close stdin fd</text><polygon fill="#B70000" points="854,970.6237,844,974.6237,854,978.6237,850,974.6237" style="stroke:#B70000;stroke-width:1.0;"/><line style="stroke:#B70000;stroke-width:1.0;stroke-dasharray:2.0,2.0;" x1="848" x2="1214" y1="974.6237" y2="974.6237"/><text fill="#000000" font-family="sans-serif" font-size="13" lengthAdjust="spacing" textLength="188" x="860" y="969.5577">Returns 1 to indicate success</text><polygon fill="#B70000" points="1198,1010.5565,1208,1014.5565,1198,1018.5565,1202,1014.5565" style="stroke:#B70000;stroke-width:1.0;"/><line style="stroke:#B70000;stroke-width:1.0;" x1="843" x2="1204" y1="1014.5565" y2="1014.5565"/><text fill="#000000" font-family="monospace" font-size="13" lengthAdjust="spacing" textLength="72" x="850" y="1008.9945">dupe(fd0)</text><text fill="#000000" font-family="sans-serif" font-size="13" lengthAdjust="spacing" textLength="272" x="926" y="1009.4906">to use read side of pipe as process 2 input</text><path d="M1225,987.6237 L1225,1027.6237 L1423,1027.6237 L1423,997.6237 L1413,987.6237 L1225,987.6237 " fill="#F8CDCC" style="stroke:#B70000;stroke-width:0.5;"/><path d="M1413,987.6237 L1413,997.6237 L1423,997.6237 L1413,987.6237 " fill="#F8CDCC" style="stroke:#B70000;stroke-width:0.5;"/><text fill="#000000" font-family="sans-serif" font-size="13" lengthAdjust="spacing" textLength="177" x="1231" y="1004.6906">This is how process 2 reads</text><text fill="#000000" font-family="sans-serif" font-size="13" lengthAdjust="spacing" textLength="130" x="1231" y="1019.8234">data from process 1</text><polygon fill="#B70000" points="854,1050.4893,844,1054.4893,854,1058.4893,850,1054.4893" style="stroke:#B70000;stroke-width:1.0;"/><line style="stroke:#B70000;stroke-width:1.0;stroke-dasharray:2.0,2.0;" x1="848" x2="1214" y1="1054.4893" y2="1054.4893"/><text fill="#000000" font-family="sans-serif" font-size="13" lengthAdjust="spacing" textLength="129" x="860" y="1049.4234">Returns duplicate of</text><text fill="#000000" font-family="monospace" font-size="13" lengthAdjust="spacing" textLength="24" x="993" y="1048.9273">fd0</text><polygon fill="#B70000" points="1198,1080.0893,1208,1084.0893,1198,1088.0893,1202,1084.0893" style="stroke:#B70000;stroke-width:1.0;"/><line style="stroke:#B70000;stroke-width:1.0;" x1="843" x2="1204" y1="1084.0893" y2="1084.0893"/><text fill="#000000" font-family="monospace" font-size="13" lengthAdjust="spacing" textLength="232" x="850" y="1078.5273">execve(app_2_path,&#160;args,&#160;env)</text><polygon fill="#B70000" points="854,1109.6893,844,1113.6893,854,1117.6893,850,1113.6893" style="stroke:#B70000;stroke-width:1.0;"/><line style="stroke:#B70000;stroke-width:1.0;" x1="848" x2="1214" y1="1113.6893" y2="1113.6893"/><text fill="#000000" font-family="sans-serif" font-size="13" lengthAdjust="spacing" textLength="175" x="860" y="1108.6234">Transforms process 2 from</text><text fill="#000000" font-family="monospace" font-size="13" lengthAdjust="spacing" textLength="40" x="1039" y="1108.1273">shell</text><text fill="#000000" font-family="sans-serif" font-size="13" lengthAdjust="spacing" textLength="42" x="1083" y="1108.6234">fork to</text><text fill="#000000" font-family="monospace" font-size="13" lengthAdjust="spacing" textLength="40" x="1129" y="1108.1273">app_2</text><line style="stroke:#B70000;stroke-width:1.0;" x1="843" x2="885" y1="1158.4221" y2="1158.4221"/><line style="stroke:#B70000;stroke-width:1.0;" x1="885" x2="885" y1="1158.4221" y2="1171.4221"/><line style="stroke:#B70000;stroke-width:1.0;" x1="844" x2="885" y1="1171.4221" y2="1171.4221"/><polygon fill="#B70000" points="854,1167.4221,844,1171.4221,854,1175.4221,850,1171.4221" style="stroke:#B70000;stroke-width:1.0;"/><text fill="#000000" font-family="sans-serif" font-size="13" lengthAdjust="spacing" textLength="59" x="850" y="1138.2234">Executes</text><text fill="#000000" font-family="monospace" font-size="13" lengthAdjust="spacing" textLength="40" x="913" y="1137.7273">app_2</text><text fill="#000000" font-family="sans-serif" font-size="13" lengthAdjust="spacing" textLength="127" x="953" y="1138.2234">, reading input from</text><text fill="#000000" font-family="monospace" font-size="13" lengthAdjust="spacing" textLength="24" x="1084" y="1137.7273">fd0</text><text fill="#000000" font-family="sans-serif" font-size="13" lengthAdjust="spacing" textLength="4" x="1108" y="1138.2234">,</text><text fill="#000000" font-family="sans-serif" font-size="13" lengthAdjust="spacing" textLength="278" x="850" y="1153.3562">and outputting to stdout (default output fd)</text><polygon fill="#B70000" points="1198,1197.0222,1208,1201.0222,1198,1205.0222,1202,1201.0222" style="stroke:#B70000;stroke-width:1.0;"/><line style="stroke:#B70000;stroke-width:1.0;" x1="838" x2="1204" y1="1201.0222" y2="1201.0222"/><text fill="#000000" font-family="monospace" font-size="13" lengthAdjust="spacing" textLength="48" x="845" y="1195.4602">exit()</text><line style="stroke:#A80036;stroke-width:2.0;" x1="829" x2="847" y1="1192.0222" y2="1210.0222"/><line style="stroke:#A80036;stroke-width:2.0;" x1="829" x2="847" y1="1210.0222" y2="1192.0222"/><polygon fill="#B70000" points="243,1226.6222,233,1230.6222,243,1234.6222,239,1230.6222" style="stroke:#B70000;stroke-width:1.0;"/><line style="stroke:#B70000;stroke-width:1.0;" x1="237" x2="1214" y1="1230.6222" y2="1230.6222"/><text fill="#000000" font-family="monospace" font-size="13" lengthAdjust="spacing" textLength="120" x="249" y="1225.0602">signal(SIGCHLD)</text><text fill="#000000" font-family="sans-serif" font-size="13" lengthAdjust="spacing" textLength="164" x="373" y="1225.5563">to alert of process exiting</text><polygon fill="#B70000" points="38,1255.755,28,1259.755,38,1263.755,34,1259.755" style="stroke:#B70000;stroke-width:1.0;"/><line style="stroke:#B70000;stroke-width:1.0;" x1="32" x2="226" y1="1259.755" y2="1259.755"/><text fill="#000000" font-family="sans-serif" font-size="13" lengthAdjust="spacing" textLength="171" x="44" y="1254.6891">Prompt for next command</text><text fill="#888888" font-family="sans-serif" font-size="10" lengthAdjust="spacing" textLength="215" x="1212" y="14.2822">EECS 4314 FreeBSD Analysis - BitTheory</text><!--SRC=[jLPjRzis4FwkNt7GWCrfdS3M2cp8XmA9dQm1Yi5OiazDKR3YoIOiam99sV6s_lSUgJSgaPs-pOXjXkOzzzpBSw8LDaUureYNjtEuMSpWRoFa4XWiH87H2Xb73LTNirjuzUlqLNloGh9yRuI1KxWKzcw5Ik-ZoAo5B9Xc6_Wt0dfTQArsCvKh3JzT_ZQXLrJjfrRfIvQkbrgLajSdhd-VpMUpu83Iv7p0_4zbyPYr__sGyO9fAr9HC6cFOOJ7_XSUSsRPHsQE0hHd1a0-HP4aV51RAf1POPwFOOrQOdxk7ODTCKiVg14OlJTCxc77ziRjLGQGgZBd83P5ZXkK5WggkHa3axHfVp7TBymA9GbY3rkcz_0HxGvHLYZcx5vI0y1IiHnKHl3K5bomfUi3Mbf5vzGEtDixW9tIQn2oQQOnbBxdEbxC40V01-Ry0tMK9wTLYiQSHH5ptG7-CogwEa7ihUF-Ncq6qmFxoQFzAeTnu-NqTSNf7EAO5SM7AVm7xZk9wOZ_vUNBUX6SlHQI6me0qv8gI35a15K3n37yNAy914O2prmoudXnSVScZaywiAQSSUpoDdgNySaOCZvzVq9sb5OXXHKi5_-WJop1Pe9ySJIf5WMnDp3A-4aKLK10JEjL07wBrf27ZB-RlA-fqNfAw_Pm5zTVQ4ijAPcLUqvPOzHgfanTBZk3eHWe1UjHpJpLwEnuMUGYTQkw6W7JW6fGGtZnuXncbRK3HDwOmeZGq3LWNFS1fP9gABRkRDW6JyDQtCoTONlcU20x9cmJY5lxuhQsRXSVX6qiJwCevDz3IdDbS3HjakB-0sEvAWcJ3rIjdukXSWnNuo01bp9gaOO15nfJ6yH2J0eYumBLma4BxbFisYsibPz4MYnNzXpkdFxfp-kzHVBsvbvo6caEhvLVz6nqNPVuuXBTi3SF1-VajyMH5zs7WjaLJJQzfFc6SdlIGVHKqIDmfvaqLDoD2GB9jDfqBUQRqCNJYliminxsbPyDQ3h3CGqwumTXb_Kcsi4OoKKLPjMEGJmq0QnM-rxN1q6s0ys89Jt7HxStVypUl9tNJS1or3QKWtD0j9w8mXN-cuK-bFFa- -MTV86yawyMTJ8WwYYaFQ3goMDLqun_LjJ9juWw6HPrGw0azvHHtXElUyHsqT6jhRG1jUVad7Z0HirU4GEpyq1SJ-Gy6HPDSbZEoLVBEHcMSt9SpianPZtiHt9Ed9nTZfoSVNORHpxSyRrqTwnAvzRVVLGp-4SSCrRcjfa2xW5-92UrzfyeFec7dwK_KFkjYlnDYMH64HQLS2G-MBfTRkZIoLlDV0O0]--></g></svg>