<?xml version="1.0" encoding="us-ascii" standalone="no"?><svg xmlns="http://www.w3.org/2000/svg" xmlns:xlink="http://www.w3.org/1999/xlink" contentStyleType="text/css" height="472px" preserveAspectRatio="none" style="width:683px;height:472px;background:#FFFFFF;" version="1.1" viewBox="0 0 683 472" width="683px" zoomAndPan="magnify"><defs/><g><text fill="#000000" font-family="sans-serif" font-size="14" font-weight="bold" lengthAdjust="spacing" textLength="203" x="236" y="40.6357">FreeBSD Docker Use Case</text><rect fill="#FFFFFF" height="410.8203" style="stroke:#181818;stroke-width:0.5;" width="160.5" x="1" y="55.9375"/><text fill="#000000" font-family="sans-serif" font-size="13" font-weight="bold" lengthAdjust="spacing" textLength="82" x="40.25" y="68.0044">User space</text><rect fill="#FFFFFF" height="410.8203" style="stroke:#181818;stroke-width:0.5;" width="380" x="295" y="55.9375"/><text fill="#000000" font-family="sans-serif" font-size="13" font-weight="bold" lengthAdjust="spacing" textLength="96" x="437" y="68.0044">Kernel space</text><rect fill="#FFFFFF" height="195.9609" style="stroke:#181818;stroke-width:1.0;" width="10" x="119.5" y="182.5"/><rect fill="#FFFFFF" height="99.5625" style="stroke:#181818;stroke-width:1.0;" width="10" x="365.5" y="211.6328"/><rect fill="#FFFFFF" height="29.1328" style="stroke:#181818;stroke-width:1.0;" width="10" x="482" y="340.3281"/><rect fill="#FFFFFF" height="127.6953" style="stroke:#181818;stroke-width:1.0;" width="10" x="649" y="250.7656"/><line style="stroke:#181818;stroke-width:0.5;stroke-dasharray:5.0,5.0;" x1="23" x2="23" y1="151.3672" y2="387.4609"/><line style="stroke:#181818;stroke-width:0.5;stroke-dasharray:5.0,5.0;" x1="124.5" x2="124.5" y1="151.3672" y2="387.4609"/><line style="stroke:#181818;stroke-width:0.5;stroke-dasharray:5.0,5.0;" x1="370" x2="370" y1="151.3672" y2="387.4609"/><line style="stroke:#181818;stroke-width:0.5;stroke-dasharray:5.0,5.0;" x1="487" x2="487" y1="151.3672" y2="387.4609"/><line style="stroke:#181818;stroke-width:0.5;stroke-dasharray:5.0,5.0;" x1="654" x2="654" y1="250.2813" y2="387.4609"/><text fill="#000000" font-family="sans-serif" font-size="14" lengthAdjust="spacing" textLength="31" x="5" y="148.0654">User</text><ellipse cx="23.5" cy="83.5703" fill="#F8CDCC" rx="8" ry="8" style="stroke:#B70000;stroke-width:0.5;"/><path d="M23.5,91.5703 L23.5,118.5703 M10.5,99.5703 L36.5,99.5703 M23.5,118.5703 L10.5,133.5703 M23.5,118.5703 L36.5,133.5703 " fill="none" style="stroke:#B70000;stroke-width:0.5;"/><text fill="#000000" font-family="sans-serif" font-size="14" lengthAdjust="spacing" textLength="31" x="5" y="399.4561">User</text><ellipse cx="23.5" cy="411.2578" fill="#F8CDCC" rx="8" ry="8" style="stroke:#B70000;stroke-width:0.5;"/><path d="M23.5,419.2578 L23.5,446.2578 M10.5,427.2578 L36.5,427.2578 M23.5,446.2578 L10.5,461.2578 M23.5,446.2578 L36.5,461.2578 " fill="none" style="stroke:#B70000;stroke-width:0.5;"/><rect fill="#F8CDCC" height="30.2969" rx="2.5" ry="2.5" style="stroke:#B70000;stroke-width:0.5;" width="66" x="91.5" y="120.0703"/><text fill="#000000" font-family="sans-serif" font-size="14" lengthAdjust="spacing" textLength="52" x="98.5" y="140.0654">Docker</text><rect fill="#F8CDCC" height="30.2969" rx="2.5" ry="2.5" style="stroke:#B70000;stroke-width:0.5;" width="66" x="91.5" y="386.4609"/><text fill="#000000" font-family="sans-serif" font-size="14" lengthAdjust="spacing" textLength="52" x="98.5" y="406.4561">Docker</text><rect fill="#F8CDCC" height="46.5938" rx="2.5" ry="2.5" style="stroke:#B70000;stroke-width:0.5;" width="143" x="299" y="103.7734"/><text fill="#000000" font-family="sans-serif" font-size="14" lengthAdjust="spacing" textLength="82" x="327.5" y="123.7686">namespace</text><text fill="#000000" font-family="sans-serif" font-size="14" lengthAdjust="spacing" textLength="4" x="306" y="140.0654">&#160;</text><text fill="#000000" font-family="sans-serif" font-size="14" font-style="italic" lengthAdjust="spacing" textLength="120" x="310" y="140.0654">sys/compat/linux</text><text fill="#000000" font-family="sans-serif" font-size="14" lengthAdjust="spacing" textLength="5" x="430" y="140.0654">/</text><rect fill="#F8CDCC" height="46.5938" rx="2.5" ry="2.5" style="stroke:#B70000;stroke-width:0.5;" width="143" x="299" y="386.4609"/><text fill="#000000" font-family="sans-serif" font-size="14" lengthAdjust="spacing" textLength="82" x="327.5" y="406.4561">namespace</text><text fill="#000000" font-family="sans-serif" font-size="14" lengthAdjust="spacing" textLength="4" x="306" y="422.7529">&#160;</text><text fill="#000000" font-family="sans-serif" font-size="14" font-style="italic" lengthAdjust="spacing" textLength="120" x="310" y="422.7529">sys/compat/linux</text><text fill="#000000" font-family="sans-serif" font-size="14" lengthAdjust="spacing" textLength="5" x="430" y="422.7529">/</text><rect fill="#F8CDCC" height="30.2969" rx="2.5" ry="2.5" style="stroke:#B70000;stroke-width:0.5;" width="70" x="452" y="120.0703"/><text fill="#000000" font-family="sans-serif" font-size="14" lengthAdjust="spacing" textLength="56" x="459" y="140.0654">lynsysfs</text><rect fill="#F8CDCC" height="30.2969" rx="2.5" ry="2.5" style="stroke:#B70000;stroke-width:0.5;" width="70" x="452" y="386.4609"/><text fill="#000000" font-family="sans-serif" font-size="14" lengthAdjust="spacing" textLength="56" x="459" y="406.4561">lynsysfs</text><rect fill="#F8CDCC" height="30.2969" rx="2.5" ry="2.5" style="stroke:#B70000;stroke-width:0.5;" width="34" x="637" y="386.4609"/><text fill="#000000" font-family="sans-serif" font-size="14" lengthAdjust="spacing" textLength="20" x="644" y="406.4561">jail</text><rect fill="#FFFFFF" height="195.9609" style="stroke:#181818;stroke-width:1.0;" width="10" x="119.5" y="182.5"/><rect fill="#FFFFFF" height="99.5625" style="stroke:#181818;stroke-width:1.0;" width="10" x="365.5" y="211.6328"/><rect fill="#FFFFFF" height="29.1328" style="stroke:#181818;stroke-width:1.0;" width="10" x="482" y="340.3281"/><rect fill="#FFFFFF" height="127.6953" style="stroke:#181818;stroke-width:1.0;" width="10" x="649" y="250.7656"/><polygon fill="#B70000" points="107.5,178.5,117.5,182.5,107.5,186.5,111.5,182.5" style="stroke:#B70000;stroke-width:1.0;"/><line style="stroke:#B70000;stroke-width:1.0;" x1="23.5" x2="113.5" y1="182.5" y2="182.5"/><text fill="#000000" font-family="sans-serif" font-size="13" lengthAdjust="spacing" textLength="77" x="30.5" y="177.4341">start docker</text><polygon fill="#B70000" points="353.5,207.6328,363.5,211.6328,353.5,215.6328,357.5,211.6328" style="stroke:#B70000;stroke-width:1.0;"/><line style="stroke:#B70000;stroke-width:1.0;" x1="129.5" x2="359.5" y1="211.6328" y2="211.6328"/><text fill="#000000" font-family="sans-serif" font-size="13" lengthAdjust="spacing" textLength="217" x="136.5" y="206.5669">create namespace, linux_clone3()</text><polygon fill="#B70000" points="625,236.7656,635,240.7656,625,244.7656,629,240.7656" style="stroke:#B70000;stroke-width:1.0;"/><line style="stroke:#B70000;stroke-width:1.0;" x1="375.5" x2="631" y1="240.7656" y2="240.7656"/><text fill="#000000" font-family="sans-serif" font-size="13" lengthAdjust="spacing" textLength="62" x="382.5" y="235.6997">create jail</text><rect fill="#F8CDCC" height="30.2969" rx="2.5" ry="2.5" style="stroke:#B70000;stroke-width:0.5;" width="34" x="637" y="219.6328"/><text fill="#000000" font-family="sans-serif" font-size="14" lengthAdjust="spacing" textLength="20" x="644" y="239.6279">jail</text><polygon fill="#B70000" points="386.5,278.0625,376.5,282.0625,386.5,286.0625,382.5,282.0625" style="stroke:#B70000;stroke-width:1.0;"/><line style="stroke:#B70000;stroke-width:1.0;stroke-dasharray:2.0,2.0;" x1="380.5" x2="648" y1="282.0625" y2="282.0625"/><text fill="#000000" font-family="sans-serif" font-size="13" lengthAdjust="spacing" textLength="14" x="392.5" y="276.9966">jid</text><polygon fill="#B70000" points="140.5,307.1953,130.5,311.1953,140.5,315.1953,136.5,311.1953" style="stroke:#B70000;stroke-width:1.0;"/><line style="stroke:#B70000;stroke-width:1.0;stroke-dasharray:2.0,2.0;" x1="134.5" x2="369.5" y1="311.1953" y2="311.1953"/><text fill="#000000" font-family="sans-serif" font-size="13" lengthAdjust="spacing" textLength="98" x="146.5" y="306.1294">namespace pid</text><polygon fill="#B70000" points="470,336.3281,480,340.3281,470,344.3281,474,340.3281" style="stroke:#B70000;stroke-width:1.0;"/><line style="stroke:#B70000;stroke-width:1.0;" x1="129.5" x2="476" y1="340.3281" y2="340.3281"/><text fill="#000000" font-family="sans-serif" font-size="13" lengthAdjust="spacing" textLength="191" x="136.5" y="335.2622">modify namespace resources</text><polygon fill="#B70000" points="637,365.4609,647,369.4609,637,373.4609,641,369.4609" style="stroke:#B70000;stroke-width:1.0;"/><line style="stroke:#B70000;stroke-width:1.0;" x1="487" x2="643" y1="369.4609" y2="369.4609"/><text fill="#000000" font-family="sans-serif" font-size="13" lengthAdjust="spacing" textLength="133" x="494" y="364.395">modify jail resources</text><text fill="#888888" font-family="sans-serif" font-size="10" lengthAdjust="spacing" textLength="215" x="460" y="14.2822">EECS 4314 FreeBSD Analysis - BitTheory</text><!--SRC=[fL9DImCn4BtdLmpregAiKa7n8DXjUn54K6-2ZCdKPficIv9g5_6_EudjRYljoHnocFSnRoQ9EXg2iISQF0vXwEICF3m7WXBv4bD2nONHg7o4Y_xvHSkyjMYQe0ESma37foavtmWHPjhMw74ENmBWrdltMJhZF1mCBi_ufAACpWzGpjwzMrYrWiTNvR0iMzXvxhgjPEpUHTglpEXkuGFwgAMkqSRz-atI3Xk0_oGOOiGttkX-SSlOOV0jn9jRGe_VnKEeKL8F3YRvh5S66SC0WIjrDmhqVj-qbp0b15a5xBKol2DloVort99Rd5F6uSL2KOGc5DBDQuo5qNQnB8eYMzkm9JEDPUOa9CXCjh4AjKdrgWl3t-W655n3Y4m4bICBb55_O2JEhHB11cP8JwdKnZg1dEDL6cUfVtZKgJYIpSOL71ztojI-8rMYWjErTwLLbgp2TAFN32ZQTCw1U3AcpPtIasQ3xIcuXPSKkZPf1ucTqxIIl8cElT61kJy0]--></g></svg>