<?xml version="1.0" encoding="UTF-8" standalone="no"?><svg xmlns="http://www.w3.org/2000/svg" xmlns:xlink="http://www.w3.org/1999/xlink" contentStyleType="text/css" height="764px" preserveAspectRatio="none" style="width:2263px;height:764px;background:#FFFFFF;" version="1.1" viewBox="0 0 2263 764" width="2263px" zoomAndPan="magnify"><defs/><g><text fill="#888888" font-family="sans-serif" font-size="10" lengthAdjust="spacing" textLength="215" x="2034" y="9.2822">EECS 4314 FreeBSD Analysis - BitTheory</text><!--cluster ks--><g id="cluster_ks"><rect fill="#E1E1E1" height="674" rx="2.5" ry="2.5" style="stroke:#181818;stroke-width:1.0;" width="1044" x="713" y="84.6406"/><rect fill="#E1E1E1" height="10" style="stroke:#181818;stroke-width:1.0;" width="15" x="1737" y="89.6406"/><rect fill="#E1E1E1" height="2" style="stroke:#181818;stroke-width:1.0;" width="4" x="1735" y="91.6406"/><rect fill="#E1E1E1" height="2" style="stroke:#181818;stroke-width:1.0;" width="4" x="1735" y="95.6406"/><text fill="#000000" font-family="sans-serif" font-size="14" font-weight="bold" lengthAdjust="spacing" textLength="101" x="1184.5" y="110.6357">kernel space</text></g><!--cluster sc--><g id="cluster_sc"><path d="M755.5,135.6406 L858.5,135.6406 A3.75,3.75 0 0 1 861,138.1406 L868,157.9375 L1722.5,157.9375 A2.5,2.5 0 0 1 1725,160.4375 L1725,724.1406 A2.5,2.5 0 0 1 1722.5,726.6406 L755.5,726.6406 A2.5,2.5 0 0 1 753,724.1406 L753,138.1406 A2.5,2.5 0 0 1 755.5,135.6406 " fill="#FFFFFF" style="stroke:#000000;stroke-width:1.5;"/><line style="stroke:#000000;stroke-width:1.5;" x1="753" x2="868" y1="157.9375" y2="157.9375"/><text fill="#000000" font-family="sans-serif" font-size="14" font-weight="bold" lengthAdjust="spacing" textLength="102" x="757" y="150.6357">system calls</text></g><!--cluster us--><g id="cluster_us"><rect fill="#E1E1E1" height="409" rx="2.5" ry="2.5" style="stroke:#181818;stroke-width:1.0;" width="666" x="7" y="19.6406"/><rect fill="#E1E1E1" height="10" style="stroke:#181818;stroke-width:1.0;" width="15" x="653" y="24.6406"/><rect fill="#E1E1E1" height="2" style="stroke:#181818;stroke-width:1.0;" width="4" x="651" y="26.6406"/><rect fill="#E1E1E1" height="2" style="stroke:#181818;stroke-width:1.0;" width="4" x="651" y="30.6406"/><text fill="#000000" font-family="sans-serif" font-size="14" font-weight="bold" lengthAdjust="spacing" textLength="87" x="296.5" y="45.6357">user space</text></g><!--cluster ps--><g id="cluster_ps"><rect fill="#FFFFFF" height="326" rx="2.5" ry="2.5" style="stroke:#181818;stroke-width:1.0;" width="594" x="47" y="70.6406"/><path d="M118,70.6406 L118,79.9375 L108,89.9375 L47,89.9375 " fill="none" style="stroke:#181818;stroke-width:1.0;"/><text fill="#000000" font-family="sans-serif" font-size="14" font-weight="bold" lengthAdjust="spacing" textLength="61" x="50" y="84.6357">session</text></g><!--cluster pf--><g id="cluster_pf"><rect fill="none" height="243" rx="2.5" ry="2.5" style="stroke:#181818;stroke-width:1.0;" width="486" x="79" y="121.6406"/><path d="M204,121.6406 L204,130.9375 L194,140.9375 L79,140.9375 " fill="none" style="stroke:#181818;stroke-width:1.0;"/><text fill="#000000" font-family="sans-serif" font-size="14" font-weight="bold" lengthAdjust="spacing" textLength="115" x="82" y="135.6357">process group</text></g><!--cluster hw--><g id="cluster_hw"><rect fill="none" height="231" rx="2.5" ry="2.5" style="stroke:#181818;stroke-width:1.0;" width="460" x="1797" y="127.6406"/><rect fill="none" height="10" style="stroke:#181818;stroke-width:1.0;" width="15" x="2237" y="132.6406"/><rect fill="none" height="2" style="stroke:#181818;stroke-width:1.0;" width="4" x="2235" y="134.6406"/><rect fill="none" height="2" style="stroke:#181818;stroke-width:1.0;" width="4" x="2235" y="138.6406"/><text fill="#000000" font-family="sans-serif" font-size="14" font-weight="bold" lengthAdjust="spacing" textLength="76" x="1989" y="153.6357">hardware</text></g><!--entity headers--><g id="elem_headers"><rect fill="#F8CDCC" height="46.2969" rx="2.5" ry="2.5" style="stroke:#181818;stroke-width:0.5;" width="97" x="774.5" y="170.6406"/><rect fill="#F8CDCC" height="10" style="stroke:#181818;stroke-width:0.5;" width="15" x="851.5" y="175.6406"/><rect fill="#F8CDCC" height="2" style="stroke:#181818;stroke-width:0.5;" width="4" x="849.5" y="177.6406"/><rect fill="#F8CDCC" height="2" style="stroke:#181818;stroke-width:0.5;" width="4" x="849.5" y="181.6406"/><text fill="#000000" font-family="sans-serif" font-size="14" lengthAdjust="spacing" textLength="57" x="789.5" y="203.6357">headers</text></g><!--entity initialization--><g id="elem_initialization"><rect fill="#F8CDCC" height="46.2969" rx="2.5" ry="2.5" style="stroke:#181818;stroke-width:0.5;" width="129" x="906.5" y="170.6406"/><rect fill="#F8CDCC" height="10" style="stroke:#181818;stroke-width:0.5;" width="15" x="1015.5" y="175.6406"/><rect fill="#F8CDCC" height="2" style="stroke:#181818;stroke-width:0.5;" width="4" x="1013.5" y="177.6406"/><rect fill="#F8CDCC" height="2" style="stroke:#181818;stroke-width:0.5;" width="4" x="1013.5" y="181.6406"/><text fill="#000000" font-family="sans-serif" font-size="14" lengthAdjust="spacing" textLength="89" x="921.5" y="203.6357">initialization</text></g><!--entity kernel facilities--><g id="elem_kernel facilities"><rect fill="#F8CDCC" height="46.2969" rx="2.5" ry="2.5" style="stroke:#181818;stroke-width:0.5;" width="151" x="1070.5" y="170.6406"/><rect fill="#F8CDCC" height="10" style="stroke:#181818;stroke-width:0.5;" width="15" x="1201.5" y="175.6406"/><rect fill="#F8CDCC" height="2" style="stroke:#181818;stroke-width:0.5;" width="4" x="1199.5" y="177.6406"/><rect fill="#F8CDCC" height="2" style="stroke:#181818;stroke-width:0.5;" width="4" x="1199.5" y="181.6406"/><text fill="#000000" font-family="sans-serif" font-size="14" lengthAdjust="spacing" textLength="111" x="1085.5" y="203.6357">kernel facilities</text></g><!--entity generic interfaces--><g id="elem_generic interfaces"><rect fill="#F8CDCC" height="46.2969" rx="2.5" ry="2.5" style="stroke:#181818;stroke-width:0.5;" width="171" x="1256.5" y="170.6406"/><rect fill="#F8CDCC" height="10" style="stroke:#181818;stroke-width:0.5;" width="15" x="1407.5" y="175.6406"/><rect fill="#F8CDCC" height="2" style="stroke:#181818;stroke-width:0.5;" width="4" x="1405.5" y="177.6406"/><rect fill="#F8CDCC" height="2" style="stroke:#181818;stroke-width:0.5;" width="4" x="1405.5" y="181.6406"/><text fill="#000000" font-family="sans-serif" font-size="14" lengthAdjust="spacing" textLength="131" x="1271.5" y="203.6357">generic interfaces</text></g><!--entity interprocess communication--><g id="elem_interprocess communication"><rect fill="#F8CDCC" height="46.2969" rx="2.5" ry="2.5" style="stroke:#181818;stroke-width:0.5;" width="246" x="1463" y="170.6406"/><rect fill="#F8CDCC" height="10" style="stroke:#181818;stroke-width:0.5;" width="15" x="1689" y="175.6406"/><rect fill="#F8CDCC" height="2" style="stroke:#181818;stroke-width:0.5;" width="4" x="1687" y="177.6406"/><rect fill="#F8CDCC" height="2" style="stroke:#181818;stroke-width:0.5;" width="4" x="1687" y="181.6406"/><text fill="#000000" font-family="sans-serif" font-size="14" lengthAdjust="spacing" textLength="206" x="1478" y="203.6357">interprocess communication</text></g><!--entity terminal handling--><g id="elem_terminal handling"><rect fill="#F8CDCC" height="46.2969" rx="2.5" ry="2.5" style="stroke:#181818;stroke-width:0.5;" width="166" x="769" y="288.6406"/><rect fill="#F8CDCC" height="10" style="stroke:#181818;stroke-width:0.5;" width="15" x="915" y="293.6406"/><rect fill="#F8CDCC" height="2" style="stroke:#181818;stroke-width:0.5;" width="4" x="913" y="295.6406"/><rect fill="#F8CDCC" height="2" style="stroke:#181818;stroke-width:0.5;" width="4" x="913" y="299.6406"/><text fill="#000000" font-family="sans-serif" font-size="14" lengthAdjust="spacing" textLength="126" x="784" y="321.6357">terminal handling</text></g><!--entity virtual memory--><g id="elem_virtual memory"><rect fill="#F8CDCC" height="46.2969" rx="2.5" ry="2.5" style="stroke:#181818;stroke-width:0.5;" width="149" x="970.5" y="288.6406"/><rect fill="#F8CDCC" height="10" style="stroke:#181818;stroke-width:0.5;" width="15" x="1099.5" y="293.6406"/><rect fill="#F8CDCC" height="2" style="stroke:#181818;stroke-width:0.5;" width="4" x="1097.5" y="295.6406"/><rect fill="#F8CDCC" height="2" style="stroke:#181818;stroke-width:0.5;" width="4" x="1097.5" y="299.6406"/><text fill="#000000" font-family="sans-serif" font-size="14" lengthAdjust="spacing" textLength="109" x="985.5" y="321.6357">virtual memory</text></g><!--entity vnode management--><g id="elem_vnode management"><rect fill="#F8CDCC" height="46.2969" rx="2.5" ry="2.5" style="stroke:#181818;stroke-width:0.5;" width="184" x="1155" y="288.6406"/><rect fill="#F8CDCC" height="10" style="stroke:#181818;stroke-width:0.5;" width="15" x="1319" y="293.6406"/><rect fill="#F8CDCC" height="2" style="stroke:#181818;stroke-width:0.5;" width="4" x="1317" y="295.6406"/><rect fill="#F8CDCC" height="2" style="stroke:#181818;stroke-width:0.5;" width="4" x="1317" y="299.6406"/><text fill="#000000" font-family="sans-serif" font-size="14" lengthAdjust="spacing" textLength="144" x="1170" y="321.6357">vnode management</text></g><!--entity fast filesystem--><g id="elem_fast filesystem"><rect fill="#F8CDCC" height="46.2969" rx="2.5" ry="2.5" style="stroke:#181818;stroke-width:0.5;" width="147" x="1374.5" y="288.6406"/><rect fill="#F8CDCC" height="10" style="stroke:#181818;stroke-width:0.5;" width="15" x="1501.5" y="293.6406"/><rect fill="#F8CDCC" height="2" style="stroke:#181818;stroke-width:0.5;" width="4" x="1499.5" y="295.6406"/><rect fill="#F8CDCC" height="2" style="stroke:#181818;stroke-width:0.5;" width="4" x="1499.5" y="299.6406"/><text fill="#000000" font-family="sans-serif" font-size="14" lengthAdjust="spacing" textLength="107" x="1389.5" y="321.6357">fast filesystem</text></g><!--entity misc filesystem--><g id="elem_misc filesystem"><rect fill="#F8CDCC" height="46.2969" rx="2.5" ry="2.5" style="stroke:#181818;stroke-width:0.5;" width="152" x="1557" y="288.6406"/><rect fill="#F8CDCC" height="10" style="stroke:#181818;stroke-width:0.5;" width="15" x="1689" y="293.6406"/><rect fill="#F8CDCC" height="2" style="stroke:#181818;stroke-width:0.5;" width="4" x="1687" y="295.6406"/><rect fill="#F8CDCC" height="2" style="stroke:#181818;stroke-width:0.5;" width="4" x="1687" y="299.6406"/><text fill="#000000" font-family="sans-serif" font-size="14" lengthAdjust="spacing" textLength="112" x="1572" y="321.6357">misc filesystem</text></g><!--entity network filesystem--><g id="elem_network filesystem"><rect fill="#F8CDCC" height="46.2969" rx="2.5" ry="2.5" style="stroke:#181818;stroke-width:0.5;" width="179" x="787.5" y="452.6406"/><rect fill="#F8CDCC" height="10" style="stroke:#181818;stroke-width:0.5;" width="15" x="946.5" y="457.6406"/><rect fill="#F8CDCC" height="2" style="stroke:#181818;stroke-width:0.5;" width="4" x="944.5" y="459.6406"/><rect fill="#F8CDCC" height="2" style="stroke:#181818;stroke-width:0.5;" width="4" x="944.5" y="463.6406"/><text fill="#000000" font-family="sans-serif" font-size="14" lengthAdjust="spacing" textLength="139" x="802.5" y="485.6357">network filesystem</text></g><!--entity netgraph--><g id="elem_netgraph"><rect fill="#F8CDCC" height="46.2969" rx="2.5" ry="2.5" style="stroke:#181818;stroke-width:0.5;" width="107" x="1001.5" y="452.6406"/><rect fill="#F8CDCC" height="10" style="stroke:#181818;stroke-width:0.5;" width="15" x="1088.5" y="457.6406"/><rect fill="#F8CDCC" height="2" style="stroke:#181818;stroke-width:0.5;" width="4" x="1086.5" y="459.6406"/><rect fill="#F8CDCC" height="2" style="stroke:#181818;stroke-width:0.5;" width="4" x="1086.5" y="463.6406"/><text fill="#000000" font-family="sans-serif" font-size="14" lengthAdjust="spacing" textLength="67" x="1016.5" y="485.6357">netgraph</text></g><!--entity ipv4--><g id="elem_ipv4"><rect fill="#F8CDCC" height="46.2969" rx="2.5" ry="2.5" style="stroke:#181818;stroke-width:0.5;" width="70" x="1144" y="452.6406"/><rect fill="#F8CDCC" height="10" style="stroke:#181818;stroke-width:0.5;" width="15" x="1194" y="457.6406"/><rect fill="#F8CDCC" height="2" style="stroke:#181818;stroke-width:0.5;" width="4" x="1192" y="459.6406"/><rect fill="#F8CDCC" height="2" style="stroke:#181818;stroke-width:0.5;" width="4" x="1192" y="463.6406"/><text fill="#000000" font-family="sans-serif" font-size="14" lengthAdjust="spacing" textLength="30" x="1159" y="485.6357">ipv4</text></g><!--entity ipv6--><g id="elem_ipv6"><rect fill="#F8CDCC" height="46.2969" rx="2.5" ry="2.5" style="stroke:#181818;stroke-width:0.5;" width="71" x="1249.5" y="452.6406"/><rect fill="#F8CDCC" height="10" style="stroke:#181818;stroke-width:0.5;" width="15" x="1300.5" y="457.6406"/><rect fill="#F8CDCC" height="2" style="stroke:#181818;stroke-width:0.5;" width="4" x="1298.5" y="459.6406"/><rect fill="#F8CDCC" height="2" style="stroke:#181818;stroke-width:0.5;" width="4" x="1298.5" y="463.6406"/><text fill="#000000" font-family="sans-serif" font-size="14" lengthAdjust="spacing" textLength="31" x="1264.5" y="485.6357">ipv6</text></g><!--entity wireless--><g id="elem_wireless"><rect fill="#F8CDCC" height="46.2969" rx="2.5" ry="2.5" style="stroke:#181818;stroke-width:0.5;" width="97" x="1355.5" y="452.6406"/><rect fill="#F8CDCC" height="10" style="stroke:#181818;stroke-width:0.5;" width="15" x="1432.5" y="457.6406"/><rect fill="#F8CDCC" height="2" style="stroke:#181818;stroke-width:0.5;" width="4" x="1430.5" y="459.6406"/><rect fill="#F8CDCC" height="2" style="stroke:#181818;stroke-width:0.5;" width="4" x="1430.5" y="463.6406"/><text fill="#000000" font-family="sans-serif" font-size="14" lengthAdjust="spacing" textLength="57" x="1370.5" y="485.6357">wireless</text></g><!--entity packet filter--><g id="elem_packet filter"><rect fill="#F8CDCC" height="46.2969" rx="2.5" ry="2.5" style="stroke:#181818;stroke-width:0.5;" width="131" x="820.5" y="558.6406"/><rect fill="#F8CDCC" height="10" style="stroke:#181818;stroke-width:0.5;" width="15" x="931.5" y="563.6406"/><rect fill="#F8CDCC" height="2" style="stroke:#181818;stroke-width:0.5;" width="4" x="929.5" y="565.6406"/><rect fill="#F8CDCC" height="2" style="stroke:#181818;stroke-width:0.5;" width="4" x="929.5" y="569.6406"/><text fill="#000000" font-family="sans-serif" font-size="14" lengthAdjust="spacing" textLength="91" x="835.5" y="591.6357">packet filter</text></g><!--entity IPsec--><g id="elem_IPsec"><rect fill="#F8CDCC" height="46.2969" rx="2.5" ry="2.5" style="stroke:#181818;stroke-width:0.5;" width="77" x="986.5" y="558.6406"/><rect fill="#F8CDCC" height="10" style="stroke:#181818;stroke-width:0.5;" width="15" x="1043.5" y="563.6406"/><rect fill="#F8CDCC" height="2" style="stroke:#181818;stroke-width:0.5;" width="4" x="1041.5" y="565.6406"/><rect fill="#F8CDCC" height="2" style="stroke:#181818;stroke-width:0.5;" width="4" x="1041.5" y="569.6406"/><text fill="#000000" font-family="sans-serif" font-size="14" lengthAdjust="spacing" textLength="37" x="1001.5" y="591.6357">IPsec</text></g><!--entity cryptography--><g id="elem_cryptography"><rect fill="#F8CDCC" height="46.2969" rx="2.5" ry="2.5" style="stroke:#181818;stroke-width:0.5;" width="138" x="1099" y="558.6406"/><rect fill="#F8CDCC" height="10" style="stroke:#181818;stroke-width:0.5;" width="15" x="1217" y="563.6406"/><rect fill="#F8CDCC" height="2" style="stroke:#181818;stroke-width:0.5;" width="4" x="1215" y="565.6406"/><rect fill="#F8CDCC" height="2" style="stroke:#181818;stroke-width:0.5;" width="4" x="1215" y="569.6406"/><text fill="#000000" font-family="sans-serif" font-size="14" lengthAdjust="spacing" textLength="98" x="1114" y="591.6357">cryptography</text></g><!--entity security--><g id="elem_security"><rect fill="#F8CDCC" height="46.2969" rx="2.5" ry="2.5" style="stroke:#181818;stroke-width:0.5;" width="97" x="1272.5" y="558.6406"/><rect fill="#F8CDCC" height="10" style="stroke:#181818;stroke-width:0.5;" width="15" x="1349.5" y="563.6406"/><rect fill="#F8CDCC" height="2" style="stroke:#181818;stroke-width:0.5;" width="4" x="1347.5" y="565.6406"/><rect fill="#F8CDCC" height="2" style="stroke:#181818;stroke-width:0.5;" width="4" x="1347.5" y="569.6406"/><text fill="#000000" font-family="sans-serif" font-size="14" lengthAdjust="spacing" textLength="57" x="1287.5" y="591.6357">security</text></g><!--entity geometry layer--><g id="elem_geometry layer"><rect fill="#F8CDCC" height="46.2969" rx="2.5" ry="2.5" style="stroke:#181818;stroke-width:0.5;" width="150" x="1405" y="558.6406"/><rect fill="#F8CDCC" height="10" style="stroke:#181818;stroke-width:0.5;" width="15" x="1535" y="563.6406"/><rect fill="#F8CDCC" height="2" style="stroke:#181818;stroke-width:0.5;" width="4" x="1533" y="565.6406"/><rect fill="#F8CDCC" height="2" style="stroke:#181818;stroke-width:0.5;" width="4" x="1533" y="569.6406"/><text fill="#000000" font-family="sans-serif" font-size="14" lengthAdjust="spacing" textLength="110" x="1420" y="591.6357">geometry layer</text></g><!--entity common access method layer--><g id="elem_common access method layer"><rect fill="#F8CDCC" height="46.2969" rx="2.5" ry="2.5" style="stroke:#181818;stroke-width:0.5;" width="254" x="769" y="664.6406"/><rect fill="#F8CDCC" height="10" style="stroke:#181818;stroke-width:0.5;" width="15" x="1003" y="669.6406"/><rect fill="#F8CDCC" height="2" style="stroke:#181818;stroke-width:0.5;" width="4" x="1001" y="671.6406"/><rect fill="#F8CDCC" height="2" style="stroke:#181818;stroke-width:0.5;" width="4" x="1001" y="675.6406"/><text fill="#000000" font-family="sans-serif" font-size="14" lengthAdjust="spacing" textLength="214" x="784" y="697.6357">common access method layer</text></g><!--entity peripheral component interconnect--><g id="elem_peripheral component interconnect"><rect fill="#F8CDCC" height="46.2969" rx="2.5" ry="2.5" style="stroke:#181818;stroke-width:0.5;" width="301" x="1058.5" y="664.6406"/><rect fill="#F8CDCC" height="10" style="stroke:#181818;stroke-width:0.5;" width="15" x="1339.5" y="669.6406"/><rect fill="#F8CDCC" height="2" style="stroke:#181818;stroke-width:0.5;" width="4" x="1337.5" y="671.6406"/><rect fill="#F8CDCC" height="2" style="stroke:#181818;stroke-width:0.5;" width="4" x="1337.5" y="675.6406"/><text fill="#000000" font-family="sans-serif" font-size="14" lengthAdjust="spacing" textLength="261" x="1073.5" y="697.6357">peripheral component interconnect</text></g><!--entity pr--><g id="elem_pr"><rect fill="#FFFFFF" height="36.2969" rx="2.5" ry="2.5" style="stroke:none;stroke-width:0.5;" width="35" x="589.5" y="293.6406"/><text fill="#000000" font-family="sans-serif" font-size="14" lengthAdjust="spacing" textLength="15" x="599.5" y="316.6357">...</text></g><!--entity p1--><g id="elem_p1"><ellipse cx="318" cy="193.6406" fill="#F8CDCC" rx="8" ry="8" style="stroke:#181818;stroke-width:0.5;"/><text fill="#000000" font-family="sans-serif" font-size="14" lengthAdjust="spacing" textLength="49" x="293.5" y="223.6357">parent</text></g><!--entity p2--><g id="elem_p2"><ellipse cx="132" cy="311.6406" fill="#F8CDCC" rx="8" ry="8" style="stroke:#181818;stroke-width:0.5;"/><text fill="#000000" font-family="sans-serif" font-size="14" lengthAdjust="spacing" textLength="43" x="110.5" y="341.6357">child1</text></g><!--entity p3--><g id="elem_p3"><ellipse cx="225" cy="311.6406" fill="#F8CDCC" rx="8" ry="8" style="stroke:#181818;stroke-width:0.5;"/><text fill="#000000" font-family="sans-serif" font-size="14" lengthAdjust="spacing" textLength="42" x="204" y="341.6357">child2</text></g><!--entity p4--><g id="elem_p4"><ellipse cx="318" cy="311.6406" fill="#F8CDCC" rx="8" ry="8" style="stroke:#181818;stroke-width:0.5;"/><text fill="#000000" font-family="sans-serif" font-size="14" lengthAdjust="spacing" textLength="43" x="296.5" y="341.6357">child3</text></g><!--entity p5--><g id="elem_p5"><ellipse cx="411" cy="311.6406" fill="#F8CDCC" rx="8" ry="8" style="stroke:#181818;stroke-width:0.5;"/><text fill="#000000" font-family="sans-serif" font-size="14" lengthAdjust="spacing" textLength="42" x="390" y="341.6357">child4</text></g><!--entity p6--><g id="elem_p6"><ellipse cx="504" cy="311.6406" fill="#F8CDCC" rx="8" ry="8" style="stroke:#181818;stroke-width:0.5;"/><text fill="#000000" font-family="sans-serif" font-size="14" lengthAdjust="spacing" textLength="43" x="482.5" y="341.6357">child5</text></g><!--entity cpu--><g id="elem_cpu"><rect fill="#F8CDCC" height="46.2969" rx="2.5" ry="2.5" style="stroke:#181818;stroke-width:0.5;" width="66" x="1923" y="170.6406"/><rect fill="#F8CDCC" height="10" style="stroke:#181818;stroke-width:0.5;" width="15" x="1969" y="175.6406"/><rect fill="#F8CDCC" height="2" style="stroke:#181818;stroke-width:0.5;" width="4" x="1967" y="177.6406"/><rect fill="#F8CDCC" height="2" style="stroke:#181818;stroke-width:0.5;" width="4" x="1967" y="181.6406"/><text fill="#000000" font-family="sans-serif" font-size="14" lengthAdjust="spacing" textLength="26" x="1938" y="203.6357">cpu</text></g><!--entity moniter--><g id="elem_moniter"><rect fill="#F8CDCC" height="46.2969" rx="2.5" ry="2.5" style="stroke:#181818;stroke-width:0.5;" width="98" x="2024" y="170.6406"/><rect fill="#F8CDCC" height="10" style="stroke:#181818;stroke-width:0.5;" width="15" x="2102" y="175.6406"/><rect fill="#F8CDCC" height="2" style="stroke:#181818;stroke-width:0.5;" width="4" x="2100" y="177.6406"/><rect fill="#F8CDCC" height="2" style="stroke:#181818;stroke-width:0.5;" width="4" x="2100" y="181.6406"/><text fill="#000000" font-family="sans-serif" font-size="14" lengthAdjust="spacing" textLength="58" x="2039" y="203.6357">moniter</text></g><!--entity mouse--><g id="elem_mouse"><rect fill="#F8CDCC" height="46.2969" rx="2.5" ry="2.5" style="stroke:#181818;stroke-width:0.5;" width="87" x="1829.5" y="288.6406"/><rect fill="#F8CDCC" height="10" style="stroke:#181818;stroke-width:0.5;" width="15" x="1896.5" y="293.6406"/><rect fill="#F8CDCC" height="2" style="stroke:#181818;stroke-width:0.5;" width="4" x="1894.5" y="295.6406"/><rect fill="#F8CDCC" height="2" style="stroke:#181818;stroke-width:0.5;" width="4" x="1894.5" y="299.6406"/><text fill="#000000" font-family="sans-serif" font-size="14" lengthAdjust="spacing" textLength="47" x="1844.5" y="321.6357">mouse</text></g><!--entity disks--><g id="elem_disks"><rect fill="#F8CDCC" height="46.2969" rx="2.5" ry="2.5" style="stroke:#181818;stroke-width:0.5;" width="76" x="2157" y="170.6406"/><rect fill="#F8CDCC" height="10" style="stroke:#181818;stroke-width:0.5;" width="15" x="2213" y="175.6406"/><rect fill="#F8CDCC" height="2" style="stroke:#181818;stroke-width:0.5;" width="4" x="2211" y="177.6406"/><rect fill="#F8CDCC" height="2" style="stroke:#181818;stroke-width:0.5;" width="4" x="2211" y="181.6406"/><text fill="#000000" font-family="sans-serif" font-size="14" lengthAdjust="spacing" textLength="36" x="2172" y="203.6357">disks</text></g><!--entity keyboard--><g id="elem_keyboard"><rect fill="#F8CDCC" height="46.2969" rx="2.5" ry="2.5" style="stroke:#181818;stroke-width:0.5;" width="108" x="1952" y="288.6406"/><rect fill="#F8CDCC" height="10" style="stroke:#181818;stroke-width:0.5;" width="15" x="2040" y="293.6406"/><rect fill="#F8CDCC" height="2" style="stroke:#181818;stroke-width:0.5;" width="4" x="2038" y="295.6406"/><rect fill="#F8CDCC" height="2" style="stroke:#181818;stroke-width:0.5;" width="4" x="2038" y="299.6406"/><text fill="#000000" font-family="sans-serif" font-size="14" lengthAdjust="spacing" textLength="68" x="1967" y="321.6357">keyboard</text></g><!--entity network links--><g id="elem_network links"><rect fill="#F8CDCC" height="46.2969" rx="2.5" ry="2.5" style="stroke:#181818;stroke-width:0.5;" width="137" x="2095.5" y="288.6406"/><rect fill="#F8CDCC" height="10" style="stroke:#181818;stroke-width:0.5;" width="15" x="2212.5" y="293.6406"/><rect fill="#F8CDCC" height="2" style="stroke:#181818;stroke-width:0.5;" width="4" x="2210.5" y="295.6406"/><rect fill="#F8CDCC" height="2" style="stroke:#181818;stroke-width:0.5;" width="4" x="2210.5" y="299.6406"/><text fill="#000000" font-family="sans-serif" font-size="14" lengthAdjust="spacing" textLength="97" x="2110.5" y="321.6357">network links</text></g><!--entity hr--><g id="elem_hr"><rect fill="#FFFFFF" height="36.2969" rx="2.5" ry="2.5" style="stroke:none;stroke-width:0.5;" width="35" x="1852.5" y="175.6406"/><text fill="#000000" font-family="sans-serif" font-size="14" lengthAdjust="spacing" textLength="15" x="1862.5" y="198.6357">...</text></g><!--link p1 to p2--><g id="link_p1_p2"><path d="M317.865,204.6406 C312.233,204.6406 132,204.6406 132,204.6406 C132,204.6406 132,297.5176 132,297.5176 " fill="none" id="p1-to-p2" style="stroke:#B70000;stroke-width:1.0;"/><polygon fill="#B70000" points="132,302.5176,136,293.5176,132,297.5176,128,293.5176,132,302.5176" style="stroke:#B70000;stroke-width:1.0;"/></g><!--link p1 to p3--><g id="link_p1_p3"><path d="M317.933,213.6406 C315.116,213.6406 225,213.6406 225,213.6406 C225,213.6406 225,297.5966 225,297.5966 " fill="none" id="p1-to-p3" style="stroke:#B70000;stroke-width:1.0;"/><polygon fill="#B70000" points="225,302.5966,229,293.5966,225,297.5966,221,293.5966,225,302.5966" style="stroke:#B70000;stroke-width:1.0;"/></g><!--link p1 to p4--><g id="link_p1_p4"><path d="M318,202.8996 C318,202.8996 318,297.4246 318,297.4246 " fill="none" id="p1-to-p4" style="stroke:#B70000;stroke-width:1.0;"/><polygon fill="#B70000" points="318,302.4246,322,293.4246,318,297.4246,314,293.4246,318,302.4246" style="stroke:#B70000;stroke-width:1.0;"/></g><!--link p1 to p5--><g id="link_p1_p5"><path d="M318.067,209.6406 C320.884,209.6406 411,209.6406 411,209.6406 C411,209.6406 411,297.5886 411,297.5886 " fill="none" id="p1-to-p5" style="stroke:#B70000;stroke-width:1.0;"/><polygon fill="#B70000" points="411,302.5886,415,293.5886,411,297.5886,407,293.5886,411,302.5886" style="stroke:#B70000;stroke-width:1.0;"/></g><!--link p1 to p6--><g id="link_p1_p6"><path d="M327.224,202.6406 C364.755,202.6406 504,202.6406 504,202.6406 C504,202.6406 504,297.3476 504,297.3476 " fill="none" id="p1-to-p6" style="stroke:#B70000;stroke-width:1.0;"/><polygon fill="#B70000" points="504,302.3476,508,293.3476,504,297.3476,500,293.3476,504,302.3476" style="stroke:#B70000;stroke-width:1.0;"/></g><!--reverse link pf to pr--><!--reverse link hr to mouse--><!--reverse link us to ks--><g id="link_us_ks"><path d="M674.6774,152.6406 C680.4946,152.6406 685.8379,152.6406 690.6641,152.6406 C695.4902,152.6406 699.7993,152.6406 703.5482,152.6406 C705.4227,152.6406 707.1571,152.6406 708.746,152.6406 C709.5405,152.6406 710.2987,152.6406 711.0198,152.6406 C711.3803,152.6406 711.7316,152.6406 712.0736,152.6406 C712.2445,152.6406 712.4132,152.6406 712.5795,152.6406 C712.6626,152.6406 712.7452,152.6406 712.8271,152.6406 C712.8681,152.6406 712.909,152.6406 712.9497,152.6406 " fill="none" id="us-backto-ks" style="stroke:#B70000;stroke-width:1.0;"/><polygon fill="#B70000" points="674.6774,152.6406,683.6774,156.6406,679.6774,152.6406,683.6774,148.6406,674.6774,152.6406" style="stroke:#B70000;stroke-width:1.0;"/></g><!--reverse link ks to us--><g id="link_ks_us"><path d="M712.0736,262.6406 C711.7316,262.6406 711.3803,262.6406 711.0198,262.6406 C710.2987,262.6406 709.5405,262.6406 708.746,262.6406 C707.1571,262.6406 705.4227,262.6406 703.5482,262.6406 C699.7993,262.6406 695.4902,262.6406 690.6641,262.6406 C685.8379,262.6406 680.4946,262.6406 674.6774,262.6406 C674.3138,262.6406 673.9484,262.6406 673.5811,262.6406 C673.3975,262.6406 673.2134,262.6406 673.0288,262.6406 " fill="none" id="ks-backto-us" style="stroke:#B70000;stroke-width:1.0;"/><polygon fill="#B70000" points="712.0736,262.6406,703.0736,258.6406,707.0736,262.6406,703.0736,266.6406,712.0736,262.6406" style="stroke:#B70000;stroke-width:1.0;"/></g><!--link hw to ks--><g id="link_hw_ks"><path d="M1796.5335,242.6406 C1796.1069,242.6406 1795.6648,242.6406 1795.2073,242.6406 C1794.2923,242.6406 1793.3158,242.6406 1792.2787,242.6406 C1788.1304,242.6406 1783.0143,242.6406 1776.9993,242.6406 C1773.9918,242.6406 1770.7596,242.6406 1767.3114,242.6406 C1765.5873,242.6406 1763.8091,242.6406 1761.9781,242.6406 C1761.0625,242.6406 1760.1338,242.6406 1759.1919,242.6406 C1758.721,242.6406 1758.2468,242.6406 1757.7693,242.6406 C1757.5306,242.6406 1757.291,242.6406 1757.0507,242.6406 " fill="none" id="hw-to-ks" style="stroke:#B70000;stroke-width:1.0;"/><polygon fill="#B70000" points="1757.0507,242.6406,1766.0507,246.6406,1762.0507,242.6406,1766.0507,238.6406,1757.0507,242.6406" style="stroke:#B70000;stroke-width:1.0;"/></g><!--link ks to hw--><g id="link_ks_hw"><path d="M1759.4746,140.6406 C1773.96,140.6406 1785.3413,140.6406 1793.1013,140.6406 C1794.0713,140.6406 1794.9847,140.6406 1795.8406,140.6406 C1796.0545,140.6406 1796.2649,140.6406 1796.4716,140.6406 C1796.575,140.6406 1796.6775,140.6406 1796.779,140.6406 C1796.8298,140.6406 1796.8803,140.6406 1796.9307,140.6406 " fill="none" id="ks-to-hw" style="stroke:#B70000;stroke-width:1.0;"/><polygon fill="#B70000" points="1796.9307,140.6406,1787.9307,136.6406,1791.9307,140.6406,1787.9307,144.6406,1796.9307,140.6406" style="stroke:#B70000;stroke-width:1.0;"/></g><!--SRC=[VLHDRzim3BtxLn39sLtJfDqEHO4rRO7T1dIte0TLPYp1icHGSWrlw7yVBQUhhIHpBY7V4xyU9OMYG8B7n-qpRDQh3JmHultp0totmlHUUyZXNeTV2XtrMUOhRHj1eeO_6O0WSfrqnX4ixxzUyiTEeos6la5m59JBthFireVUu5r6A8EmfS5u6E1LoAearzfYZD4f7J0YNed2TTgMS1dj8UR82IIivmhG1Wvz- -KGEikagnjdsGsB2icY0QP9N83mK7bOuchunSnxPuQU5xxt0MkGmXWVULx2SX-_GuKx5SVZNs3vz6txiDsENcrrqCBeto9ePnFma7qlf3PCm_HmYHP9Iz0s834BZwCpq91Zn0EtLRTMorEPc5PhbWcKi0MFg4pmDqsXPRZ6ciLBGUiAX5fOKMBDOqlWlV01zjhWEAG4hJMFwYpA-dUEglyIIXADIXjltZR7hfl4rMb2ZfjEZSMkC9RCOqcm7pyzoiGdgM-2YsMaes5oIphqHyAv6WFrO4H_b6BGoLaGCgh6FEMAayI6nMyK4klokR9HSkaiR_bCYFVX-amsk_MyjvzxtIPxpVSIUQsv0bwMo6ZyRACFZ8_b6YvVC_8O1oP8JT8CZ7Z3HcWrAUW3bqgROZNYL-Vmgn5VdyFN8xuvXsz6_FeSVZtYD_zm9d2rUP7VSLLJOpqrDbFZUchSn943V3vKYukBYp4BnUW4URjJkYZGlWmdzYT4KeAAZkSNpwak3dudctOgx8wNHIUBoZxMT-OfjAzcYywlI__gEC7C-N7X-0sOqqyqecYIQjOC8zn8bl5hcHksMp_ylSqf__VNvDnG9D1meFiB]--></g></svg>