<?xml version="1.0" encoding="UTF-8" standalone="no"?><svg xmlns="http://www.w3.org/2000/svg" xmlns:xlink="http://www.w3.org/1999/xlink" contentStyleType="text/css" height="752px" preserveAspectRatio="none" style="width:2263px;height:752px;background:#FFFFFF;" version="1.1" viewBox="0 0 2263 752" width="2263px" zoomAndPan="magnify"><defs/><g><!--cluster ks--><g id="cluster_ks"><rect fill="#E1E1E1" height="674" rx="2.5" ry="2.5" style="stroke:#181818;stroke-width:1.0;" width="1044" x="713" y="72"/><rect fill="#E1E1E1" height="10" style="stroke:#181818;stroke-width:1.0;" width="15" x="1737" y="77"/><rect fill="#E1E1E1" height="2" style="stroke:#181818;stroke-width:1.0;" width="4" x="1735" y="79"/><rect fill="#E1E1E1" height="2" style="stroke:#181818;stroke-width:1.0;" width="4" x="1735" y="83"/><text fill="#000000" font-family="sans-serif" font-size="14" font-weight="bold" lengthAdjust="spacing" textLength="101" x="1184.5" y="97.9951">kernel space</text></g><!--cluster sc--><g id="cluster_sc"><path d="M755.5,123 L858.5,123 A3.75,3.75 0 0 1 861,125.5 L868,145.2969 L1722.5,145.2969 A2.5,2.5 0 0 1 1725,147.7969 L1725,711.5 A2.5,2.5 0 0 1 1722.5,714 L755.5,714 A2.5,2.5 0 0 1 753,711.5 L753,125.5 A2.5,2.5 0 0 1 755.5,123 " fill="#FFFFFF" style="stroke:#000000;stroke-width:1.5;"/><line style="stroke:#000000;stroke-width:1.5;" x1="753" x2="868" y1="145.2969" y2="145.2969"/><text fill="#000000" font-family="sans-serif" font-size="14" font-weight="bold" lengthAdjust="spacing" textLength="102" x="757" y="137.9951">system calls</text></g><!--cluster us--><g id="cluster_us"><rect fill="#E1E1E1" height="409" rx="2.5" ry="2.5" style="stroke:#181818;stroke-width:1.0;" width="666" x="7" y="7"/><rect fill="#E1E1E1" height="10" style="stroke:#181818;stroke-width:1.0;" width="15" x="653" y="12"/><rect fill="#E1E1E1" height="2" style="stroke:#181818;stroke-width:1.0;" width="4" x="651" y="14"/><rect fill="#E1E1E1" height="2" style="stroke:#181818;stroke-width:1.0;" width="4" x="651" y="18"/><text fill="#000000" font-family="sans-serif" font-size="14" font-weight="bold" lengthAdjust="spacing" textLength="87" x="296.5" y="32.9951">user space</text></g><!--cluster ps--><g id="cluster_ps"><rect fill="#FFFFFF" height="326" rx="2.5" ry="2.5" style="stroke:#181818;stroke-width:1.0;" width="594" x="47" y="58"/><path d="M118,58 L118,67.2969 L108,77.2969 L47,77.2969 " fill="none" style="stroke:#181818;stroke-width:1.0;"/><text fill="#000000" font-family="sans-serif" font-size="14" font-weight="bold" lengthAdjust="spacing" textLength="61" x="50" y="71.9951">session</text></g><!--cluster pf--><g id="cluster_pf"><rect fill="none" height="243" rx="2.5" ry="2.5" style="stroke:#181818;stroke-width:1.0;" width="486" x="79" y="109"/><path d="M204,109 L204,118.2969 L194,128.2969 L79,128.2969 " fill="none" style="stroke:#181818;stroke-width:1.0;"/><text fill="#000000" font-family="sans-serif" font-size="14" font-weight="bold" lengthAdjust="spacing" textLength="115" x="82" y="122.9951">process group</text></g><!--cluster hw--><g id="cluster_hw"><rect fill="none" height="231" rx="2.5" ry="2.5" style="stroke:#181818;stroke-width:1.0;" width="460" x="1797" y="115"/><rect fill="none" height="10" style="stroke:#181818;stroke-width:1.0;" width="15" x="2237" y="120"/><rect fill="none" height="2" style="stroke:#181818;stroke-width:1.0;" width="4" x="2235" y="122"/><rect fill="none" height="2" style="stroke:#181818;stroke-width:1.0;" width="4" x="2235" y="126"/><text fill="#000000" font-family="sans-serif" font-size="14" font-weight="bold" lengthAdjust="spacing" textLength="76" x="1989" y="140.9951">hardware</text></g><!--entity headers--><g id="elem_headers"><rect fill="#F8CDCC" height="46.2969" rx="2.5" ry="2.5" style="stroke:#181818;stroke-width:0.5;" width="97" x="774.5" y="158"/><rect fill="#F8CDCC" height="10" style="stroke:#181818;stroke-width:0.5;" width="15" x="851.5" y="163"/><rect fill="#F8CDCC" height="2" style="stroke:#181818;stroke-width:0.5;" width="4" x="849.5" y="165"/><rect fill="#F8CDCC" height="2" style="stroke:#181818;stroke-width:0.5;" width="4" x="849.5" y="169"/><text fill="#000000" font-family="sans-serif" font-size="14" lengthAdjust="spacing" textLength="57" x="789.5" y="190.9951">headers</text></g><!--entity initialization--><g id="elem_initialization"><rect fill="#F8CDCC" height="46.2969" rx="2.5" ry="2.5" style="stroke:#181818;stroke-width:0.5;" width="129" x="906.5" y="158"/><rect fill="#F8CDCC" height="10" style="stroke:#181818;stroke-width:0.5;" width="15" x="1015.5" y="163"/><rect fill="#F8CDCC" height="2" style="stroke:#181818;stroke-width:0.5;" width="4" x="1013.5" y="165"/><rect fill="#F8CDCC" height="2" style="stroke:#181818;stroke-width:0.5;" width="4" x="1013.5" y="169"/><text fill="#000000" font-family="sans-serif" font-size="14" lengthAdjust="spacing" textLength="89" x="921.5" y="190.9951">initialization</text></g><!--entity kernel facilities--><g id="elem_kernel facilities"><rect fill="#F8CDCC" height="46.2969" rx="2.5" ry="2.5" style="stroke:#181818;stroke-width:0.5;" width="151" x="1070.5" y="158"/><rect fill="#F8CDCC" height="10" style="stroke:#181818;stroke-width:0.5;" width="15" x="1201.5" y="163"/><rect fill="#F8CDCC" height="2" style="stroke:#181818;stroke-width:0.5;" width="4" x="1199.5" y="165"/><rect fill="#F8CDCC" height="2" style="stroke:#181818;stroke-width:0.5;" width="4" x="1199.5" y="169"/><text fill="#000000" font-family="sans-serif" font-size="14" lengthAdjust="spacing" textLength="111" x="1085.5" y="190.9951">kernel facilities</text></g><!--entity generic interfaces--><g id="elem_generic interfaces"><rect fill="#F8CDCC" height="46.2969" rx="2.5" ry="2.5" style="stroke:#181818;stroke-width:0.5;" width="171" x="1256.5" y="158"/><rect fill="#F8CDCC" height="10" style="stroke:#181818;stroke-width:0.5;" width="15" x="1407.5" y="163"/><rect fill="#F8CDCC" height="2" style="stroke:#181818;stroke-width:0.5;" width="4" x="1405.5" y="165"/><rect fill="#F8CDCC" height="2" style="stroke:#181818;stroke-width:0.5;" width="4" x="1405.5" y="169"/><text fill="#000000" font-family="sans-serif" font-size="14" lengthAdjust="spacing" textLength="131" x="1271.5" y="190.9951">generic interfaces</text></g><!--entity interprocess communication--><g id="elem_interprocess communication"><rect fill="#F8CDCC" height="46.2969" rx="2.5" ry="2.5" style="stroke:#181818;stroke-width:0.5;" width="246" x="1463" y="158"/><rect fill="#F8CDCC" height="10" style="stroke:#181818;stroke-width:0.5;" width="15" x="1689" y="163"/><rect fill="#F8CDCC" height="2" style="stroke:#181818;stroke-width:0.5;" width="4" x="1687" y="165"/><rect fill="#F8CDCC" height="2" style="stroke:#181818;stroke-width:0.5;" width="4" x="1687" y="169"/><text fill="#000000" font-family="sans-serif" font-size="14" lengthAdjust="spacing" textLength="206" x="1478" y="190.9951">interprocess communication</text></g><!--entity terminal handling--><g id="elem_terminal handling"><rect fill="#F8CDCC" height="46.2969" rx="2.5" ry="2.5" style="stroke:#181818;stroke-width:0.5;" width="166" x="769" y="276"/><rect fill="#F8CDCC" height="10" style="stroke:#181818;stroke-width:0.5;" width="15" x="915" y="281"/><rect fill="#F8CDCC" height="2" style="stroke:#181818;stroke-width:0.5;" width="4" x="913" y="283"/><rect fill="#F8CDCC" height="2" style="stroke:#181818;stroke-width:0.5;" width="4" x="913" y="287"/><text fill="#000000" font-family="sans-serif" font-size="14" lengthAdjust="spacing" textLength="126" x="784" y="308.9951">terminal handling</text></g><!--entity virtual memory--><g id="elem_virtual memory"><rect fill="#F8CDCC" height="46.2969" rx="2.5" ry="2.5" style="stroke:#181818;stroke-width:0.5;" width="149" x="970.5" y="276"/><rect fill="#F8CDCC" height="10" style="stroke:#181818;stroke-width:0.5;" width="15" x="1099.5" y="281"/><rect fill="#F8CDCC" height="2" style="stroke:#181818;stroke-width:0.5;" width="4" x="1097.5" y="283"/><rect fill="#F8CDCC" height="2" style="stroke:#181818;stroke-width:0.5;" width="4" x="1097.5" y="287"/><text fill="#000000" font-family="sans-serif" font-size="14" lengthAdjust="spacing" textLength="109" x="985.5" y="308.9951">virtual memory</text></g><!--entity vnode management--><g id="elem_vnode management"><rect fill="#F8CDCC" height="46.2969" rx="2.5" ry="2.5" style="stroke:#181818;stroke-width:0.5;" width="184" x="1155" y="276"/><rect fill="#F8CDCC" height="10" style="stroke:#181818;stroke-width:0.5;" width="15" x="1319" y="281"/><rect fill="#F8CDCC" height="2" style="stroke:#181818;stroke-width:0.5;" width="4" x="1317" y="283"/><rect fill="#F8CDCC" height="2" style="stroke:#181818;stroke-width:0.5;" width="4" x="1317" y="287"/><text fill="#000000" font-family="sans-serif" font-size="14" lengthAdjust="spacing" textLength="144" x="1170" y="308.9951">vnode management</text></g><!--entity fast filesystem--><g id="elem_fast filesystem"><rect fill="#F8CDCC" height="46.2969" rx="2.5" ry="2.5" style="stroke:#181818;stroke-width:0.5;" width="147" x="1374.5" y="276"/><rect fill="#F8CDCC" height="10" style="stroke:#181818;stroke-width:0.5;" width="15" x="1501.5" y="281"/><rect fill="#F8CDCC" height="2" style="stroke:#181818;stroke-width:0.5;" width="4" x="1499.5" y="283"/><rect fill="#F8CDCC" height="2" style="stroke:#181818;stroke-width:0.5;" width="4" x="1499.5" y="287"/><text fill="#000000" font-family="sans-serif" font-size="14" lengthAdjust="spacing" textLength="107" x="1389.5" y="308.9951">fast filesystem</text></g><!--entity misc filesystem--><g id="elem_misc filesystem"><rect fill="#F8CDCC" height="46.2969" rx="2.5" ry="2.5" style="stroke:#181818;stroke-width:0.5;" width="152" x="1557" y="276"/><rect fill="#F8CDCC" height="10" style="stroke:#181818;stroke-width:0.5;" width="15" x="1689" y="281"/><rect fill="#F8CDCC" height="2" style="stroke:#181818;stroke-width:0.5;" width="4" x="1687" y="283"/><rect fill="#F8CDCC" height="2" style="stroke:#181818;stroke-width:0.5;" width="4" x="1687" y="287"/><text fill="#000000" font-family="sans-serif" font-size="14" lengthAdjust="spacing" textLength="112" x="1572" y="308.9951">misc filesystem</text></g><!--entity network filesystem--><g id="elem_network filesystem"><rect fill="#F8CDCC" height="46.2969" rx="2.5" ry="2.5" style="stroke:#181818;stroke-width:0.5;" width="179" x="787.5" y="440"/><rect fill="#F8CDCC" height="10" style="stroke:#181818;stroke-width:0.5;" width="15" x="946.5" y="445"/><rect fill="#F8CDCC" height="2" style="stroke:#181818;stroke-width:0.5;" width="4" x="944.5" y="447"/><rect fill="#F8CDCC" height="2" style="stroke:#181818;stroke-width:0.5;" width="4" x="944.5" y="451"/><text fill="#000000" font-family="sans-serif" font-size="14" lengthAdjust="spacing" textLength="139" x="802.5" y="472.9951">network filesystem</text></g><!--entity netgraph--><g id="elem_netgraph"><rect fill="#F8CDCC" height="46.2969" rx="2.5" ry="2.5" style="stroke:#181818;stroke-width:0.5;" width="107" x="1001.5" y="440"/><rect fill="#F8CDCC" height="10" style="stroke:#181818;stroke-width:0.5;" width="15" x="1088.5" y="445"/><rect fill="#F8CDCC" height="2" style="stroke:#181818;stroke-width:0.5;" width="4" x="1086.5" y="447"/><rect fill="#F8CDCC" height="2" style="stroke:#181818;stroke-width:0.5;" width="4" x="1086.5" y="451"/><text fill="#000000" font-family="sans-serif" font-size="14" lengthAdjust="spacing" textLength="67" x="1016.5" y="472.9951">netgraph</text></g><!--entity ipv4--><g id="elem_ipv4"><rect fill="#F8CDCC" height="46.2969" rx="2.5" ry="2.5" style="stroke:#181818;stroke-width:0.5;" width="70" x="1144" y="440"/><rect fill="#F8CDCC" height="10" style="stroke:#181818;stroke-width:0.5;" width="15" x="1194" y="445"/><rect fill="#F8CDCC" height="2" style="stroke:#181818;stroke-width:0.5;" width="4" x="1192" y="447"/><rect fill="#F8CDCC" height="2" style="stroke:#181818;stroke-width:0.5;" width="4" x="1192" y="451"/><text fill="#000000" font-family="sans-serif" font-size="14" lengthAdjust="spacing" textLength="30" x="1159" y="472.9951">ipv4</text></g><!--entity ipv6--><g id="elem_ipv6"><rect fill="#F8CDCC" height="46.2969" rx="2.5" ry="2.5" style="stroke:#181818;stroke-width:0.5;" width="71" x="1249.5" y="440"/><rect fill="#F8CDCC" height="10" style="stroke:#181818;stroke-width:0.5;" width="15" x="1300.5" y="445"/><rect fill="#F8CDCC" height="2" style="stroke:#181818;stroke-width:0.5;" width="4" x="1298.5" y="447"/><rect fill="#F8CDCC" height="2" style="stroke:#181818;stroke-width:0.5;" width="4" x="1298.5" y="451"/><text fill="#000000" font-family="sans-serif" font-size="14" lengthAdjust="spacing" textLength="31" x="1264.5" y="472.9951">ipv6</text></g><!--entity wireless--><g id="elem_wireless"><rect fill="#F8CDCC" height="46.2969" rx="2.5" ry="2.5" style="stroke:#181818;stroke-width:0.5;" width="97" x="1355.5" y="440"/><rect fill="#F8CDCC" height="10" style="stroke:#181818;stroke-width:0.5;" width="15" x="1432.5" y="445"/><rect fill="#F8CDCC" height="2" style="stroke:#181818;stroke-width:0.5;" width="4" x="1430.5" y="447"/><rect fill="#F8CDCC" height="2" style="stroke:#181818;stroke-width:0.5;" width="4" x="1430.5" y="451"/><text fill="#000000" font-family="sans-serif" font-size="14" lengthAdjust="spacing" textLength="57" x="1370.5" y="472.9951">wireless</text></g><!--entity packet filter--><g id="elem_packet filter"><rect fill="#F8CDCC" height="46.2969" rx="2.5" ry="2.5" style="stroke:#181818;stroke-width:0.5;" width="131" x="820.5" y="546"/><rect fill="#F8CDCC" height="10" style="stroke:#181818;stroke-width:0.5;" width="15" x="931.5" y="551"/><rect fill="#F8CDCC" height="2" style="stroke:#181818;stroke-width:0.5;" width="4" x="929.5" y="553"/><rect fill="#F8CDCC" height="2" style="stroke:#181818;stroke-width:0.5;" width="4" x="929.5" y="557"/><text fill="#000000" font-family="sans-serif" font-size="14" lengthAdjust="spacing" textLength="91" x="835.5" y="578.9951">packet filter</text></g><!--entity IPsec--><g id="elem_IPsec"><rect fill="#F8CDCC" height="46.2969" rx="2.5" ry="2.5" style="stroke:#181818;stroke-width:0.5;" width="77" x="986.5" y="546"/><rect fill="#F8CDCC" height="10" style="stroke:#181818;stroke-width:0.5;" width="15" x="1043.5" y="551"/><rect fill="#F8CDCC" height="2" style="stroke:#181818;stroke-width:0.5;" width="4" x="1041.5" y="553"/><rect fill="#F8CDCC" height="2" style="stroke:#181818;stroke-width:0.5;" width="4" x="1041.5" y="557"/><text fill="#000000" font-family="sans-serif" font-size="14" lengthAdjust="spacing" textLength="37" x="1001.5" y="578.9951">IPsec</text></g><!--entity cryptography--><g id="elem_cryptography"><rect fill="#F8CDCC" height="46.2969" rx="2.5" ry="2.5" style="stroke:#181818;stroke-width:0.5;" width="138" x="1099" y="546"/><rect fill="#F8CDCC" height="10" style="stroke:#181818;stroke-width:0.5;" width="15" x="1217" y="551"/><rect fill="#F8CDCC" height="2" style="stroke:#181818;stroke-width:0.5;" width="4" x="1215" y="553"/><rect fill="#F8CDCC" height="2" style="stroke:#181818;stroke-width:0.5;" width="4" x="1215" y="557"/><text fill="#000000" font-family="sans-serif" font-size="14" lengthAdjust="spacing" textLength="98" x="1114" y="578.9951">cryptography</text></g><!--entity security--><g id="elem_security"><rect fill="#F8CDCC" height="46.2969" rx="2.5" ry="2.5" style="stroke:#181818;stroke-width:0.5;" width="97" x="1272.5" y="546"/><rect fill="#F8CDCC" height="10" style="stroke:#181818;stroke-width:0.5;" width="15" x="1349.5" y="551"/><rect fill="#F8CDCC" height="2" style="stroke:#181818;stroke-width:0.5;" width="4" x="1347.5" y="553"/><rect fill="#F8CDCC" height="2" style="stroke:#181818;stroke-width:0.5;" width="4" x="1347.5" y="557"/><text fill="#000000" font-family="sans-serif" font-size="14" lengthAdjust="spacing" textLength="57" x="1287.5" y="578.9951">security</text></g><!--entity geometry layer--><g id="elem_geometry layer"><rect fill="#F8CDCC" height="46.2969" rx="2.5" ry="2.5" style="stroke:#181818;stroke-width:0.5;" width="150" x="1405" y="546"/><rect fill="#F8CDCC" height="10" style="stroke:#181818;stroke-width:0.5;" width="15" x="1535" y="551"/><rect fill="#F8CDCC" height="2" style="stroke:#181818;stroke-width:0.5;" width="4" x="1533" y="553"/><rect fill="#F8CDCC" height="2" style="stroke:#181818;stroke-width:0.5;" width="4" x="1533" y="557"/><text fill="#000000" font-family="sans-serif" font-size="14" lengthAdjust="spacing" textLength="110" x="1420" y="578.9951">geometry layer</text></g><!--entity common access method layer--><g id="elem_common access method layer"><rect fill="#F8CDCC" height="46.2969" rx="2.5" ry="2.5" style="stroke:#181818;stroke-width:0.5;" width="254" x="769" y="652"/><rect fill="#F8CDCC" height="10" style="stroke:#181818;stroke-width:0.5;" width="15" x="1003" y="657"/><rect fill="#F8CDCC" height="2" style="stroke:#181818;stroke-width:0.5;" width="4" x="1001" y="659"/><rect fill="#F8CDCC" height="2" style="stroke:#181818;stroke-width:0.5;" width="4" x="1001" y="663"/><text fill="#000000" font-family="sans-serif" font-size="14" lengthAdjust="spacing" textLength="214" x="784" y="684.9951">common access method layer</text></g><!--entity peripheral component interconnect--><g id="elem_peripheral component interconnect"><rect fill="#F8CDCC" height="46.2969" rx="2.5" ry="2.5" style="stroke:#181818;stroke-width:0.5;" width="301" x="1058.5" y="652"/><rect fill="#F8CDCC" height="10" style="stroke:#181818;stroke-width:0.5;" width="15" x="1339.5" y="657"/><rect fill="#F8CDCC" height="2" style="stroke:#181818;stroke-width:0.5;" width="4" x="1337.5" y="659"/><rect fill="#F8CDCC" height="2" style="stroke:#181818;stroke-width:0.5;" width="4" x="1337.5" y="663"/><text fill="#000000" font-family="sans-serif" font-size="14" lengthAdjust="spacing" textLength="261" x="1073.5" y="684.9951">peripheral component interconnect</text></g><!--entity pr--><g id="elem_pr"><rect fill="#FFFFFF" height="36.2969" rx="2.5" ry="2.5" style="stroke:none;stroke-width:0.5;" width="35" x="589.5" y="281"/><text fill="#000000" font-family="sans-serif" font-size="14" lengthAdjust="spacing" textLength="15" x="599.5" y="303.9951">...</text></g><!--entity p1--><g id="elem_p1"><ellipse cx="318" cy="181" fill="#F8CDCC" rx="8" ry="8" style="stroke:#181818;stroke-width:0.5;"/><text fill="#000000" font-family="sans-serif" font-size="14" lengthAdjust="spacing" textLength="49" x="293.5" y="210.9951">parent</text></g><!--entity p2--><g id="elem_p2"><ellipse cx="132" cy="299" fill="#F8CDCC" rx="8" ry="8" style="stroke:#181818;stroke-width:0.5;"/><text fill="#000000" font-family="sans-serif" font-size="14" lengthAdjust="spacing" textLength="43" x="110.5" y="328.9951">child1</text></g><!--entity p3--><g id="elem_p3"><ellipse cx="225" cy="299" fill="#F8CDCC" rx="8" ry="8" style="stroke:#181818;stroke-width:0.5;"/><text fill="#000000" font-family="sans-serif" font-size="14" lengthAdjust="spacing" textLength="42" x="204" y="328.9951">child2</text></g><!--entity p4--><g id="elem_p4"><ellipse cx="318" cy="299" fill="#F8CDCC" rx="8" ry="8" style="stroke:#181818;stroke-width:0.5;"/><text fill="#000000" font-family="sans-serif" font-size="14" lengthAdjust="spacing" textLength="43" x="296.5" y="328.9951">child3</text></g><!--entity p5--><g id="elem_p5"><ellipse cx="411" cy="299" fill="#F8CDCC" rx="8" ry="8" style="stroke:#181818;stroke-width:0.5;"/><text fill="#000000" font-family="sans-serif" font-size="14" lengthAdjust="spacing" textLength="42" x="390" y="328.9951">child4</text></g><!--entity p6--><g id="elem_p6"><ellipse cx="504" cy="299" fill="#F8CDCC" rx="8" ry="8" style="stroke:#181818;stroke-width:0.5;"/><text fill="#000000" font-family="sans-serif" font-size="14" lengthAdjust="spacing" textLength="43" x="482.5" y="328.9951">child5</text></g><!--entity cpu--><g id="elem_cpu"><rect fill="#F8CDCC" height="46.2969" rx="2.5" ry="2.5" style="stroke:#181818;stroke-width:0.5;" width="66" x="1923" y="158"/><rect fill="#F8CDCC" height="10" style="stroke:#181818;stroke-width:0.5;" width="15" x="1969" y="163"/><rect fill="#F8CDCC" height="2" style="stroke:#181818;stroke-width:0.5;" width="4" x="1967" y="165"/><rect fill="#F8CDCC" height="2" style="stroke:#181818;stroke-width:0.5;" width="4" x="1967" y="169"/><text fill="#000000" font-family="sans-serif" font-size="14" lengthAdjust="spacing" textLength="26" x="1938" y="190.9951">cpu</text></g><!--entity moniter--><g id="elem_moniter"><rect fill="#F8CDCC" height="46.2969" rx="2.5" ry="2.5" style="stroke:#181818;stroke-width:0.5;" width="98" x="2024" y="158"/><rect fill="#F8CDCC" height="10" style="stroke:#181818;stroke-width:0.5;" width="15" x="2102" y="163"/><rect fill="#F8CDCC" height="2" style="stroke:#181818;stroke-width:0.5;" width="4" x="2100" y="165"/><rect fill="#F8CDCC" height="2" style="stroke:#181818;stroke-width:0.5;" width="4" x="2100" y="169"/><text fill="#000000" font-family="sans-serif" font-size="14" lengthAdjust="spacing" textLength="58" x="2039" y="190.9951">moniter</text></g><!--entity mouse--><g id="elem_mouse"><rect fill="#F8CDCC" height="46.2969" rx="2.5" ry="2.5" style="stroke:#181818;stroke-width:0.5;" width="87" x="1829.5" y="276"/><rect fill="#F8CDCC" height="10" style="stroke:#181818;stroke-width:0.5;" width="15" x="1896.5" y="281"/><rect fill="#F8CDCC" height="2" style="stroke:#181818;stroke-width:0.5;" width="4" x="1894.5" y="283"/><rect fill="#F8CDCC" height="2" style="stroke:#181818;stroke-width:0.5;" width="4" x="1894.5" y="287"/><text fill="#000000" font-family="sans-serif" font-size="14" lengthAdjust="spacing" textLength="47" x="1844.5" y="308.9951">mouse</text></g><!--entity disks--><g id="elem_disks"><rect fill="#F8CDCC" height="46.2969" rx="2.5" ry="2.5" style="stroke:#181818;stroke-width:0.5;" width="76" x="2157" y="158"/><rect fill="#F8CDCC" height="10" style="stroke:#181818;stroke-width:0.5;" width="15" x="2213" y="163"/><rect fill="#F8CDCC" height="2" style="stroke:#181818;stroke-width:0.5;" width="4" x="2211" y="165"/><rect fill="#F8CDCC" height="2" style="stroke:#181818;stroke-width:0.5;" width="4" x="2211" y="169"/><text fill="#000000" font-family="sans-serif" font-size="14" lengthAdjust="spacing" textLength="36" x="2172" y="190.9951">disks</text></g><!--entity keyboard--><g id="elem_keyboard"><rect fill="#F8CDCC" height="46.2969" rx="2.5" ry="2.5" style="stroke:#181818;stroke-width:0.5;" width="108" x="1952" y="276"/><rect fill="#F8CDCC" height="10" style="stroke:#181818;stroke-width:0.5;" width="15" x="2040" y="281"/><rect fill="#F8CDCC" height="2" style="stroke:#181818;stroke-width:0.5;" width="4" x="2038" y="283"/><rect fill="#F8CDCC" height="2" style="stroke:#181818;stroke-width:0.5;" width="4" x="2038" y="287"/><text fill="#000000" font-family="sans-serif" font-size="14" lengthAdjust="spacing" textLength="68" x="1967" y="308.9951">keyboard</text></g><!--entity network links--><g id="elem_network links"><rect fill="#F8CDCC" height="46.2969" rx="2.5" ry="2.5" style="stroke:#181818;stroke-width:0.5;" width="137" x="2095.5" y="276"/><rect fill="#F8CDCC" height="10" style="stroke:#181818;stroke-width:0.5;" width="15" x="2212.5" y="281"/><rect fill="#F8CDCC" height="2" style="stroke:#181818;stroke-width:0.5;" width="4" x="2210.5" y="283"/><rect fill="#F8CDCC" height="2" style="stroke:#181818;stroke-width:0.5;" width="4" x="2210.5" y="287"/><text fill="#000000" font-family="sans-serif" font-size="14" lengthAdjust="spacing" textLength="97" x="2110.5" y="308.9951">network links</text></g><!--entity hr--><g id="elem_hr"><rect fill="#FFFFFF" height="36.2969" rx="2.5" ry="2.5" style="stroke:none;stroke-width:0.5;" width="35" x="1852.5" y="163"/><text fill="#000000" font-family="sans-serif" font-size="14" lengthAdjust="spacing" textLength="15" x="1862.5" y="185.9951">...</text></g><!--link p1 to p2--><g id="link_p1_p2"><path d="M317.865,192 C312.233,192 132,192 132,192 C132,192 132,284.877 132,284.877 " fill="none" id="p1-to-p2" style="stroke:#B70000;stroke-width:1.0;"/><polygon fill="#B70000" points="132,289.877,136,280.877,132,284.877,128,280.877,132,289.877" style="stroke:#B70000;stroke-width:1.0;"/></g><!--link p1 to p3--><g id="link_p1_p3"><path d="M317.933,201 C315.116,201 225,201 225,201 C225,201 225,284.956 225,284.956 " fill="none" id="p1-to-p3" style="stroke:#B70000;stroke-width:1.0;"/><polygon fill="#B70000" points="225,289.956,229,280.956,225,284.956,221,280.956,225,289.956" style="stroke:#B70000;stroke-width:1.0;"/></g><!--link p1 to p4--><g id="link_p1_p4"><path d="M318,190.259 C318,190.259 318,284.784 318,284.784 " fill="none" id="p1-to-p4" style="stroke:#B70000;stroke-width:1.0;"/><polygon fill="#B70000" points="318,289.784,322,280.784,318,284.784,314,280.784,318,289.784" style="stroke:#B70000;stroke-width:1.0;"/></g><!--link p1 to p5--><g id="link_p1_p5"><path d="M318.067,197 C320.884,197 411,197 411,197 C411,197 411,284.948 411,284.948 " fill="none" id="p1-to-p5" style="stroke:#B70000;stroke-width:1.0;"/><polygon fill="#B70000" points="411,289.948,415,280.948,411,284.948,407,280.948,411,289.948" style="stroke:#B70000;stroke-width:1.0;"/></g><!--link p1 to p6--><g id="link_p1_p6"><path d="M327.224,190 C364.755,190 504,190 504,190 C504,190 504,284.707 504,284.707 " fill="none" id="p1-to-p6" style="stroke:#B70000;stroke-width:1.0;"/><polygon fill="#B70000" points="504,289.707,508,280.707,504,284.707,500,280.707,504,289.707" style="stroke:#B70000;stroke-width:1.0;"/></g><!--reverse link pf to pr--><!--reverse link hr to mouse--><!--reverse link us to ks--><g id="link_us_ks"><path d="M674.6774,140 C680.4946,140 685.8379,140 690.6641,140 C695.4902,140 699.7993,140 703.5482,140 C705.4227,140 707.1571,140 708.746,140 C709.5405,140 710.2987,140 711.0198,140 C711.3803,140 711.7316,140 712.0736,140 C712.2445,140 712.4132,140 712.5795,140 C712.6626,140 712.7452,140 712.8271,140 C712.8681,140 712.909,140 712.9497,140 " fill="none" id="us-backto-ks" style="stroke:#B70000;stroke-width:1.0;"/><polygon fill="#B70000" points="674.6774,140,683.6774,144,679.6774,140,683.6774,136,674.6774,140" style="stroke:#B70000;stroke-width:1.0;"/></g><!--reverse link ks to us--><g id="link_ks_us"><path d="M712.0736,250 C711.7316,250 711.3803,250 711.0198,250 C710.2987,250 709.5405,250 708.746,250 C707.1571,250 705.4227,250 703.5482,250 C699.7993,250 695.4902,250 690.6641,250 C685.8379,250 680.4946,250 674.6774,250 C674.3138,250 673.9484,250 673.5811,250 C673.3975,250 673.2134,250 673.0288,250 " fill="none" id="ks-backto-us" style="stroke:#B70000;stroke-width:1.0;"/><polygon fill="#B70000" points="712.0736,250,703.0736,246,707.0736,250,703.0736,254,712.0736,250" style="stroke:#B70000;stroke-width:1.0;"/></g><!--link hw to ks--><g id="link_hw_ks"><path d="M1796.5335,230 C1796.1069,230 1795.6648,230 1795.2073,230 C1794.2923,230 1793.3158,230 1792.2787,230 C1788.1304,230 1783.0143,230 1776.9993,230 C1773.9918,230 1770.7596,230 1767.3114,230 C1765.5873,230 1763.8091,230 1761.9781,230 C1761.0625,230 1760.1338,230 1759.1919,230 C1758.721,230 1758.2468,230 1757.7693,230 C1757.5306,230 1757.291,230 1757.0507,230 " fill="none" id="hw-to-ks" style="stroke:#B70000;stroke-width:1.0;"/><polygon fill="#B70000" points="1757.0507,230,1766.0507,234,1762.0507,230,1766.0507,226,1757.0507,230" style="stroke:#B70000;stroke-width:1.0;"/></g><!--link ks to hw--><g id="link_ks_hw"><path d="M1759.4746,128 C1773.96,128 1785.3413,128 1793.1013,128 C1794.0713,128 1794.9847,128 1795.8406,128 C1796.0545,128 1796.2649,128 1796.4716,128 C1796.575,128 1796.6775,128 1796.779,128 C1796.8298,128 1796.8803,128 1796.9307,128 " fill="none" id="ks-to-hw" style="stroke:#B70000;stroke-width:1.0;"/><polygon fill="#B70000" points="1796.9307,128,1787.9307,124,1791.9307,128,1787.9307,132,1796.9307,128" style="stroke:#B70000;stroke-width:1.0;"/></g><!--SRC=[VLGzRzim4DtrAmxsh3IEFzh1o50N1RfrDp8mr5aaH972aOgW5ldlFL5EBD5svSLtx_4-7-ahRHj1eeQ_6O0WSfrqnX4iltzzv8-THbiCVOFWA2YNlMVPteVUu7D6A8EmfS5u6E1LoAearzfYZD4f7J0YNed2TTgMy1Zj8UR82IIivmhG1Wwz_t8EdMNIrOspx8P5XMJH0DCaBa1ug3miSJNyOkQJCmKIB7pl0zOWXJ4-yho4vIb-vmgF2WLJ_GiiVtux_3WSHg-sEcXXz1yHjBC9UCv-4b8Rfc5wk4IBf2Le6v2OXTVH6MZ8CUA1swfRg-MjJ4ohjHK6bB05ZwXCy3TDeMMunjfHduBM5GYriAB4ciUMm2VX0voqmN582Lfh7jLTbFVVEQh-IoX9D2fjl7dRNBjsYQlJX1mtdHelky9OCeybmNxzzYWJdwI-2IwMaOw6oItfq5yjpjKOg0SZ-giKmvwS1I7ZrfYdN76JsF3o6uN4Uxb8DgvSEiigdotYVRW-4sMtddLxqNMRw9hl9RAikG8MIsGqVgReC-D3NCFbQqOUuy04gKcQWH5ls0Yj9WLzu59fKwn6_EaU_ZJYwtluUiGtz_3DY6_luTiHtttYJE1gyo9_vggcndfgRAR6TchiuiW1BW_Luk7XOSn2CJf1tXwLBWgqByE9quqbAK55n_EBvrGN1t-KJJjTx975eXEXie_tE_CKsbSpeVFhqhywJZ1pVbmuVWFcz1kDA9gacZN323UIPVnQveRjrWz_zpdbdtzDpWr50Wq7kdy0]--></g></svg>