<?xml version="1.0" encoding="UTF-8" standalone="no"?><svg xmlns="http://www.w3.org/2000/svg" xmlns:xlink="http://www.w3.org/1999/xlink" contentStyleType="text/css" height="1186px" preserveAspectRatio="none" style="width:360px;height:1186px;background:#FFFFFF;" version="1.1" viewBox="0 0 360 1186" width="360px" zoomAndPan="magnify"><defs/><g><text fill="#888888" font-family="sans-serif" font-size="10" lengthAdjust="spacing" textLength="215" x="132" y="19.2822">EECS 4314 FreeBSD Analysis - BitTheory</text><text fill="#888888" font-family="sans-serif" font-size="10" lengthAdjust="spacing" textLength="3" x="344" y="30.9229"> </text><text fill="#888888" font-family="sans-serif" font-size="10" lengthAdjust="spacing" textLength="3" x="344" y="42.5635"> </text><line style="stroke:#B70000;stroke-width:1.5;" x1="74" x2="74" y1="99.8906" y2="119.8906"/><rect fill="#E1E1E1" height="33.9688" style="stroke:#181818;stroke-width:1.5;" width="128" x="10" y="119.8906"/><text fill="#000000" font-family="sans-serif" font-size="12" lengthAdjust="spacing" textLength="108" x="20" y="141.0293">process structure</text><line style="stroke:#B70000;stroke-width:1.5;" x1="74" x2="84" y1="185.8438" y2="185.8438"/><rect fill="#E1E1E1" height="33.9688" style="stroke:#181818;stroke-width:1.5;" width="54" x="84" y="168.8594"/><text fill="#000000" font-family="sans-serif" font-size="12" lengthAdjust="spacing" textLength="34" x="94" y="189.998">&#127380; PID</text><line style="stroke:#B70000;stroke-width:1.5;" x1="74" x2="84" y1="234.8125" y2="234.8125"/><rect fill="#E1E1E1" height="33.9688" style="stroke:#181818;stroke-width:1.5;" width="95" x="84" y="217.8281"/><text fill="#000000" font-family="sans-serif" font-size="12" lengthAdjust="spacing" textLength="75" x="94" y="238.9668">&#127380; Parent PID</text><line style="stroke:#B70000;stroke-width:1.5;" x1="74" x2="84" y1="283.7813" y2="283.7813"/><rect fill="#E1E1E1" height="33.9688" style="stroke:#181818;stroke-width:1.5;" width="89" x="84" y="266.7969"/><text fill="#000000" font-family="sans-serif" font-size="12" lengthAdjust="spacing" textLength="69" x="94" y="287.9355">signal state</text><line style="stroke:#B70000;stroke-width:1.5;" x1="74" x2="84" y1="332.75" y2="332.75"/><rect fill="#E1E1E1" height="33.9688" style="stroke:#181818;stroke-width:1.5;" width="61" x="84" y="315.7656"/><text fill="#000000" font-family="sans-serif" font-size="12" lengthAdjust="spacing" textLength="41" x="94" y="336.9043">tracing</text><line style="stroke:#B70000;stroke-width:1.5;" x1="74" x2="84" y1="381.7188" y2="381.7188"/><rect fill="#E1E1E1" height="33.9688" style="stroke:#181818;stroke-width:1.5;" width="58" x="84" y="364.7344"/><text fill="#000000" font-family="sans-serif" font-size="12" lengthAdjust="spacing" textLength="38" x="94" y="385.873">timers</text><line style="stroke:#B70000;stroke-width:1.5;" x1="74" x2="84" y1="430.6875" y2="430.6875"/><rect fill="#E1E1E1" height="33.9688" style="stroke:#181818;stroke-width:1.5;" width="110" x="84" y="413.7031"/><text fill="#000000" font-family="sans-serif" font-size="12" lengthAdjust="spacing" textLength="90" x="94" y="434.8418">process group</text><line style="stroke:#B70000;stroke-width:1.5;" x1="139" x2="149" y1="479.6563" y2="479.6563"/><rect fill="#E1E1E1" height="33.9688" style="stroke:#181818;stroke-width:1.5;" width="57" x="149" y="462.6719"/><text fill="#000000" font-family="sans-serif" font-size="12" lengthAdjust="spacing" textLength="37" x="159" y="483.8105">&#127380; GID</text><line style="stroke:#B70000;stroke-width:1.5;" x1="139" x2="149" y1="528.625" y2="528.625"/><rect fill="#E1E1E1" height="33.9688" style="stroke:#181818;stroke-width:1.5;" width="67" x="149" y="511.6406"/><text fill="#000000" font-family="sans-serif" font-size="12" lengthAdjust="spacing" textLength="47" x="159" y="532.7793">session</text><line style="stroke:#B70000;stroke-width:1.5;" x1="139" x2="139" y1="447.6719" y2="528.625"/><line style="stroke:#B70000;stroke-width:1.5;" x1="74" x2="84" y1="577.5938" y2="577.5938"/><rect fill="#E1E1E1" height="33.9688" style="stroke:#181818;stroke-width:1.5;" width="80" x="84" y="560.6094"/><text fill="#000000" font-family="sans-serif" font-size="12" lengthAdjust="spacing" textLength="60" x="94" y="581.748">credential</text><line style="stroke:#B70000;stroke-width:1.5;" x1="74" x2="84" y1="626.5625" y2="626.5625"/><rect fill="#E1E1E1" height="33.9688" style="stroke:#181818;stroke-width:1.5;" width="80" x="84" y="609.5781"/><text fill="#000000" font-family="sans-serif" font-size="12" lengthAdjust="spacing" textLength="60" x="94" y="630.7168">VM Space</text><line style="stroke:#B70000;stroke-width:1.5;" x1="124" x2="134" y1="675.5313" y2="675.5313"/><rect fill="#E1E1E1" height="33.9688" style="stroke:#181818;stroke-width:1.5;" width="80" x="134" y="658.5469"/><text fill="#000000" font-family="sans-serif" font-size="12" lengthAdjust="spacing" textLength="60" x="144" y="679.6855">region list</text><line style="stroke:#B70000;stroke-width:1.5;" x1="124" x2="124" y1="643.5469" y2="675.5313"/><line style="stroke:#B70000;stroke-width:1.5;" x1="74" x2="84" y1="724.5" y2="724.5"/><rect fill="#E1E1E1" height="33.9688" style="stroke:#181818;stroke-width:1.5;" width="112" x="84" y="707.5156"/><text fill="#000000" font-family="sans-serif" font-size="12" lengthAdjust="spacing" textLength="92" x="94" y="728.6543">file descripters</text><line style="stroke:#B70000;stroke-width:1.5;" x1="140" x2="150" y1="773.4688" y2="773.4688"/><rect fill="#E1E1E1" height="33.9688" style="stroke:#181818;stroke-width:1.5;" width="84" x="150" y="756.4844"/><text fill="#000000" font-family="sans-serif" font-size="12" lengthAdjust="spacing" textLength="64" x="160" y="777.623">file entries</text><line style="stroke:#B70000;stroke-width:1.5;" x1="140" x2="140" y1="741.4844" y2="773.4688"/><line style="stroke:#B70000;stroke-width:1.5;" x1="74" x2="84" y1="822.4375" y2="822.4375"/><rect fill="#E1E1E1" height="33.9688" style="stroke:#181818;stroke-width:1.5;" width="110" x="84" y="805.4531"/><text fill="#000000" font-family="sans-serif" font-size="12" lengthAdjust="spacing" textLength="90" x="94" y="826.5918">resource limits</text><line style="stroke:#B70000;stroke-width:1.5;" x1="74" x2="84" y1="871.4063" y2="871.4063"/><rect fill="#E1E1E1" height="33.9688" style="stroke:#181818;stroke-width:1.5;" width="142" x="84" y="854.4219"/><text fill="#000000" font-family="sans-serif" font-size="12" lengthAdjust="spacing" textLength="118" x="94" y="875.5605">system call vectors</text><line style="stroke:#B70000;stroke-width:1.5;" x1="74" x2="84" y1="920.375" y2="920.375"/><rect fill="#E1E1E1" height="33.9688" style="stroke:#181818;stroke-width:1.5;" width="105" x="84" y="903.3906"/><text fill="#000000" font-family="sans-serif" font-size="12" lengthAdjust="spacing" textLength="85" x="94" y="924.5293">user structure</text><line style="stroke:#B70000;stroke-width:1.5;" x1="136.5" x2="146.5" y1="969.3438" y2="969.3438"/><rect fill="#E1E1E1" height="33.9688" style="stroke:#181818;stroke-width:1.5;" width="102" x="146.5" y="952.3594"/><text fill="#000000" font-family="sans-serif" font-size="12" lengthAdjust="spacing" textLength="82" x="156.5" y="973.498">signal actions</text><line style="stroke:#B70000;stroke-width:1.5;" x1="136.5" x2="146.5" y1="1018.3125" y2="1018.3125"/><rect fill="#E1E1E1" height="33.9688" style="stroke:#181818;stroke-width:1.5;" width="73" x="146.5" y="1001.3281"/><text fill="#000000" font-family="sans-serif" font-size="12" lengthAdjust="spacing" textLength="53" x="156.5" y="1022.4668">statistics</text><line style="stroke:#B70000;stroke-width:1.5;" x1="136.5" x2="136.5" y1="937.3594" y2="1018.3125"/><line style="stroke:#B70000;stroke-width:1.5;" x1="74" x2="84" y1="1067.2813" y2="1067.2813"/><rect fill="#E1E1E1" height="33.9688" style="stroke:#181818;stroke-width:1.5;" width="80" x="84" y="1050.2969"/><text fill="#000000" font-family="sans-serif" font-size="12" lengthAdjust="spacing" textLength="60" x="94" y="1071.4355">thread list</text><line style="stroke:#B70000;stroke-width:1.5;" x1="124" x2="134" y1="1137.2031" y2="1137.2031"/><rect fill="#E1E1E1" height="75.875" style="stroke:#181818;stroke-width:1.5;" width="214" x="134" y="1099.2656"/><text fill="#000000" font-family="sans-serif" font-size="12" lengthAdjust="spacing" textLength="100" x="144" y="1120.4043">[scheduling info,</text><text fill="#000000" font-family="sans-serif" font-size="12" lengthAdjust="spacing" textLength="126" x="144" y="1134.373">thread control block,</text><text fill="#000000" font-family="sans-serif" font-size="12" lengthAdjust="spacing" textLength="121" x="144" y="1148.3418">thread kernel stack,</text><text fill="#000000" font-family="sans-serif" font-size="12" lengthAdjust="spacing" textLength="194" x="144" y="1162.3105">machine dependent thread info]</text><line style="stroke:#B70000;stroke-width:1.5;" x1="124" x2="124" y1="1084.2656" y2="1137.2031"/><line style="stroke:#B70000;stroke-width:1.5;" x1="74" x2="74" y1="153.8594" y2="1067.2813"/><line style="stroke:#B70000;stroke-width:1.5;" x1="74" x2="179" y1="99.8906" y2="99.8906"/><rect fill="#E1E1E1" height="33.9688" style="stroke:#181818;stroke-width:1.5;" width="70" x="144" y="45.9219"/><text fill="#000000" font-family="sans-serif" font-size="12" lengthAdjust="spacing" textLength="50" x="154" y="67.0605">process</text><line style="stroke:#B70000;stroke-width:1.5;" x1="179" x2="179" y1="79.8906" y2="99.8906"/><!--SRC=[LLB1RXen4BtxAqRg1L190q5j5KLLIY1f8v1G5t8fFHZli5XuxTNO2rfLkVOBUiylvXCwtbreomff_FncviqRt_eWAHmtNknGfaWmdTubCBeQZE2U4CV913vRQIglFVHXhCDoXuwgjLrR8Mvyg0n-4fm-qJ8ZcSDF0I29tB6E08osg9nn16_67oxvn-Wp_wrBiQLifDfdv4gRjaGSnAycFekRTssJ7XJa57elUkSGVA1IXPAGmHwyllpw3OklatyEaj26C-PrniDmbWnDHY2fjCsQMET8lWvFvQEi8Y9jkOUc3XVYM-riJLQ4AJVHqjJ7fpaaXLJO40apvh4DFjItMsqGKlIAT17QTYtADKXZ8u3Gkv8KScAkGuFvoWVCGKbZu80gEF9GNvIUz_QV4-T9fGhSlkqInsOTMZNrmevuvMTfFVZkrGxJabUMWRPRztPjMuvohCqPs1Ydzd_XFPB5siuQpQNQyRfvl09jjEJK8XRx8MuPZ0zDB8oqOJMVyHGKNOJ1nV1oU7Knt62GmyxAxgqxMcwQ5z6Nk9Ukw3miPj2Qah9aqfiopjOLZ_8WuLjf8-yQugcpd7SXcPv0cDg39cTpbYGUd-OD2Rwua1GkrEJtepw_RKYGM1ElK4nmAqiJE5Mvb0svXjNollzHpAJDIfbn8xJYZXzje8hlaZy0]--></g></svg>