<?xml version="1.0" encoding="UTF-8" standalone="no"?><svg xmlns="http://www.w3.org/2000/svg" xmlns:xlink="http://www.w3.org/1999/xlink" contentStyleType="text/css" height="1150px" preserveAspectRatio="none" style="width:359px;height:1150px;background:#FFFFFF;" version="1.1" viewBox="0 0 359 1150" width="359px" zoomAndPan="magnify"><defs/><g><line style="stroke:#B70000;stroke-width:1.5;" x1="74" x2="74" y1="63.9688" y2="83.9688"/><rect fill="#E1E1E1" height="33.9688" style="stroke:#181818;stroke-width:1.5;" width="128" x="10" y="83.9688"/><text fill="#000000" font-family="sans-serif" font-size="12" lengthAdjust="spacing" textLength="108" x="20" y="105.1074">process structure</text><line style="stroke:#B70000;stroke-width:1.5;" x1="74" x2="84" y1="149.9219" y2="149.9219"/><rect fill="#E1E1E1" height="33.9688" style="stroke:#181818;stroke-width:1.5;" width="54" x="84" y="132.9375"/><text fill="#000000" font-family="sans-serif" font-size="12" lengthAdjust="spacing" textLength="34" x="94" y="154.0762">&#127380; PID</text><line style="stroke:#B70000;stroke-width:1.5;" x1="74" x2="84" y1="198.8906" y2="198.8906"/><rect fill="#E1E1E1" height="33.9688" style="stroke:#181818;stroke-width:1.5;" width="95" x="84" y="181.9063"/><text fill="#000000" font-family="sans-serif" font-size="12" lengthAdjust="spacing" textLength="75" x="94" y="203.0449">&#127380; Parent PID</text><line style="stroke:#B70000;stroke-width:1.5;" x1="74" x2="84" y1="247.8594" y2="247.8594"/><rect fill="#E1E1E1" height="33.9688" style="stroke:#181818;stroke-width:1.5;" width="89" x="84" y="230.875"/><text fill="#000000" font-family="sans-serif" font-size="12" lengthAdjust="spacing" textLength="69" x="94" y="252.0137">signal state</text><line style="stroke:#B70000;stroke-width:1.5;" x1="74" x2="84" y1="296.8281" y2="296.8281"/><rect fill="#E1E1E1" height="33.9688" style="stroke:#181818;stroke-width:1.5;" width="61" x="84" y="279.8438"/><text fill="#000000" font-family="sans-serif" font-size="12" lengthAdjust="spacing" textLength="41" x="94" y="300.9824">tracing</text><line style="stroke:#B70000;stroke-width:1.5;" x1="74" x2="84" y1="345.7969" y2="345.7969"/><rect fill="#E1E1E1" height="33.9688" style="stroke:#181818;stroke-width:1.5;" width="58" x="84" y="328.8125"/><text fill="#000000" font-family="sans-serif" font-size="12" lengthAdjust="spacing" textLength="38" x="94" y="349.9512">timers</text><line style="stroke:#B70000;stroke-width:1.5;" x1="74" x2="84" y1="394.7656" y2="394.7656"/><rect fill="#E1E1E1" height="33.9688" style="stroke:#181818;stroke-width:1.5;" width="110" x="84" y="377.7813"/><text fill="#000000" font-family="sans-serif" font-size="12" lengthAdjust="spacing" textLength="90" x="94" y="398.9199">process group</text><line style="stroke:#B70000;stroke-width:1.5;" x1="139" x2="149" y1="443.7344" y2="443.7344"/><rect fill="#E1E1E1" height="33.9688" style="stroke:#181818;stroke-width:1.5;" width="57" x="149" y="426.75"/><text fill="#000000" font-family="sans-serif" font-size="12" lengthAdjust="spacing" textLength="37" x="159" y="447.8887">&#127380; GID</text><line style="stroke:#B70000;stroke-width:1.5;" x1="139" x2="149" y1="492.7031" y2="492.7031"/><rect fill="#E1E1E1" height="33.9688" style="stroke:#181818;stroke-width:1.5;" width="67" x="149" y="475.7188"/><text fill="#000000" font-family="sans-serif" font-size="12" lengthAdjust="spacing" textLength="47" x="159" y="496.8574">session</text><line style="stroke:#B70000;stroke-width:1.5;" x1="139" x2="139" y1="411.75" y2="492.7031"/><line style="stroke:#B70000;stroke-width:1.5;" x1="74" x2="84" y1="541.6719" y2="541.6719"/><rect fill="#E1E1E1" height="33.9688" style="stroke:#181818;stroke-width:1.5;" width="80" x="84" y="524.6875"/><text fill="#000000" font-family="sans-serif" font-size="12" lengthAdjust="spacing" textLength="60" x="94" y="545.8262">credential</text><line style="stroke:#B70000;stroke-width:1.5;" x1="74" x2="84" y1="590.6406" y2="590.6406"/><rect fill="#E1E1E1" height="33.9688" style="stroke:#181818;stroke-width:1.5;" width="80" x="84" y="573.6563"/><text fill="#000000" font-family="sans-serif" font-size="12" lengthAdjust="spacing" textLength="60" x="94" y="594.7949">VM Space</text><line style="stroke:#B70000;stroke-width:1.5;" x1="124" x2="134" y1="639.6094" y2="639.6094"/><rect fill="#E1E1E1" height="33.9688" style="stroke:#181818;stroke-width:1.5;" width="80" x="134" y="622.625"/><text fill="#000000" font-family="sans-serif" font-size="12" lengthAdjust="spacing" textLength="60" x="144" y="643.7637">region list</text><line style="stroke:#B70000;stroke-width:1.5;" x1="124" x2="124" y1="607.625" y2="639.6094"/><line style="stroke:#B70000;stroke-width:1.5;" x1="74" x2="84" y1="688.5781" y2="688.5781"/><rect fill="#E1E1E1" height="33.9688" style="stroke:#181818;stroke-width:1.5;" width="112" x="84" y="671.5938"/><text fill="#000000" font-family="sans-serif" font-size="12" lengthAdjust="spacing" textLength="92" x="94" y="692.7324">file descripters</text><line style="stroke:#B70000;stroke-width:1.5;" x1="140" x2="150" y1="737.5469" y2="737.5469"/><rect fill="#E1E1E1" height="33.9688" style="stroke:#181818;stroke-width:1.5;" width="84" x="150" y="720.5625"/><text fill="#000000" font-family="sans-serif" font-size="12" lengthAdjust="spacing" textLength="64" x="160" y="741.7012">file entries</text><line style="stroke:#B70000;stroke-width:1.5;" x1="140" x2="140" y1="705.5625" y2="737.5469"/><line style="stroke:#B70000;stroke-width:1.5;" x1="74" x2="84" y1="786.5156" y2="786.5156"/><rect fill="#E1E1E1" height="33.9688" style="stroke:#181818;stroke-width:1.5;" width="110" x="84" y="769.5313"/><text fill="#000000" font-family="sans-serif" font-size="12" lengthAdjust="spacing" textLength="90" x="94" y="790.6699">resource limits</text><line style="stroke:#B70000;stroke-width:1.5;" x1="74" x2="84" y1="835.4844" y2="835.4844"/><rect fill="#E1E1E1" height="33.9688" style="stroke:#181818;stroke-width:1.5;" width="142" x="84" y="818.5"/><text fill="#000000" font-family="sans-serif" font-size="12" lengthAdjust="spacing" textLength="118" x="94" y="839.6387">system call vectors</text><line style="stroke:#B70000;stroke-width:1.5;" x1="74" x2="84" y1="884.4531" y2="884.4531"/><rect fill="#E1E1E1" height="33.9688" style="stroke:#181818;stroke-width:1.5;" width="105" x="84" y="867.4688"/><text fill="#000000" font-family="sans-serif" font-size="12" lengthAdjust="spacing" textLength="85" x="94" y="888.6074">user structure</text><line style="stroke:#B70000;stroke-width:1.5;" x1="136.5" x2="146.5" y1="933.4219" y2="933.4219"/><rect fill="#E1E1E1" height="33.9688" style="stroke:#181818;stroke-width:1.5;" width="102" x="146.5" y="916.4375"/><text fill="#000000" font-family="sans-serif" font-size="12" lengthAdjust="spacing" textLength="82" x="156.5" y="937.5762">signal actions</text><line style="stroke:#B70000;stroke-width:1.5;" x1="136.5" x2="146.5" y1="982.3906" y2="982.3906"/><rect fill="#E1E1E1" height="33.9688" style="stroke:#181818;stroke-width:1.5;" width="73" x="146.5" y="965.4063"/><text fill="#000000" font-family="sans-serif" font-size="12" lengthAdjust="spacing" textLength="53" x="156.5" y="986.5449">statistics</text><line style="stroke:#B70000;stroke-width:1.5;" x1="136.5" x2="136.5" y1="901.4375" y2="982.3906"/><line style="stroke:#B70000;stroke-width:1.5;" x1="74" x2="84" y1="1031.3594" y2="1031.3594"/><rect fill="#E1E1E1" height="33.9688" style="stroke:#181818;stroke-width:1.5;" width="80" x="84" y="1014.375"/><text fill="#000000" font-family="sans-serif" font-size="12" lengthAdjust="spacing" textLength="60" x="94" y="1035.5137">thread list</text><line style="stroke:#B70000;stroke-width:1.5;" x1="124" x2="134" y1="1101.2813" y2="1101.2813"/><rect fill="#E1E1E1" height="75.875" style="stroke:#181818;stroke-width:1.5;" width="214" x="134" y="1063.3438"/><text fill="#000000" font-family="sans-serif" font-size="12" lengthAdjust="spacing" textLength="100" x="144" y="1084.4824">[scheduling info,</text><text fill="#000000" font-family="sans-serif" font-size="12" lengthAdjust="spacing" textLength="126" x="144" y="1098.4512">thread control block,</text><text fill="#000000" font-family="sans-serif" font-size="12" lengthAdjust="spacing" textLength="121" x="144" y="1112.4199">thread kernel stack,</text><text fill="#000000" font-family="sans-serif" font-size="12" lengthAdjust="spacing" textLength="194" x="144" y="1126.3887">machine dependent thread info]</text><line style="stroke:#B70000;stroke-width:1.5;" x1="124" x2="124" y1="1048.3438" y2="1101.2813"/><line style="stroke:#B70000;stroke-width:1.5;" x1="74" x2="74" y1="117.9375" y2="1031.3594"/><line style="stroke:#B70000;stroke-width:1.5;" x1="74" x2="179" y1="63.9688" y2="63.9688"/><rect fill="#E1E1E1" height="33.9688" style="stroke:#181818;stroke-width:1.5;" width="70" x="144" y="10"/><text fill="#000000" font-family="sans-serif" font-size="12" lengthAdjust="spacing" textLength="50" x="154" y="31.1387">process</text><line style="stroke:#B70000;stroke-width:1.5;" x1="179" x2="179" y1="43.9688" y2="63.9688"/><!--SRC=[LLB1RjD04BtlLup49ObeQG82L5MeAYs5Af4YqlG272RhYRlAUjUQ7IUAKAzy0NT-aKzWrdO2sB8q-_RDl3Splao2BBjLCXT9zfxU6Osl7PQC5Nmt0CWSTsq4u5qW6traU7RrvamVHP_q2x6Wdh92koavDg7eYJJERqjyCXSlUf4Hr1mjfMH6nn2IS6EbOL9m1Bz__VW9yq_N_noGASWHIwuCw3KBfSiGHkj2sSMk8avjU2YVRTKPwSlTTdMqaDww65goPIfKnA5lZmypMDHegICobShJCIHfRzVE4nIKBBjQUhaUrHhig3F0b6B3bZInSj9XQP-4Ah3eFMp9IkG4xKMJYF-VnB5JjABolKfkMtquszMJHoOiZjP6y2NPHoeQNLa9BgpZyw-XvzYetgA7bOzsynVU40TgnzcY5Tf7NRUsLrF88pb8v6BVpAM2-QynSuz1bhEfTi5vYZ0-dPnDNfvELYGu7Yp39iHTKD6gpdF9UncQmUry2lrG2hNCRjNateRc3hS8dvkGUUUGJuFxsH0MDmSGRiBMSGoLMZ9t3xEE11-ZBEeeBVdrgvCh9x0WLa-wGdDDQsoyQAgDXGxa79Rt7qxUcYc6ii5IXIYOz_hJ2k_rRl47]--></g></svg>