<?xml version="1.0" encoding="UTF-8" standalone="no"?><svg xmlns="http://www.w3.org/2000/svg" xmlns:xlink="http://www.w3.org/1999/xlink" contentStyleType="text/css" height="1373px" preserveAspectRatio="none" style="width:991px;height:1373px;background:#FFFFFF;" version="1.1" viewBox="0 0 991 1373" width="991px" zoomAndPan="magnify"><defs/><g><text fill="#000000" font-family="sans-serif" font-size="14" font-weight="bold" lengthAdjust="spacing" textLength="310" x="336.5" y="40.6357">FreeBSD Networking Request Lifecycle</text><rect fill="#FFFFFF" height="1311.5625" style="stroke:#181818;stroke-width:0.5;" width="247.5" x="16" y="55.9375"/><text fill="#000000" font-family="sans-serif" font-size="13" font-weight="bold" lengthAdjust="spacing" textLength="82" x="98.75" y="68.0044">User space</text><rect fill="#FFFFFF" height="1311.5625" style="stroke:#181818;stroke-width:0.5;" width="101" x="272.5" y="55.9375"/><text fill="#000000" font-family="sans-serif" font-size="13" font-weight="bold" lengthAdjust="spacing" textLength="95" x="275.5" y="68.0044">Socket layer</text><rect fill="#FFFFFF" height="1311.5625" style="stroke:#181818;stroke-width:0.5;" width="150.5" x="375.5" y="55.9375"/><text fill="#000000" font-family="sans-serif" font-size="13" font-weight="bold" lengthAdjust="spacing" textLength="120" x="390.75" y="68.0044">Transport layer</text><rect fill="#FFFFFF" height="1311.5625" style="stroke:#181818;stroke-width:0.5;" width="190" x="585" y="55.9375"/><text fill="#000000" font-family="sans-serif" font-size="13" font-weight="bold" lengthAdjust="spacing" textLength="108" x="626" y="68.0044">Network layer</text><rect fill="#FFFFFF" height="1311.5625" style="stroke:#181818;stroke-width:0.5;" width="117" x="777" y="55.9375"/><text fill="#000000" font-family="sans-serif" font-size="13" font-weight="bold" lengthAdjust="spacing" textLength="72" x="799.5" y="68.0044">Link layer</text><rect fill="#FFFFFF" height="29.1328" style="stroke:#181818;stroke-width:1.0;" width="10" x="218.5" y="182.5"/><rect fill="#FFFFFF" height="29.1328" style="stroke:#181818;stroke-width:1.0;" width="10" x="218.5" y="646.5391"/><rect fill="#FFFFFF" height="29.1328" style="stroke:#181818;stroke-width:1.0;" width="10" x="218.5" y="938.4688"/><rect fill="#FFFFFF" height="381.6406" style="stroke:#181818;stroke-width:1.0;" width="10" x="395.5" y="264.8984"/><rect fill="#FFFFFF" height="28" style="stroke:#181818;stroke-width:1.0;" width="10" x="400.5" y="401.2344"/><rect fill="#FFFFFF" height="28" style="stroke:#181818;stroke-width:1.0;" width="10" x="400.5" y="495.1719"/><rect fill="#FFFFFF" height="475.1016" style="stroke:#181818;stroke-width:1.0;" width="10" x="495.5" y="308.8359"/><rect fill="#FFFFFF" height="28" style="stroke:#181818;stroke-width:1.0;" width="10" x="500.5" y="719.8047"/><rect fill="#FFFFFF" height="29.1328" style="stroke:#181818;stroke-width:1.0;" width="10" x="597.5" y="783.9375"/><rect fill="#FFFFFF" height="183.3359" style="stroke:#181818;stroke-width:1.0;" width="10" x="693.5" y="813.0703"/><rect fill="#FFFFFF" height="28" style="stroke:#181818;stroke-width:1.0;" width="10" x="698.5" y="850.2031"/><rect fill="#FFFFFF" height="282.7969" style="stroke:#181818;stroke-width:1.0;" width="10" x="830.5" y="996.4063"/><rect fill="#FFFFFF" height="28" style="stroke:#181818;stroke-width:1.0;" width="10" x="835.5" y="1040.5391"/><rect fill="#FFFFFF" height="28" style="stroke:#181818;stroke-width:1.0;" width="10" x="835.5" y="1185.0703"/><rect fill="#F8E4E4" height="90.2031" style="stroke:#000000;stroke-width:1.5;" width="265" x="267" y="226.6328"/><rect fill="#F8E4E4" height="43.9375" style="stroke:none;stroke-width:1.0;" width="265" x="267" y="272.8984"/><rect fill="#F8E4E4" height="207.3359" style="stroke:#000000;stroke-width:1.5;" width="238" x="359.5" y="330.8359"/><rect fill="#F8E4E4" height="89.2656" style="stroke:#000000;stroke-width:1.5;" width="218" x="369.5" y="354.9688"/><rect fill="#F8E4E4" height="86.9375" style="stroke:none;stroke-width:1.0;" width="238" x="359.5" y="451.2344"/><rect fill="#F8E4E4" height="131.5" style="stroke:#000000;stroke-width:1.5;" width="616" x="10" y="552.1719"/><rect fill="#F8E4E4" height="73.0703" style="stroke:none;stroke-width:1.0;" width="616" x="10" y="610.6016"/><rect fill="#F8E4E4" height="104.2031" style="stroke:#000000;stroke-width:1.5;" width="890" x="10" y="900.2031"/><rect fill="#F8E4E4" height="28.8047" style="stroke:none;stroke-width:1.0;" width="890" x="10" y="975.6016"/><rect fill="none" height="151.5313" style="stroke:#000000;stroke-width:1.5;" width="223" x="751" y="1090.5391"/><rect fill="#F8E4E4" height="120.3984" style="stroke:#000000;stroke-width:1.5;" width="202" x="761" y="1114.6719"/><rect fill="#F8E4E4" height="89.2656" style="stroke:#000000;stroke-width:1.5;" width="182" x="771" y="1138.8047"/><line style="stroke:#181818;stroke-width:0.5;stroke-dasharray:5.0,5.0;" x1="48" x2="48" y1="151.3672" y2="1288.2031"/><line style="stroke:#181818;stroke-width:0.5;stroke-dasharray:5.0,5.0;" x1="223.5" x2="223.5" y1="151.3672" y2="1288.2031"/><line style="stroke:#181818;stroke-width:0.5;stroke-dasharray:5.0,5.0;" x1="323" x2="323" y1="151.3672" y2="1288.2031"/><line style="stroke:#181818;stroke-width:0.5;stroke-dasharray:5.0,5.0;" x1="400.5" x2="400.5" y1="151.3672" y2="1288.2031"/><line style="stroke:#181818;stroke-width:0.5;stroke-dasharray:5.0,5.0;" x1="500" x2="500" y1="151.3672" y2="1288.2031"/><line style="stroke:#181818;stroke-width:0.5;stroke-dasharray:5.0,5.0;" x1="602" x2="602" y1="599.9531" y2="1288.2031"/><line style="stroke:#181818;stroke-width:0.5;stroke-dasharray:5.0,5.0;" x1="698" x2="698" y1="151.3672" y2="1288.2031"/><line style="stroke:#181818;stroke-width:0.5;stroke-dasharray:5.0,5.0;" x1="835" x2="835" y1="151.3672" y2="1288.2031"/><text fill="#000000" font-family="sans-serif" font-size="14" lengthAdjust="spacing" textLength="51" x="20" y="148.0654">Sender</text><ellipse cx="48.5" cy="83.5703" fill="#F8CDCC" rx="8" ry="8" style="stroke:#B70000;stroke-width:0.5;"/><path d="M48.5,91.5703 L48.5,118.5703 M35.5,99.5703 L61.5,99.5703 M48.5,118.5703 L35.5,133.5703 M48.5,118.5703 L61.5,133.5703 " fill="none" style="stroke:#B70000;stroke-width:0.5;"/><text fill="#000000" font-family="sans-serif" font-size="14" lengthAdjust="spacing" textLength="51" x="20" y="1300.1982">Sender</text><ellipse cx="48.5" cy="1312" fill="#F8CDCC" rx="8" ry="8" style="stroke:#B70000;stroke-width:0.5;"/><path d="M48.5,1320 L48.5,1347 M35.5,1328 L61.5,1328 M48.5,1347 L35.5,1362 M48.5,1347 L61.5,1362 " fill="none" style="stroke:#B70000;stroke-width:0.5;"/><rect fill="#F8CDCC" height="30.2969" rx="2.5" ry="2.5" style="stroke:#B70000;stroke-width:0.5;" width="72" x="187.5" y="120.0703"/><text fill="#000000" font-family="sans-serif" font-size="14" lengthAdjust="spacing" textLength="58" x="194.5" y="140.0654">Browser</text><rect fill="#F8CDCC" height="30.2969" rx="2.5" ry="2.5" style="stroke:#B70000;stroke-width:0.5;" width="72" x="187.5" y="1287.2031"/><text fill="#000000" font-family="sans-serif" font-size="14" lengthAdjust="spacing" textLength="58" x="194.5" y="1307.1982">Browser</text><rect fill="#F8CDCC" height="30.2969" rx="2.5" ry="2.5" style="stroke:#B70000;stroke-width:0.5;" width="92" x="277" y="120.0703"/><text fill="#000000" font-family="sans-serif" font-size="14" lengthAdjust="spacing" textLength="78" x="284" y="140.0654">Socket API</text><rect fill="#F8CDCC" height="30.2969" rx="2.5" ry="2.5" style="stroke:#B70000;stroke-width:0.5;" width="92" x="277" y="1287.2031"/><text fill="#000000" font-family="sans-serif" font-size="14" lengthAdjust="spacing" textLength="78" x="284" y="1307.1982">Socket API</text><rect fill="#F8CDCC" height="30.2969" rx="2.5" ry="2.5" style="stroke:#B70000;stroke-width:0.5;" width="42" x="379.5" y="120.0703"/><text fill="#000000" font-family="sans-serif" font-size="14" lengthAdjust="spacing" textLength="28" x="386.5" y="140.0654">TCP</text><rect fill="#F8CDCC" height="30.2969" rx="2.5" ry="2.5" style="stroke:#B70000;stroke-width:0.5;" width="42" x="379.5" y="1287.2031"/><text fill="#000000" font-family="sans-serif" font-size="14" lengthAdjust="spacing" textLength="28" x="386.5" y="1307.1982">TCP</text><rect fill="#F8CDCC" height="30.2969" rx="2.5" ry="2.5" style="stroke:#B70000;stroke-width:0.5;" width="43" x="479" y="120.0703"/><text fill="#000000" font-family="sans-serif" font-size="14" lengthAdjust="spacing" textLength="29" x="486" y="140.0654">UDP</text><rect fill="#F8CDCC" height="30.2969" rx="2.5" ry="2.5" style="stroke:#B70000;stroke-width:0.5;" width="43" x="479" y="1287.2031"/><text fill="#000000" font-family="sans-serif" font-size="14" lengthAdjust="spacing" textLength="29" x="486" y="1307.1982">UDP</text><rect fill="#F8CDCC" height="30.2969" rx="2.5" ry="2.5" style="stroke:#B70000;stroke-width:0.5;" width="27" x="589" y="1287.2031"/><text fill="#000000" font-family="sans-serif" font-size="14" lengthAdjust="spacing" textLength="13" x="596" y="1307.1982">IP</text><rect fill="#F8CDCC" height="30.2969" rx="2.5" ry="2.5" style="stroke:#B70000;stroke-width:0.5;" width="145" x="626" y="120.0703"/><text fill="#000000" font-family="sans-serif" font-size="14" lengthAdjust="spacing" textLength="131" x="633" y="140.0654">Network Interface</text><rect fill="#F8CDCC" height="30.2969" rx="2.5" ry="2.5" style="stroke:#B70000;stroke-width:0.5;" width="145" x="626" y="1287.2031"/><text fill="#000000" font-family="sans-serif" font-size="14" lengthAdjust="spacing" textLength="131" x="633" y="1307.1982">Network Interface</text><rect fill="#F8CDCC" height="30.2969" rx="2.5" ry="2.5" style="stroke:#B70000;stroke-width:0.5;" width="109" x="781" y="120.0703"/><text fill="#000000" font-family="sans-serif" font-size="14" lengthAdjust="spacing" textLength="95" x="788" y="140.0654">Device driver</text><rect fill="#F8CDCC" height="30.2969" rx="2.5" ry="2.5" style="stroke:#B70000;stroke-width:0.5;" width="109" x="781" y="1287.2031"/><text fill="#000000" font-family="sans-serif" font-size="14" lengthAdjust="spacing" textLength="95" x="788" y="1307.1982">Device driver</text><rect fill="#FFFFFF" height="29.1328" style="stroke:#181818;stroke-width:1.0;" width="10" x="218.5" y="182.5"/><rect fill="#FFFFFF" height="29.1328" style="stroke:#181818;stroke-width:1.0;" width="10" x="218.5" y="646.5391"/><rect fill="#FFFFFF" height="29.1328" style="stroke:#181818;stroke-width:1.0;" width="10" x="218.5" y="938.4688"/><rect fill="#FFFFFF" height="381.6406" style="stroke:#181818;stroke-width:1.0;" width="10" x="395.5" y="264.8984"/><rect fill="#FFFFFF" height="28" style="stroke:#181818;stroke-width:1.0;" width="10" x="400.5" y="401.2344"/><rect fill="#FFFFFF" height="28" style="stroke:#181818;stroke-width:1.0;" width="10" x="400.5" y="495.1719"/><rect fill="#FFFFFF" height="475.1016" style="stroke:#181818;stroke-width:1.0;" width="10" x="495.5" y="308.8359"/><rect fill="#FFFFFF" height="28" style="stroke:#181818;stroke-width:1.0;" width="10" x="500.5" y="719.8047"/><rect fill="#FFFFFF" height="29.1328" style="stroke:#181818;stroke-width:1.0;" width="10" x="597.5" y="783.9375"/><rect fill="#FFFFFF" height="183.3359" style="stroke:#181818;stroke-width:1.0;" width="10" x="693.5" y="813.0703"/><rect fill="#FFFFFF" height="28" style="stroke:#181818;stroke-width:1.0;" width="10" x="698.5" y="850.2031"/><rect fill="#FFFFFF" height="282.7969" style="stroke:#181818;stroke-width:1.0;" width="10" x="830.5" y="996.4063"/><rect fill="#FFFFFF" height="28" style="stroke:#181818;stroke-width:1.0;" width="10" x="835.5" y="1040.5391"/><rect fill="#FFFFFF" height="28" style="stroke:#181818;stroke-width:1.0;" width="10" x="835.5" y="1185.0703"/><polygon fill="#B70000" points="206.5,178.5,216.5,182.5,206.5,186.5,210.5,182.5" style="stroke:#B70000;stroke-width:1.0;"/><line style="stroke:#B70000;stroke-width:1.0;" x1="48.5" x2="212.5" y1="182.5" y2="182.5"/><text fill="#000000" font-family="sans-serif" font-size="13" lengthAdjust="spacing" textLength="151" x="55.5" y="177.4341">GET https://google.com</text><polygon fill="#B70000" points="311,207.6328,321,211.6328,311,215.6328,315,211.6328" style="stroke:#B70000;stroke-width:1.0;"/><line style="stroke:#B70000;stroke-width:1.0;" x1="223.5" x2="317" y1="211.6328" y2="211.6328"/><text fill="#000000" font-family="sans-serif" font-size="13" lengthAdjust="spacing" textLength="70" x="230.5" y="206.5669">send(data)</text><path d="M267,226.6328 L333,226.6328 L333,233.7656 L323,243.7656 L267,243.7656 L267,226.6328 " fill="#EEEEEE" style="stroke:#000000;stroke-width:1.5;"/><rect fill="none" height="90.2031" style="stroke:#000000;stroke-width:1.5;" width="265" x="267" y="226.6328"/><text fill="#000000" font-family="sans-serif" font-size="13" font-weight="bold" lengthAdjust="spacing" textLength="21" x="282" y="239.6997">alt</text><text fill="#000000" font-family="sans-serif" font-size="11" font-weight="bold" lengthAdjust="spacing" textLength="124" x="348" y="238.8433">[HTTP, FTP, SMPT]</text><polygon fill="#B70000" points="383.5,260.8984,393.5,264.8984,383.5,268.8984,387.5,264.8984" style="stroke:#B70000;stroke-width:1.0;"/><line style="stroke:#B70000;stroke-width:1.0;" x1="323" x2="389.5" y1="264.8984" y2="264.8984"/><text fill="#000000" font-family="sans-serif" font-size="13" lengthAdjust="spacing" textLength="46" x="330" y="259.8325">sosend</text><line style="stroke:#000000;stroke-width:1.0;stroke-dasharray:2.0,2.0;" x1="267" x2="532" y1="273.8984" y2="273.8984"/><text fill="#000000" font-family="sans-serif" font-size="11" font-weight="bold" lengthAdjust="spacing" textLength="110" x="272" y="284.1089">[DNS, TFTP, NFS]</text><polygon fill="#B70000" points="483.5,304.8359,493.5,308.8359,483.5,312.8359,487.5,308.8359" style="stroke:#B70000;stroke-width:1.0;"/><line style="stroke:#B70000;stroke-width:1.0;" x1="323" x2="489.5" y1="308.8359" y2="308.8359"/><text fill="#000000" font-family="sans-serif" font-size="13" lengthAdjust="spacing" textLength="46" x="330" y="303.77">sosend</text><path d="M359.5,330.8359 L425.5,330.8359 L425.5,337.9688 L415.5,347.9688 L359.5,347.9688 L359.5,330.8359 " fill="#EEEEEE" style="stroke:#000000;stroke-width:1.5;"/><rect fill="none" height="207.3359" style="stroke:#000000;stroke-width:1.5;" width="238" x="359.5" y="330.8359"/><text fill="#000000" font-family="sans-serif" font-size="13" font-weight="bold" lengthAdjust="spacing" textLength="21" x="374.5" y="343.9028">alt</text><text fill="#000000" font-family="sans-serif" font-size="11" font-weight="bold" lengthAdjust="spacing" textLength="84" x="440.5" y="343.0464">[so_snd_full]</text><path d="M369.5,354.9688 L447.5,354.9688 L447.5,362.1016 L437.5,372.1016 L369.5,372.1016 L369.5,354.9688 " fill="#EEEEEE" style="stroke:#000000;stroke-width:1.5;"/><rect fill="none" height="89.2656" style="stroke:#000000;stroke-width:1.5;" width="218" x="369.5" y="354.9688"/><text fill="#000000" font-family="sans-serif" font-size="13" font-weight="bold" lengthAdjust="spacing" textLength="33" x="384.5" y="368.0356">loop</text><text fill="#000000" font-family="sans-serif" font-size="11" font-weight="bold" lengthAdjust="spacing" textLength="120" x="462.5" y="367.1792">[until sowwakeup]</text><line style="stroke:#B70000;stroke-width:1.0;" x1="410.5" x2="452.5" y1="393.2344" y2="393.2344"/><line style="stroke:#B70000;stroke-width:1.0;" x1="452.5" x2="452.5" y1="393.2344" y2="406.2344"/><line style="stroke:#B70000;stroke-width:1.0;" x1="411.5" x2="452.5" y1="406.2344" y2="406.2344"/><polygon fill="#B70000" points="421.5,402.2344,411.5,406.2344,421.5,410.2344,417.5,406.2344" style="stroke:#B70000;stroke-width:1.0;"/><text fill="#000000" font-family="sans-serif" font-size="13" lengthAdjust="spacing" textLength="42" x="417.5" y="388.1685">sbwait</text><line style="stroke:#000000;stroke-width:1.0;stroke-dasharray:2.0,2.0;" x1="359.5" x2="597.5" y1="452.2344" y2="452.2344"/><text fill="#000000" font-family="sans-serif" font-size="11" font-weight="bold" lengthAdjust="spacing" textLength="110" x="364.5" y="462.4448">[so_snd not full]</text><line style="stroke:#B70000;stroke-width:1.0;" x1="410.5" x2="452.5" y1="487.1719" y2="487.1719"/><line style="stroke:#B70000;stroke-width:1.0;" x1="452.5" x2="452.5" y1="487.1719" y2="500.1719"/><line style="stroke:#B70000;stroke-width:1.0;" x1="411.5" x2="452.5" y1="500.1719" y2="500.1719"/><polygon fill="#B70000" points="421.5,496.1719,411.5,500.1719,421.5,504.1719,417.5,500.1719" style="stroke:#B70000;stroke-width:1.0;"/><text fill="#000000" font-family="sans-serif" font-size="13" lengthAdjust="spacing" textLength="76" x="417.5" y="482.106">(*pru_send)</text><path d="M10,552.1719 L76,552.1719 L76,559.3047 L66,569.3047 L10,569.3047 L10,552.1719 " fill="#EEEEEE" style="stroke:#000000;stroke-width:1.5;"/><rect fill="none" height="131.5" style="stroke:#000000;stroke-width:1.5;" width="616" x="10" y="552.1719"/><text fill="#000000" font-family="sans-serif" font-size="13" font-weight="bold" lengthAdjust="spacing" textLength="21" x="25" y="565.2388">alt</text><text fill="#000000" font-family="sans-serif" font-size="11" font-weight="bold" lengthAdjust="spacing" textLength="95" x="91" y="564.3823">[can segment]</text><polygon fill="#B70000" points="577,586.4375,587,590.4375,577,594.4375,581,590.4375" style="stroke:#B70000;stroke-width:1.0;"/><line style="stroke:#B70000;stroke-width:1.0;" x1="405.5" x2="583" y1="590.4375" y2="590.4375"/><text fill="#000000" font-family="sans-serif" font-size="13" lengthAdjust="spacing" textLength="70" x="412.5" y="585.3716">tdp_output</text><rect fill="#F8CDCC" height="30.2969" rx="2.5" ry="2.5" style="stroke:#B70000;stroke-width:0.5;" width="27" x="589" y="569.3047"/><text fill="#000000" font-family="sans-serif" font-size="14" lengthAdjust="spacing" textLength="13" x="596" y="589.2998">IP</text><line style="stroke:#000000;stroke-width:1.0;stroke-dasharray:2.0,2.0;" x1="10" x2="626" y1="611.6016" y2="611.6016"/><text fill="#000000" font-family="sans-serif" font-size="11" font-weight="bold" lengthAdjust="spacing" textLength="119" x="15" y="621.812">[cannot segment]</text><polygon fill="#B70000" points="239.5,642.5391,229.5,646.5391,239.5,650.5391,235.5,646.5391" style="stroke:#B70000;stroke-width:1.0;"/><line style="stroke:#B70000;stroke-width:1.0;stroke-dasharray:2.0,2.0;" x1="233.5" x2="399.5" y1="646.5391" y2="646.5391"/><text fill="#000000" font-family="sans-serif" font-size="13" lengthAdjust="spacing" textLength="105" x="245.5" y="641.4731">cannot segment</text><polygon fill="#B70000" points="59.5,671.6719,49.5,675.6719,59.5,679.6719,55.5,675.6719" style="stroke:#B70000;stroke-width:1.0;"/><line style="stroke:#B70000;stroke-width:1.0;stroke-dasharray:2.0,2.0;" x1="53.5" x2="222.5" y1="675.6719" y2="675.6719"/><text fill="#000000" font-family="sans-serif" font-size="13" lengthAdjust="spacing" textLength="31" x="65.5" y="670.606">error</text><line style="stroke:#B70000;stroke-width:1.0;" x1="510.5" x2="552.5" y1="711.8047" y2="711.8047"/><line style="stroke:#B70000;stroke-width:1.0;" x1="552.5" x2="552.5" y1="711.8047" y2="724.8047"/><line style="stroke:#B70000;stroke-width:1.0;" x1="511.5" x2="552.5" y1="724.8047" y2="724.8047"/><polygon fill="#B70000" points="521.5,720.8047,511.5,724.8047,521.5,728.8047,517.5,724.8047" style="stroke:#B70000;stroke-width:1.0;"/><text fill="#000000" font-family="sans-serif" font-size="13" lengthAdjust="spacing" textLength="76" x="517.5" y="706.7388">(*pru_send)</text><polygon fill="#B70000" points="585.5,779.9375,595.5,783.9375,585.5,787.9375,589.5,783.9375" style="stroke:#B70000;stroke-width:1.0;"/><line style="stroke:#B70000;stroke-width:1.0;" x1="500.5" x2="591.5" y1="783.9375" y2="783.9375"/><text fill="#000000" font-family="sans-serif" font-size="13" lengthAdjust="spacing" textLength="73" x="507.5" y="778.8716">udp_output</text><polygon fill="#B70000" points="681.5,809.0703,691.5,813.0703,681.5,817.0703,685.5,813.0703" style="stroke:#B70000;stroke-width:1.0;"/><line style="stroke:#B70000;stroke-width:1.0;" x1="602.5" x2="687.5" y1="813.0703" y2="813.0703"/><text fill="#000000" font-family="sans-serif" font-size="13" lengthAdjust="spacing" textLength="60" x="609.5" y="808.0044">ip_output</text><line style="stroke:#B70000;stroke-width:1.0;" x1="708.5" x2="750.5" y1="842.2031" y2="842.2031"/><line style="stroke:#B70000;stroke-width:1.0;" x1="750.5" x2="750.5" y1="842.2031" y2="855.2031"/><line style="stroke:#B70000;stroke-width:1.0;" x1="709.5" x2="750.5" y1="855.2031" y2="855.2031"/><polygon fill="#B70000" points="719.5,851.2031,709.5,855.2031,719.5,859.2031,715.5,855.2031" style="stroke:#B70000;stroke-width:1.0;"/><text fill="#000000" font-family="sans-serif" font-size="13" lengthAdjust="spacing" textLength="74" x="715.5" y="837.1372">(*if_output)</text><path d="M10,900.2031 L76,900.2031 L76,907.3359 L66,917.3359 L10,917.3359 L10,900.2031 " fill="#EEEEEE" style="stroke:#000000;stroke-width:1.5;"/><rect fill="none" height="104.2031" style="stroke:#000000;stroke-width:1.5;" width="890" x="10" y="900.2031"/><text fill="#000000" font-family="sans-serif" font-size="13" font-weight="bold" lengthAdjust="spacing" textLength="21" x="25" y="913.27">alt</text><text fill="#000000" font-family="sans-serif" font-size="11" font-weight="bold" lengthAdjust="spacing" textLength="56" x="91" y="912.4136">[ifq full]</text><polygon fill="#B70000" points="239.5,934.4688,229.5,938.4688,239.5,942.4688,235.5,938.4688" style="stroke:#B70000;stroke-width:1.0;"/><line style="stroke:#B70000;stroke-width:1.0;stroke-dasharray:2.0,2.0;" x1="233.5" x2="692.5" y1="938.4688" y2="938.4688"/><text fill="#000000" font-family="sans-serif" font-size="13" lengthAdjust="spacing" textLength="109" x="245.5" y="933.4028">output queue full</text><polygon fill="#B70000" points="59.5,963.6016,49.5,967.6016,59.5,971.6016,55.5,967.6016" style="stroke:#B70000;stroke-width:1.0;"/><line style="stroke:#B70000;stroke-width:1.0;stroke-dasharray:2.0,2.0;" x1="53.5" x2="222.5" y1="967.6016" y2="967.6016"/><text fill="#000000" font-family="sans-serif" font-size="13" lengthAdjust="spacing" textLength="31" x="65.5" y="962.5356">error</text><line style="stroke:#000000;stroke-width:1.0;stroke-dasharray:2.0,2.0;" x1="10" x2="900" y1="976.6016" y2="976.6016"/><text fill="#000000" font-family="sans-serif" font-size="11" font-weight="bold" lengthAdjust="spacing" textLength="84" x="15" y="986.812">[ifq not full]</text><polygon fill="#B70000" points="818.5,992.4063,828.5,996.4063,818.5,1000.4063,822.5,996.4063" style="stroke:#B70000;stroke-width:1.0;"/><line style="stroke:#B70000;stroke-width:1.0;" x1="698.5" x2="824.5" y1="996.4063" y2="996.4063"/><line style="stroke:#B70000;stroke-width:1.0;" x1="845.5" x2="887.5" y1="1032.5391" y2="1032.5391"/><line style="stroke:#B70000;stroke-width:1.0;" x1="887.5" x2="887.5" y1="1032.5391" y2="1045.5391"/><line style="stroke:#B70000;stroke-width:1.0;" x1="846.5" x2="887.5" y1="1045.5391" y2="1045.5391"/><polygon fill="#B70000" points="856.5,1041.5391,846.5,1045.5391,856.5,1049.5391,852.5,1045.5391" style="stroke:#B70000;stroke-width:1.0;"/><text fill="#000000" font-family="sans-serif" font-size="13" lengthAdjust="spacing" textLength="62" x="852.5" y="1027.4731">(*if_start)</text><path d="M751,1090.5391 L969,1090.5391 L969,1097.6719 L959,1107.6719 L751,1107.6719 L751,1090.5391 " fill="#EEEEEE" style="stroke:#000000;stroke-width:1.5;"/><rect fill="none" height="151.5313" style="stroke:#000000;stroke-width:1.5;" width="223" x="751" y="1090.5391"/><text fill="#000000" font-family="sans-serif" font-size="13" font-weight="bold" lengthAdjust="spacing" textLength="173" x="766" y="1103.606">Idle network scheduler</text><path d="M761,1114.6719 L827,1114.6719 L827,1121.8047 L817,1131.8047 L761,1131.8047 L761,1114.6719 " fill="#EEEEEE" style="stroke:#000000;stroke-width:1.5;"/><rect fill="none" height="120.3984" style="stroke:#000000;stroke-width:1.5;" width="202" x="761" y="1114.6719"/><text fill="#000000" font-family="sans-serif" font-size="13" font-weight="bold" lengthAdjust="spacing" textLength="21" x="776" y="1127.7388">alt</text><text fill="#000000" font-family="sans-serif" font-size="11" font-weight="bold" lengthAdjust="spacing" textLength="91" x="842" y="1126.8823">[ifq_dequeue]</text><path d="M771,1138.8047 L849,1138.8047 L849,1145.9375 L839,1155.9375 L771,1155.9375 L771,1138.8047 " fill="#EEEEEE" style="stroke:#000000;stroke-width:1.5;"/><rect fill="none" height="89.2656" style="stroke:#000000;stroke-width:1.5;" width="182" x="771" y="1138.8047"/><text fill="#000000" font-family="sans-serif" font-size="13" font-weight="bold" lengthAdjust="spacing" textLength="33" x="786" y="1151.8716">loop</text><text fill="#000000" font-family="sans-serif" font-size="11" font-weight="bold" lengthAdjust="spacing" textLength="84" x="864" y="1151.0151">[ifq not full]</text><line style="stroke:#B70000;stroke-width:1.0;" x1="845.5" x2="887.5" y1="1177.0703" y2="1177.0703"/><line style="stroke:#B70000;stroke-width:1.0;" x1="887.5" x2="887.5" y1="1177.0703" y2="1190.0703"/><line style="stroke:#B70000;stroke-width:1.0;" x1="846.5" x2="887.5" y1="1190.0703" y2="1190.0703"/><polygon fill="#B70000" points="856.5,1186.0703,846.5,1190.0703,856.5,1194.0703,852.5,1190.0703" style="stroke:#B70000;stroke-width:1.0;"/><text fill="#000000" font-family="sans-serif" font-size="13" lengthAdjust="spacing" textLength="54" x="852.5" y="1172.0044">NIC DMA</text><polygon fill="#B70000" points="234.5,1266.2031,224.5,1270.2031,234.5,1274.2031,230.5,1270.2031" style="stroke:#B70000;stroke-width:1.0;"/><line style="stroke:#B70000;stroke-width:1.0;stroke-dasharray:2.0,2.0;" x1="228.5" x2="829.5" y1="1270.2031" y2="1270.2031"/><text fill="#000000" font-family="sans-serif" font-size="13" lengthAdjust="spacing" textLength="47" x="240.5" y="1265.1372">NIC IRQ</text><text fill="#888888" font-family="sans-serif" font-size="10" lengthAdjust="spacing" textLength="215" x="768" y="14.2822">EECS 4314 FreeBSD Analysis - BitTheory</text><!--SRC=[hLNBRjim43oNNx5mBecHDYrge4KE1Vni1II66YjdWnRNDc65L4Wghb7qtxlKovBi12XG7soBEpFSdULIJhe4OMOGHui9pD7jjTb9jO47VCxGEhYJQumFCO7O5hb00zFfU063pvy6DMseU7Amqi9x64aNRL6R0sEMT59k-1FyPk-6nkZzM2VQmCNeoqVwC5gCdJOZ7kysHcTAbE7Pr_5aFAwYsj2UNU9SEtoLbmVFqa9kd8nbofLxbTt4_C-z9zpn5RUlKsl06VeVnbRw5_GUBVblKnvZ3oxM-OVbDi42bUyDjs1PUYm1UYFodLWz7rgPKcUXunqwIFZ1Hogb5g-43CCWfrfk6Mq1HAz_2wt8S6LJRTwKYyPXw_bn4dPaogFtbaZGrgWfWN9erhafbAcI7UKxgTwKxKtmHSO8miYNqYWXZXfqgh-HSt0BtwSHR9rBxUtDpKRhJO8VOlt4UEpa2tVexIKSeSaiWbkIk1JKrIici0bYF76-xzF1T00_eYYyXfd_Mjo74OESJI9acHVHNePMQm5l9IOMOJ9VN4EKC-UpnP58tfubbfwtjxTwQPLOhhCa8MoYTLg7CkLaGe3zdkymIoaCULB7t5PxBXsjvg5MWdwXKNInv2qjKYzs1QKTb3ktX2_xgScMFlyhTYBSaJsfAEQAhDyyeN97tI24VlyMd4YNEdDfveey2EjpwC2hVfz4JofgTXKyoNDzxv6kEzDc42JFrRUdxbApqbQZ6aJ_M982pycEHNHGzGDD2WjoXfB4aES8GGDFCyC8MU4l-t9TCgvQe0RTKvgso_LprKklL7bOg02zIpAiul_gck-KbsySbo9P8ThWe7C-ACV6RiLGCoP4mQqAjOukWqQTX6jeq1FpztKAWQ2Ne2hl71jlKMG9-dGxDYm5vkNcGz2Qg4uH-P0Sava7OvZS3yj0Cu4IYjsrOi2BiQA_NglotOi53p__0W00]--></g></svg>