<?xml version="1.0" encoding="UTF-8" standalone="no"?><svg xmlns="http://www.w3.org/2000/svg" xmlns:xlink="http://www.w3.org/1999/xlink" contentStyleType="text/css" height="1251px" preserveAspectRatio="none" style="width:965px;height:1251px;background:#FFFFFF;" version="1.1" viewBox="0 0 965 1251" width="965px" zoomAndPan="magnify"><defs/><g><rect fill="#FFFFFF" height="1239.3984" style="stroke:#181818;stroke-width:0.5;" width="247.5" x="16" y="6"/><text fill="#000000" font-family="sans-serif" font-size="13" font-weight="bold" lengthAdjust="spacing" textLength="82" x="98.75" y="18.0669">User space</text><rect fill="#FFFFFF" height="1239.3984" style="stroke:#181818;stroke-width:0.5;" width="101" x="272.5" y="6"/><text fill="#000000" font-family="sans-serif" font-size="13" font-weight="bold" lengthAdjust="spacing" textLength="95" x="275.5" y="18.0669">Socket layer</text><rect fill="#FFFFFF" height="1239.3984" style="stroke:#181818;stroke-width:0.5;" width="140.5" x="375.5" y="6"/><text fill="#000000" font-family="sans-serif" font-size="13" font-weight="bold" lengthAdjust="spacing" textLength="120" x="385.75" y="18.0669">Transport layer</text><rect fill="#FFFFFF" height="1239.3984" style="stroke:#181818;stroke-width:0.5;" width="190" x="570" y="6"/><text fill="#000000" font-family="sans-serif" font-size="13" font-weight="bold" lengthAdjust="spacing" textLength="108" x="611" y="18.0669">Network layer</text><rect fill="#FFFFFF" height="1239.3984" style="stroke:#181818;stroke-width:0.5;" width="117" x="762" y="6"/><text fill="#000000" font-family="sans-serif" font-size="13" font-weight="bold" lengthAdjust="spacing" textLength="72" x="784.5" y="18.0669">Link layer</text><rect fill="#FFFFFF" height="29.1328" style="stroke:#181818;stroke-width:1.0;" width="10" x="218.5" y="132.5625"/><rect fill="#FFFFFF" height="28" style="stroke:#181818;stroke-width:1.0;" width="10" x="395.5" y="351.2969"/><rect fill="#FFFFFF" height="28" style="stroke:#181818;stroke-width:1.0;" width="10" x="395.5" y="445.2344"/><rect fill="#FFFFFF" height="28" style="stroke:#181818;stroke-width:1.0;" width="10" x="485.5" y="657.7031"/><rect fill="#FFFFFF" height="29.1328" style="stroke:#181818;stroke-width:1.0;" width="10" x="582.5" y="721.8359"/><rect fill="#FFFFFF" height="35.1328" style="stroke:#181818;stroke-width:1.0;" width="10" x="678.5" y="750.9688"/><rect fill="#FFFFFF" height="28" style="stroke:#181818;stroke-width:1.0;" width="10" x="815.5" y="1062.9688"/><rect fill="none" height="90.2031" style="stroke:#000000;stroke-width:1.5;" width="255" x="267" y="176.6953"/><rect fill="none" height="207.3359" style="stroke:#000000;stroke-width:1.5;" width="238" x="359.5" y="280.8984"/><rect fill="none" height="89.2656" style="stroke:#000000;stroke-width:1.5;" width="218" x="369.5" y="305.0313"/><rect fill="none" height="119.3359" style="stroke:#000000;stroke-width:1.5;" width="601" x="10" y="502.2344"/><rect fill="none" height="104.2031" style="stroke:#000000;stroke-width:1.5;" width="875" x="10" y="808.1016"/><rect fill="none" height="151.5313" style="stroke:#000000;stroke-width:1.5;" width="223" x="736" y="968.4375"/><rect fill="none" height="120.3984" style="stroke:#000000;stroke-width:1.5;" width="202" x="746" y="992.5703"/><rect fill="none" height="89.2656" style="stroke:#000000;stroke-width:1.5;" width="182" x="756" y="1016.7031"/><line style="stroke:#181818;stroke-width:0.5;stroke-dasharray:5.0,5.0;" x1="48" x2="48" y1="101.4297" y2="1166.1016"/><line style="stroke:#181818;stroke-width:0.5;stroke-dasharray:5.0,5.0;" x1="223.5" x2="223.5" y1="101.4297" y2="1166.1016"/><line style="stroke:#181818;stroke-width:0.5;stroke-dasharray:5.0,5.0;" x1="323" x2="323" y1="101.4297" y2="1166.1016"/><line style="stroke:#181818;stroke-width:0.5;stroke-dasharray:5.0,5.0;" x1="400.5" x2="400.5" y1="101.4297" y2="1166.1016"/><line style="stroke:#181818;stroke-width:0.5;stroke-dasharray:5.0,5.0;" x1="490" x2="490" y1="101.4297" y2="1166.1016"/><line style="stroke:#181818;stroke-width:0.5;stroke-dasharray:5.0,5.0;" x1="587" x2="587" y1="101.4297" y2="1166.1016"/><line style="stroke:#181818;stroke-width:0.5;stroke-dasharray:5.0,5.0;" x1="683" x2="683" y1="101.4297" y2="1166.1016"/><line style="stroke:#181818;stroke-width:0.5;stroke-dasharray:5.0,5.0;" x1="820" x2="820" y1="101.4297" y2="1166.1016"/><text fill="#000000" font-family="sans-serif" font-size="14" lengthAdjust="spacing" textLength="51" x="20" y="98.1279">Sender</text><ellipse cx="48.5" cy="33.6328" fill="#F8CDCC" rx="8" ry="8" style="stroke:#B70000;stroke-width:0.5;"/><path d="M48.5,41.6328 L48.5,68.6328 M35.5,49.6328 L61.5,49.6328 M48.5,68.6328 L35.5,83.6328 M48.5,68.6328 L61.5,83.6328 " fill="none" style="stroke:#B70000;stroke-width:0.5;"/><text fill="#000000" font-family="sans-serif" font-size="14" lengthAdjust="spacing" textLength="51" x="20" y="1178.0967">Sender</text><ellipse cx="48.5" cy="1189.8984" fill="#F8CDCC" rx="8" ry="8" style="stroke:#B70000;stroke-width:0.5;"/><path d="M48.5,1197.8984 L48.5,1224.8984 M35.5,1205.8984 L61.5,1205.8984 M48.5,1224.8984 L35.5,1239.8984 M48.5,1224.8984 L61.5,1239.8984 " fill="none" style="stroke:#B70000;stroke-width:0.5;"/><rect fill="#F8CDCC" height="30.2969" rx="2.5" ry="2.5" style="stroke:#B70000;stroke-width:0.5;" width="72" x="187.5" y="70.1328"/><text fill="#000000" font-family="sans-serif" font-size="14" lengthAdjust="spacing" textLength="58" x="194.5" y="90.1279">Browser</text><rect fill="#F8CDCC" height="30.2969" rx="2.5" ry="2.5" style="stroke:#B70000;stroke-width:0.5;" width="72" x="187.5" y="1165.1016"/><text fill="#000000" font-family="sans-serif" font-size="14" lengthAdjust="spacing" textLength="58" x="194.5" y="1185.0967">Browser</text><rect fill="#F8CDCC" height="30.2969" rx="2.5" ry="2.5" style="stroke:#B70000;stroke-width:0.5;" width="92" x="277" y="70.1328"/><text fill="#000000" font-family="sans-serif" font-size="14" lengthAdjust="spacing" textLength="78" x="284" y="90.1279">Socket API</text><rect fill="#F8CDCC" height="30.2969" rx="2.5" ry="2.5" style="stroke:#B70000;stroke-width:0.5;" width="92" x="277" y="1165.1016"/><text fill="#000000" font-family="sans-serif" font-size="14" lengthAdjust="spacing" textLength="78" x="284" y="1185.0967">Socket API</text><rect fill="#F8CDCC" height="30.2969" rx="2.5" ry="2.5" style="stroke:#B70000;stroke-width:0.5;" width="42" x="379.5" y="70.1328"/><text fill="#000000" font-family="sans-serif" font-size="14" lengthAdjust="spacing" textLength="28" x="386.5" y="90.1279">TCP</text><rect fill="#F8CDCC" height="30.2969" rx="2.5" ry="2.5" style="stroke:#B70000;stroke-width:0.5;" width="42" x="379.5" y="1165.1016"/><text fill="#000000" font-family="sans-serif" font-size="14" lengthAdjust="spacing" textLength="28" x="386.5" y="1185.0967">TCP</text><rect fill="#F8CDCC" height="30.2969" rx="2.5" ry="2.5" style="stroke:#B70000;stroke-width:0.5;" width="43" x="469" y="70.1328"/><text fill="#000000" font-family="sans-serif" font-size="14" lengthAdjust="spacing" textLength="29" x="476" y="90.1279">UDP</text><rect fill="#F8CDCC" height="30.2969" rx="2.5" ry="2.5" style="stroke:#B70000;stroke-width:0.5;" width="43" x="469" y="1165.1016"/><text fill="#000000" font-family="sans-serif" font-size="14" lengthAdjust="spacing" textLength="29" x="476" y="1185.0967">UDP</text><rect fill="#F8CDCC" height="30.2969" rx="2.5" ry="2.5" style="stroke:#B70000;stroke-width:0.5;" width="27" x="574" y="70.1328"/><text fill="#000000" font-family="sans-serif" font-size="14" lengthAdjust="spacing" textLength="13" x="581" y="90.1279">IP</text><rect fill="#F8CDCC" height="30.2969" rx="2.5" ry="2.5" style="stroke:#B70000;stroke-width:0.5;" width="27" x="574" y="1165.1016"/><text fill="#000000" font-family="sans-serif" font-size="14" lengthAdjust="spacing" textLength="13" x="581" y="1185.0967">IP</text><rect fill="#F8CDCC" height="30.2969" rx="2.5" ry="2.5" style="stroke:#B70000;stroke-width:0.5;" width="145" x="611" y="70.1328"/><text fill="#000000" font-family="sans-serif" font-size="14" lengthAdjust="spacing" textLength="131" x="618" y="90.1279">Network Interface</text><rect fill="#F8CDCC" height="30.2969" rx="2.5" ry="2.5" style="stroke:#B70000;stroke-width:0.5;" width="145" x="611" y="1165.1016"/><text fill="#000000" font-family="sans-serif" font-size="14" lengthAdjust="spacing" textLength="131" x="618" y="1185.0967">Network Interface</text><rect fill="#F8CDCC" height="30.2969" rx="2.5" ry="2.5" style="stroke:#B70000;stroke-width:0.5;" width="109" x="766" y="70.1328"/><text fill="#000000" font-family="sans-serif" font-size="14" lengthAdjust="spacing" textLength="95" x="773" y="90.1279">Device driver</text><rect fill="#F8CDCC" height="30.2969" rx="2.5" ry="2.5" style="stroke:#B70000;stroke-width:0.5;" width="109" x="766" y="1165.1016"/><text fill="#000000" font-family="sans-serif" font-size="14" lengthAdjust="spacing" textLength="95" x="773" y="1185.0967">Device driver</text><rect fill="#FFFFFF" height="29.1328" style="stroke:#181818;stroke-width:1.0;" width="10" x="218.5" y="132.5625"/><rect fill="#FFFFFF" height="28" style="stroke:#181818;stroke-width:1.0;" width="10" x="395.5" y="351.2969"/><rect fill="#FFFFFF" height="28" style="stroke:#181818;stroke-width:1.0;" width="10" x="395.5" y="445.2344"/><rect fill="#FFFFFF" height="28" style="stroke:#181818;stroke-width:1.0;" width="10" x="485.5" y="657.7031"/><rect fill="#FFFFFF" height="29.1328" style="stroke:#181818;stroke-width:1.0;" width="10" x="582.5" y="721.8359"/><rect fill="#FFFFFF" height="35.1328" style="stroke:#181818;stroke-width:1.0;" width="10" x="678.5" y="750.9688"/><rect fill="#FFFFFF" height="28" style="stroke:#181818;stroke-width:1.0;" width="10" x="815.5" y="1062.9688"/><polygon fill="#B70000" points="206.5,128.5625,216.5,132.5625,206.5,136.5625,210.5,132.5625" style="stroke:#B70000;stroke-width:1.0;"/><line style="stroke:#B70000;stroke-width:1.0;" x1="48.5" x2="212.5" y1="132.5625" y2="132.5625"/><text fill="#000000" font-family="sans-serif" font-size="13" lengthAdjust="spacing" textLength="151" x="55.5" y="127.4966">GET https://google.com</text><polygon fill="#B70000" points="311,157.6953,321,161.6953,311,165.6953,315,161.6953" style="stroke:#B70000;stroke-width:1.0;"/><line style="stroke:#B70000;stroke-width:1.0;" x1="223.5" x2="317" y1="161.6953" y2="161.6953"/><text fill="#000000" font-family="sans-serif" font-size="13" lengthAdjust="spacing" textLength="70" x="230.5" y="156.6294">send(data)</text><path d="M267,176.6953 L333,176.6953 L333,183.8281 L323,193.8281 L267,193.8281 L267,176.6953 " fill="#EEEEEE" style="stroke:#000000;stroke-width:1.5;"/><rect fill="none" height="90.2031" style="stroke:#000000;stroke-width:1.5;" width="255" x="267" y="176.6953"/><text fill="#000000" font-family="sans-serif" font-size="13" font-weight="bold" lengthAdjust="spacing" textLength="21" x="282" y="189.7622">alt</text><text fill="#000000" font-family="sans-serif" font-size="11" font-weight="bold" lengthAdjust="spacing" textLength="124" x="348" y="188.9058">[HTTP, FTP, SMPT]</text><polygon fill="#B70000" points="388.5,210.9609,398.5,214.9609,388.5,218.9609,392.5,214.9609" style="stroke:#B70000;stroke-width:1.0;"/><line style="stroke:#B70000;stroke-width:1.0;" x1="323" x2="394.5" y1="214.9609" y2="214.9609"/><text fill="#000000" font-family="sans-serif" font-size="13" lengthAdjust="spacing" textLength="46" x="330" y="209.895">sosend</text><line style="stroke:#000000;stroke-width:1.0;stroke-dasharray:2.0,2.0;" x1="267" x2="522" y1="223.9609" y2="223.9609"/><text fill="#000000" font-family="sans-serif" font-size="11" font-weight="bold" lengthAdjust="spacing" textLength="110" x="272" y="234.1714">[DNS, TFTP, NFS]</text><polygon fill="#B70000" points="478.5,254.8984,488.5,258.8984,478.5,262.8984,482.5,258.8984" style="stroke:#B70000;stroke-width:1.0;"/><line style="stroke:#B70000;stroke-width:1.0;" x1="323" x2="484.5" y1="258.8984" y2="258.8984"/><text fill="#000000" font-family="sans-serif" font-size="13" lengthAdjust="spacing" textLength="46" x="330" y="253.8325">sosend</text><path d="M359.5,280.8984 L425.5,280.8984 L425.5,288.0313 L415.5,298.0313 L359.5,298.0313 L359.5,280.8984 " fill="#EEEEEE" style="stroke:#000000;stroke-width:1.5;"/><rect fill="none" height="207.3359" style="stroke:#000000;stroke-width:1.5;" width="238" x="359.5" y="280.8984"/><text fill="#000000" font-family="sans-serif" font-size="13" font-weight="bold" lengthAdjust="spacing" textLength="21" x="374.5" y="293.9653">alt</text><text fill="#000000" font-family="sans-serif" font-size="11" font-weight="bold" lengthAdjust="spacing" textLength="84" x="440.5" y="293.1089">[so_snd_full]</text><path d="M369.5,305.0313 L447.5,305.0313 L447.5,312.1641 L437.5,322.1641 L369.5,322.1641 L369.5,305.0313 " fill="#EEEEEE" style="stroke:#000000;stroke-width:1.5;"/><rect fill="none" height="89.2656" style="stroke:#000000;stroke-width:1.5;" width="218" x="369.5" y="305.0313"/><text fill="#000000" font-family="sans-serif" font-size="13" font-weight="bold" lengthAdjust="spacing" textLength="33" x="384.5" y="318.0981">loop</text><text fill="#000000" font-family="sans-serif" font-size="11" font-weight="bold" lengthAdjust="spacing" textLength="120" x="462.5" y="317.2417">[until sowwakeup]</text><line style="stroke:#B70000;stroke-width:1.0;" x1="405.5" x2="447.5" y1="343.2969" y2="343.2969"/><line style="stroke:#B70000;stroke-width:1.0;" x1="447.5" x2="447.5" y1="343.2969" y2="356.2969"/><line style="stroke:#B70000;stroke-width:1.0;" x1="406.5" x2="447.5" y1="356.2969" y2="356.2969"/><polygon fill="#B70000" points="416.5,352.2969,406.5,356.2969,416.5,360.2969,412.5,356.2969" style="stroke:#B70000;stroke-width:1.0;"/><text fill="#000000" font-family="sans-serif" font-size="13" lengthAdjust="spacing" textLength="42" x="412.5" y="338.231">sbwait</text><line style="stroke:#000000;stroke-width:1.0;stroke-dasharray:2.0,2.0;" x1="359.5" x2="597.5" y1="402.2969" y2="402.2969"/><text fill="#000000" font-family="sans-serif" font-size="11" font-weight="bold" lengthAdjust="spacing" textLength="110" x="364.5" y="412.5073">[so_snd not full]</text><line style="stroke:#B70000;stroke-width:1.0;" x1="405.5" x2="447.5" y1="437.2344" y2="437.2344"/><line style="stroke:#B70000;stroke-width:1.0;" x1="447.5" x2="447.5" y1="437.2344" y2="450.2344"/><line style="stroke:#B70000;stroke-width:1.0;" x1="406.5" x2="447.5" y1="450.2344" y2="450.2344"/><polygon fill="#B70000" points="416.5,446.2344,406.5,450.2344,416.5,454.2344,412.5,450.2344" style="stroke:#B70000;stroke-width:1.0;"/><text fill="#000000" font-family="sans-serif" font-size="13" lengthAdjust="spacing" textLength="76" x="412.5" y="432.1685">(*pru_send)</text><path d="M10,502.2344 L76,502.2344 L76,509.3672 L66,519.3672 L10,519.3672 L10,502.2344 " fill="#EEEEEE" style="stroke:#000000;stroke-width:1.5;"/><rect fill="none" height="119.3359" style="stroke:#000000;stroke-width:1.5;" width="601" x="10" y="502.2344"/><text fill="#000000" font-family="sans-serif" font-size="13" font-weight="bold" lengthAdjust="spacing" textLength="21" x="25" y="515.3013">alt</text><text fill="#000000" font-family="sans-serif" font-size="11" font-weight="bold" lengthAdjust="spacing" textLength="95" x="91" y="514.4448">[can segment]</text><polygon fill="#B70000" points="575.5,536.5,585.5,540.5,575.5,544.5,579.5,540.5" style="stroke:#B70000;stroke-width:1.0;"/><line style="stroke:#B70000;stroke-width:1.0;" x1="400.5" x2="581.5" y1="540.5" y2="540.5"/><text fill="#000000" font-family="sans-serif" font-size="13" lengthAdjust="spacing" textLength="70" x="407.5" y="535.4341">tdp_output</text><line style="stroke:#000000;stroke-width:1.0;stroke-dasharray:2.0,2.0;" x1="10" x2="611" y1="549.5" y2="549.5"/><text fill="#000000" font-family="sans-serif" font-size="11" font-weight="bold" lengthAdjust="spacing" textLength="119" x="15" y="559.7104">[cannot segment]</text><polygon fill="#B70000" points="234.5,580.4375,224.5,584.4375,234.5,588.4375,230.5,584.4375" style="stroke:#B70000;stroke-width:1.0;"/><line style="stroke:#B70000;stroke-width:1.0;" x1="228.5" x2="399.5" y1="584.4375" y2="584.4375"/><text fill="#000000" font-family="sans-serif" font-size="13" lengthAdjust="spacing" textLength="105" x="240.5" y="579.3716">cannot segment</text><polygon fill="#B70000" points="59.5,609.5703,49.5,613.5703,59.5,617.5703,55.5,613.5703" style="stroke:#B70000;stroke-width:1.0;"/><line style="stroke:#B70000;stroke-width:1.0;" x1="53.5" x2="222.5" y1="613.5703" y2="613.5703"/><text fill="#000000" font-family="sans-serif" font-size="13" lengthAdjust="spacing" textLength="31" x="65.5" y="608.5044">error</text><line style="stroke:#B70000;stroke-width:1.0;" x1="495.5" x2="537.5" y1="649.7031" y2="649.7031"/><line style="stroke:#B70000;stroke-width:1.0;" x1="537.5" x2="537.5" y1="649.7031" y2="662.7031"/><line style="stroke:#B70000;stroke-width:1.0;" x1="496.5" x2="537.5" y1="662.7031" y2="662.7031"/><polygon fill="#B70000" points="506.5,658.7031,496.5,662.7031,506.5,666.7031,502.5,662.7031" style="stroke:#B70000;stroke-width:1.0;"/><text fill="#000000" font-family="sans-serif" font-size="13" lengthAdjust="spacing" textLength="76" x="502.5" y="644.6372">(*pru_send)</text><polygon fill="#B70000" points="570.5,717.8359,580.5,721.8359,570.5,725.8359,574.5,721.8359" style="stroke:#B70000;stroke-width:1.0;"/><line style="stroke:#B70000;stroke-width:1.0;" x1="490.5" x2="576.5" y1="721.8359" y2="721.8359"/><text fill="#000000" font-family="sans-serif" font-size="13" lengthAdjust="spacing" textLength="73" x="497.5" y="716.77">udp_output</text><polygon fill="#B70000" points="666.5,746.9688,676.5,750.9688,666.5,754.9688,670.5,750.9688" style="stroke:#B70000;stroke-width:1.0;"/><line style="stroke:#B70000;stroke-width:1.0;" x1="587.5" x2="672.5" y1="750.9688" y2="750.9688"/><text fill="#000000" font-family="sans-serif" font-size="13" lengthAdjust="spacing" textLength="60" x="594.5" y="745.9028">ip_output</text><line style="stroke:#B70000;stroke-width:1.0;" x1="688.5" x2="730.5" y1="785.1016" y2="785.1016"/><line style="stroke:#B70000;stroke-width:1.0;" x1="730.5" x2="730.5" y1="785.1016" y2="798.1016"/><line style="stroke:#B70000;stroke-width:1.0;" x1="683.5" x2="730.5" y1="798.1016" y2="798.1016"/><polygon fill="#B70000" points="693.5,794.1016,683.5,798.1016,693.5,802.1016,689.5,798.1016" style="stroke:#B70000;stroke-width:1.0;"/><text fill="#000000" font-family="sans-serif" font-size="13" lengthAdjust="spacing" textLength="74" x="695.5" y="780.0356">(*if_output)</text><path d="M10,808.1016 L76,808.1016 L76,815.2344 L66,825.2344 L10,825.2344 L10,808.1016 " fill="#EEEEEE" style="stroke:#000000;stroke-width:1.5;"/><rect fill="none" height="104.2031" style="stroke:#000000;stroke-width:1.5;" width="875" x="10" y="808.1016"/><text fill="#000000" font-family="sans-serif" font-size="13" font-weight="bold" lengthAdjust="spacing" textLength="21" x="25" y="821.1685">alt</text><text fill="#000000" font-family="sans-serif" font-size="11" font-weight="bold" lengthAdjust="spacing" textLength="56" x="91" y="820.312">[ifq full]</text><polygon fill="#B70000" points="234.5,842.3672,224.5,846.3672,234.5,850.3672,230.5,846.3672" style="stroke:#B70000;stroke-width:1.0;"/><line style="stroke:#B70000;stroke-width:1.0;" x1="228.5" x2="682.5" y1="846.3672" y2="846.3672"/><text fill="#000000" font-family="sans-serif" font-size="13" lengthAdjust="spacing" textLength="109" x="240.5" y="841.3013">output queue full</text><polygon fill="#B70000" points="59.5,871.5,49.5,875.5,59.5,879.5,55.5,875.5" style="stroke:#B70000;stroke-width:1.0;"/><line style="stroke:#B70000;stroke-width:1.0;" x1="53.5" x2="222.5" y1="875.5" y2="875.5"/><text fill="#000000" font-family="sans-serif" font-size="13" lengthAdjust="spacing" textLength="31" x="65.5" y="870.4341">error</text><line style="stroke:#000000;stroke-width:1.0;stroke-dasharray:2.0,2.0;" x1="10" x2="885" y1="884.5" y2="884.5"/><text fill="#000000" font-family="sans-serif" font-size="11" font-weight="bold" lengthAdjust="spacing" textLength="84" x="15" y="894.7104">[ifq not full]</text><polygon fill="#B70000" points="808.5,900.3047,818.5,904.3047,808.5,908.3047,812.5,904.3047" style="stroke:#B70000;stroke-width:1.0;"/><line style="stroke:#B70000;stroke-width:1.0;" x1="683.5" x2="814.5" y1="904.3047" y2="904.3047"/><line style="stroke:#B70000;stroke-width:1.0;" x1="820.5" x2="862.5" y1="940.4375" y2="940.4375"/><line style="stroke:#B70000;stroke-width:1.0;" x1="862.5" x2="862.5" y1="940.4375" y2="953.4375"/><line style="stroke:#B70000;stroke-width:1.0;" x1="821.5" x2="862.5" y1="953.4375" y2="953.4375"/><polygon fill="#B70000" points="831.5,949.4375,821.5,953.4375,831.5,957.4375,827.5,953.4375" style="stroke:#B70000;stroke-width:1.0;"/><text fill="#000000" font-family="sans-serif" font-size="13" lengthAdjust="spacing" textLength="62" x="827.5" y="935.3716">(*if_start)</text><path d="M736,968.4375 L954,968.4375 L954,975.5703 L944,985.5703 L736,985.5703 L736,968.4375 " fill="#EEEEEE" style="stroke:#000000;stroke-width:1.5;"/><rect fill="none" height="151.5313" style="stroke:#000000;stroke-width:1.5;" width="223" x="736" y="968.4375"/><text fill="#000000" font-family="sans-serif" font-size="13" font-weight="bold" lengthAdjust="spacing" textLength="173" x="751" y="981.5044">Idle network scheduler</text><path d="M746,992.5703 L812,992.5703 L812,999.7031 L802,1009.7031 L746,1009.7031 L746,992.5703 " fill="#EEEEEE" style="stroke:#000000;stroke-width:1.5;"/><rect fill="none" height="120.3984" style="stroke:#000000;stroke-width:1.5;" width="202" x="746" y="992.5703"/><text fill="#000000" font-family="sans-serif" font-size="13" font-weight="bold" lengthAdjust="spacing" textLength="21" x="761" y="1005.6372">alt</text><text fill="#000000" font-family="sans-serif" font-size="11" font-weight="bold" lengthAdjust="spacing" textLength="91" x="827" y="1004.7808">[ifq_dequeue]</text><path d="M756,1016.7031 L834,1016.7031 L834,1023.8359 L824,1033.8359 L756,1033.8359 L756,1016.7031 " fill="#EEEEEE" style="stroke:#000000;stroke-width:1.5;"/><rect fill="none" height="89.2656" style="stroke:#000000;stroke-width:1.5;" width="182" x="756" y="1016.7031"/><text fill="#000000" font-family="sans-serif" font-size="13" font-weight="bold" lengthAdjust="spacing" textLength="33" x="771" y="1029.77">loop</text><text fill="#000000" font-family="sans-serif" font-size="11" font-weight="bold" lengthAdjust="spacing" textLength="84" x="849" y="1028.9136">[ifq not full]</text><line style="stroke:#B70000;stroke-width:1.0;" x1="825.5" x2="867.5" y1="1054.9688" y2="1054.9688"/><line style="stroke:#B70000;stroke-width:1.0;" x1="867.5" x2="867.5" y1="1054.9688" y2="1067.9688"/><line style="stroke:#B70000;stroke-width:1.0;" x1="826.5" x2="867.5" y1="1067.9688" y2="1067.9688"/><polygon fill="#B70000" points="836.5,1063.9688,826.5,1067.9688,836.5,1071.9688,832.5,1067.9688" style="stroke:#B70000;stroke-width:1.0;"/><text fill="#000000" font-family="sans-serif" font-size="13" lengthAdjust="spacing" textLength="54" x="832.5" y="1049.9028">NIC DMA</text><polygon fill="#B70000" points="234.5,1144.1016,224.5,1148.1016,234.5,1152.1016,230.5,1148.1016" style="stroke:#B70000;stroke-width:1.0;"/><line style="stroke:#B70000;stroke-width:1.0;" x1="228.5" x2="819.5" y1="1148.1016" y2="1148.1016"/><text fill="#000000" font-family="sans-serif" font-size="13" lengthAdjust="spacing" textLength="47" x="240.5" y="1143.0356">NIC IRQ</text><!--SRC=[hLHDZzem5BpxLpon5rXjkxsrsaCbI4eRgOlIaZqZ4nlM8jXPsu5MLVzxdp_o0UnoAXAG-CtC6uzVOdP2rbJJFVmXKwtLCL6Lqd0p-_W1FuHCIwlqZ9QxhLQDPB4w_vIaIHABIZEkpsWBPVbRB5zxZPHJRKKfQYhjMzmXvB_rJQcbQshU97RrryX_2LchNp1wCbo3gMd9Ht2pyP-G3oovH1fG0uRKlNyOpJ1kP8rSQQsZpbALEswXehzTfLKwuKN8DCyyrL13i0KWlViFMeMcqjHANvKhalpa_YdDpsGMt1wLtbqJoKurEaecBTSR7mewbU9C-RkGLsL7AJ-8aWFJuX23OgpN80RUVSReu06-VYdWsThQFDpVRvNQLlnzgVQ4bbOSgEKkNyGX6jD2k46DCSDpdH36Xo12AmlVYYA_WxdxMJxc1G7FGZ9cvSZAqGcl38TqiRo3maCNysMFn1G7IFnwOQDMHhBLfgagX5PArT18Aoei78zqnviQby6twRkjZrHONFMbpgixDhSmi1-MN3h1M-W6Kbc87K-4nxUrRbREu8HS29_9TZiegSJmjdikRQ-NEJdBwfLgRDtOq1sHhlC5s1_NHJ4U3fOuleLqQEX2xB8SsksykM4TM7MtaUGzDRsd3eEZIZ8FaG8XeaCCT13JNUFG4aIs-F6js4J6oUmuc0j8R5xQj0FBxpSGuANX3M_B5rjsgJdwuC2218iZn5YuQsqOYy_AX13tqgeXOnNQY0-UAPyvQogktT46Mol6VNy_DdxspfhvSUfRBB84qiTfB7GRHJCHoi_NdCbs0F4oQFdzEwtivuz_]--></g></svg>