<?xml version="1.0" encoding="us-ascii" standalone="no"?><svg xmlns="http://www.w3.org/2000/svg" xmlns:xlink="http://www.w3.org/1999/xlink" contentStyleType="text/css" height="944px" preserveAspectRatio="none" style="width:1560px;height:944px;background:#FFFFFF;" version="1.1" viewBox="0 0 1560 944" width="1560px" zoomAndPan="magnify"><defs/><g><text fill="#000000" font-family="sans-serif" font-size="14" font-weight="bold" lengthAdjust="spacing" textLength="331" x="610.5" y="40.6357">Common Dependency Extracion Overview</text><rect fill="#FFFFFF" height="105.7985" style="stroke:#181818;stroke-width:1.0;" width="10" x="443" y="223.9"/><rect fill="#FFFFFF" height="45.2" style="stroke:#181818;stroke-width:1.0;" width="10" x="617" y="359.2985"/><rect fill="#FFFFFF" height="139.0001" style="stroke:#181818;stroke-width:1.0;" width="10" x="617" y="500.8986"/><rect fill="#FFFFFF" height="96.4001" style="stroke:#181818;stroke-width:1.0;" width="10" x="847" y="404.4985"/><rect fill="#FFFFFF" height="87.8" style="stroke:#181818;stroke-width:1.0;" width="10" x="1013" y="669.4987"/><rect fill="#FFFFFF" height="29.6" style="stroke:#181818;stroke-width:1.0;" width="10" x="1251" y="786.8987"/><rect fill="#FFFFFF" height="38.1328" style="stroke:#181818;stroke-width:1.0;" width="10" x="1497" y="816.4987"/><line style="stroke:#181818;stroke-width:0.5;stroke-dasharray:5.0,5.0;" x1="36" x2="36" y1="131.2344" y2="863.6315"/><line style="stroke:#181818;stroke-width:0.5;stroke-dasharray:5.0,5.0;" x1="447.5" x2="447.5" y1="131.2344" y2="863.6315"/><line style="stroke:#181818;stroke-width:0.5;stroke-dasharray:5.0,5.0;" x1="621.5" x2="621.5" y1="131.2344" y2="863.6315"/><line style="stroke:#181818;stroke-width:0.5;stroke-dasharray:5.0,5.0;" x1="852" x2="852" y1="131.2344" y2="863.6315"/><line style="stroke:#181818;stroke-width:0.5;stroke-dasharray:5.0,5.0;" x1="1018" x2="1018" y1="131.2344" y2="863.6315"/><line style="stroke:#181818;stroke-width:0.5;stroke-dasharray:5.0,5.0;" x1="1255.5" x2="1255.5" y1="131.2344" y2="863.6315"/><line style="stroke:#181818;stroke-width:0.5;stroke-dasharray:5.0,5.0;" x1="1502" x2="1502" y1="131.2344" y2="863.6315"/><text fill="#000000" font-family="sans-serif" font-size="14" lengthAdjust="spacing" textLength="38" x="14" y="127.9326">actor</text><ellipse cx="36" cy="63.4375" fill="#F8CDCC" rx="8" ry="8" style="stroke:#B70000;stroke-width:0.5;"/><path d="M36,71.4375 L36,98.4375 M23,79.4375 L49,79.4375 M36,98.4375 L23,113.4375 M36,98.4375 L49,113.4375 " fill="none" style="stroke:#B70000;stroke-width:0.5;"/><text fill="#000000" font-family="sans-serif" font-size="14" lengthAdjust="spacing" textLength="38" x="14" y="875.6267">actor</text><ellipse cx="36" cy="887.4284" fill="#F8CDCC" rx="8" ry="8" style="stroke:#B70000;stroke-width:0.5;"/><path d="M36,895.4284 L36,922.4284 M23,903.4284 L49,903.4284 M36,922.4284 L23,937.4284 M36,922.4284 L49,937.4284 " fill="none" style="stroke:#B70000;stroke-width:0.5;"/><rect fill="#F8CDCC" height="30.2969" rx="2.5" ry="2.5" style="stroke:#B70000;stroke-width:0.5;" width="163" x="366.5" y="99.9375"/><text fill="#000000" font-family="sans-serif" font-size="14" lengthAdjust="spacing" textLength="149" x="373.5" y="119.9326">gen-containment.py</text><rect fill="#F8CDCC" height="30.2969" rx="2.5" ry="2.5" style="stroke:#B70000;stroke-width:0.5;" width="163" x="366.5" y="862.6315"/><text fill="#000000" font-family="sans-serif" font-size="14" lengthAdjust="spacing" textLength="149" x="373.5" y="882.6267">gen-containment.py</text><rect fill="#F8CDCC" height="30.2969" rx="2.5" ry="2.5" style="stroke:#B70000;stroke-width:0.5;" width="165" x="539.5" y="99.9375"/><text fill="#000000" font-family="sans-serif" font-size="14" lengthAdjust="spacing" textLength="151" x="546.5" y="119.9326">final-containment.sh</text><rect fill="#F8CDCC" height="30.2969" rx="2.5" ry="2.5" style="stroke:#B70000;stroke-width:0.5;" width="165" x="539.5" y="862.6315"/><text fill="#000000" font-family="sans-serif" font-size="14" lengthAdjust="spacing" textLength="151" x="546.5" y="882.6267">final-containment.sh</text><rect fill="#F8CDCC" height="30.2969" rx="2.5" ry="2.5" style="stroke:#B70000;stroke-width:0.5;" width="50" x="827" y="99.9375"/><text fill="#000000" font-family="sans-serif" font-size="14" lengthAdjust="spacing" textLength="36" x="834" y="119.9326">ql.jar</text><rect fill="#F8CDCC" height="30.2969" rx="2.5" ry="2.5" style="stroke:#B70000;stroke-width:0.5;" width="50" x="827" y="862.6315"/><text fill="#000000" font-family="sans-serif" font-size="14" lengthAdjust="spacing" textLength="36" x="834" y="882.6267">ql.jar</text><rect fill="#F8CDCC" height="30.2969" rx="2.5" ry="2.5" style="stroke:#B70000;stroke-width:0.5;" width="136" x="950" y="99.9375"/><text fill="#000000" font-family="sans-serif" font-size="14" lengthAdjust="spacing" textLength="122" x="957" y="119.9326">clean-ignored.py</text><rect fill="#F8CDCC" height="30.2969" rx="2.5" ry="2.5" style="stroke:#B70000;stroke-width:0.5;" width="136" x="950" y="862.6315"/><text fill="#000000" font-family="sans-serif" font-size="14" lengthAdjust="spacing" textLength="122" x="957" y="882.6267">clean-ignored.py</text><rect fill="#F8CDCC" height="30.2969" rx="2.5" ry="2.5" style="stroke:#B70000;stroke-width:0.5;" width="81" x="1215.5" y="99.9375"/><text fill="#000000" font-family="sans-serif" font-size="14" lengthAdjust="spacing" textLength="67" x="1222.5" y="119.9326">ls-edit.sh</text><rect fill="#F8CDCC" height="30.2969" rx="2.5" ry="2.5" style="stroke:#B70000;stroke-width:0.5;" width="81" x="1215.5" y="862.6315"/><text fill="#000000" font-family="sans-serif" font-size="14" lengthAdjust="spacing" textLength="67" x="1222.5" y="882.6267">ls-edit.sh</text><rect fill="#F8CDCC" height="30.2969" rx="2.5" ry="2.5" style="stroke:#B70000;stroke-width:0.5;" width="92" x="1456" y="99.9375"/><text fill="#000000" font-family="sans-serif" font-size="14" lengthAdjust="spacing" textLength="78" x="1463" y="119.9326">lseditor.jar</text><rect fill="#F8CDCC" height="30.2969" rx="2.5" ry="2.5" style="stroke:#B70000;stroke-width:0.5;" width="92" x="1456" y="862.6315"/><text fill="#000000" font-family="sans-serif" font-size="14" lengthAdjust="spacing" textLength="78" x="1463" y="882.6267">lseditor.jar</text><rect fill="#FFFFFF" height="105.7985" style="stroke:#181818;stroke-width:1.0;" width="10" x="443" y="223.9"/><rect fill="#FFFFFF" height="45.2" style="stroke:#181818;stroke-width:1.0;" width="10" x="617" y="359.2985"/><rect fill="#FFFFFF" height="139.0001" style="stroke:#181818;stroke-width:1.0;" width="10" x="617" y="500.8986"/><rect fill="#FFFFFF" height="96.4001" style="stroke:#181818;stroke-width:1.0;" width="10" x="847" y="404.4985"/><rect fill="#FFFFFF" height="87.8" style="stroke:#181818;stroke-width:1.0;" width="10" x="1013" y="669.4987"/><rect fill="#FFFFFF" height="29.6" style="stroke:#181818;stroke-width:1.0;" width="10" x="1251" y="786.8987"/><rect fill="#FFFFFF" height="38.1328" style="stroke:#181818;stroke-width:1.0;" width="10" x="1497" y="816.4987"/><path d="M5,146.2344 L5,171.2344 L1534,171.2344 L1534,156.2344 L1524,146.2344 L5,146.2344 " fill="#F8CDCC" style="stroke:#B70000;stroke-width:0.5;"/><path d="M1524,146.2344 L1524,156.2344 L1534,156.2344 L1524,146.2344 " fill="#F8CDCC" style="stroke:#B70000;stroke-width:0.5;"/><text fill="#000000" font-family="sans-serif" font-size="13" lengthAdjust="spacing" textLength="84" x="338" y="163.7685">Assumes the</text><text fill="#000000" font-family="monospace" font-size="13" lengthAdjust="spacing" textLength="48" x="426" y="163.2724">raw.ta</text><text fill="#000000" font-family="sans-serif" font-size="13" lengthAdjust="spacing" textLength="427" x="478" y="163.7685">file has already been generated, and the user has files required by</text><text fill="#000000" font-family="monospace" font-size="13" lengthAdjust="spacing" textLength="48" x="909" y="163.2724">ql.jar</text><text fill="#000000" font-family="sans-serif" font-size="13" lengthAdjust="spacing" textLength="5" x="957" y="163.7685">:</text><text fill="#000000" font-family="monospace" font-size="13" lengthAdjust="spacing" textLength="104" x="966" y="163.2724">schema.asv.ta</text><text fill="#000000" font-family="sans-serif" font-size="13" lengthAdjust="spacing" textLength="10" x="1074" y="163.7685">&amp;</text><text fill="#000000" font-family="monospace" font-size="13" lengthAdjust="spacing" textLength="104" x="1088" y="163.2724">addcontain.ql</text><polygon fill="#B70000" points="431,219.9,441,223.9,431,227.9,435,223.9" style="stroke:#B70000;stroke-width:1.0;"/><line style="stroke:#B70000;stroke-width:1.0;" x1="36" x2="437" y1="223.9" y2="223.9"/><text fill="#000000" font-family="sans-serif" font-size="13" lengthAdjust="spacing" textLength="55" x="43" y="218.8341">Provides</text><text fill="#000000" font-family="monospace" font-size="13" lengthAdjust="spacing" textLength="48" x="102" y="218.338">raw.ta</text><text fill="#000000" font-family="sans-serif" font-size="13" lengthAdjust="spacing" textLength="277" x="154" y="218.8341">file, FreeBSD Source &amp; Subsystem JSON file</text><path d="M458,181.8344 L458,251.8344 L680,251.8344 L680,191.8344 L670,181.8344 L458,181.8344 " fill="#F8CDCC" style="stroke:#B70000;stroke-width:0.5;"/><path d="M670,181.8344 L670,191.8344 L680,191.8344 L670,181.8344 " fill="#F8CDCC" style="stroke:#B70000;stroke-width:0.5;"/><text fill="#000000" font-family="sans-serif" font-size="13" lengthAdjust="spacing" textLength="188" x="464" y="198.9013">Subsystem JSON file contains</text><text fill="#000000" font-family="sans-serif" font-size="13" lengthAdjust="spacing" textLength="201" x="464" y="214.0341">the subsystem names mapped</text><text fill="#000000" font-family="sans-serif" font-size="13" lengthAdjust="spacing" textLength="192" x="464" y="229.1669">to glob patterns that matches</text><text fill="#000000" font-family="sans-serif" font-size="13" lengthAdjust="spacing" textLength="105" x="464" y="244.2997">subsystem files.</text><line style="stroke:#B70000;stroke-width:1.0;" x1="453" x2="495" y1="283.0321" y2="283.0321"/><line style="stroke:#B70000;stroke-width:1.0;" x1="495" x2="495" y1="283.0321" y2="296.0321"/><line style="stroke:#B70000;stroke-width:1.0;" x1="454" x2="495" y1="296.0321" y2="296.0321"/><polygon fill="#B70000" points="464,292.0321,454,296.0321,464,300.0321,460,296.0321" style="stroke:#B70000;stroke-width:1.0;"/><text fill="#000000" font-family="sans-serif" font-size="13" lengthAdjust="spacing" textLength="43" x="460" y="277.9661">Create</text><text fill="#000000" font-family="monospace" font-size="13" lengthAdjust="spacing" textLength="64" x="507" y="277.4701">.contain</text><text fill="#000000" font-family="sans-serif" font-size="13" lengthAdjust="spacing" textLength="19" x="575" y="277.9661">file</text><path d="M606,262.3656 L606,302.3656 L843,302.3656 L843,272.3656 L833,262.3656 L606,262.3656 " fill="#F8CDCC" style="stroke:#B70000;stroke-width:0.5;"/><path d="M833,262.3656 L833,272.3656 L843,272.3656 L833,262.3656 " fill="#F8CDCC" style="stroke:#B70000;stroke-width:0.5;"/><text fill="#000000" font-family="monospace" font-size="13" lengthAdjust="spacing" textLength="64" x="612" y="279.4036">.contain</text><text fill="#000000" font-family="sans-serif" font-size="13" lengthAdjust="spacing" textLength="78" x="680" y="279.8997">file is a map</text><text fill="#000000" font-family="sans-serif" font-size="13" lengthAdjust="spacing" textLength="216" x="612" y="295.0325">of subsystem names to file paths</text><polygon fill="#B70000" points="47,325.6985,37,329.6985,47,333.6985,43,329.6985" style="stroke:#B70000;stroke-width:1.0;"/><line style="stroke:#B70000;stroke-width:1.0;stroke-dasharray:2.0,2.0;" x1="41" x2="447" y1="329.6985" y2="329.6985"/><text fill="#000000" font-family="sans-serif" font-size="13" lengthAdjust="spacing" textLength="89" x="53" y="324.6326">Exits (created</text><text fill="#000000" font-family="monospace" font-size="13" lengthAdjust="spacing" textLength="64" x="146" y="324.1365">.contain</text><text fill="#000000" font-family="sans-serif" font-size="13" lengthAdjust="spacing" textLength="24" x="214" y="324.6326">file)</text><polygon fill="#B70000" points="605,355.2985,615,359.2985,605,363.2985,609,359.2985" style="stroke:#B70000;stroke-width:1.0;"/><line style="stroke:#B70000;stroke-width:1.0;" x1="36" x2="611" y1="359.2985" y2="359.2985"/><text fill="#000000" font-family="sans-serif" font-size="13" lengthAdjust="spacing" textLength="55" x="43" y="354.2326">Provides</text><text fill="#000000" font-family="monospace" font-size="13" lengthAdjust="spacing" textLength="64" x="102" y="353.7365">.contain</text><text fill="#000000" font-family="sans-serif" font-size="13" lengthAdjust="spacing" textLength="4" x="166" y="354.2326">,</text><text fill="#000000" font-family="monospace" font-size="13" lengthAdjust="spacing" textLength="48" x="174" y="353.7365">raw.ta</text><text fill="#000000" font-family="sans-serif" font-size="13" lengthAdjust="spacing" textLength="33" x="226" y="354.2326">file &amp;</text><text fill="#000000" font-family="monospace" font-size="13" lengthAdjust="spacing" textLength="48" x="263" y="353.7365">ql.jar</text><polygon fill="#B70000" points="835,400.4985,845,404.4985,835,408.4985,839,404.4985" style="stroke:#B70000;stroke-width:1.0;"/><line style="stroke:#B70000;stroke-width:1.0;" x1="622" x2="841" y1="404.4985" y2="404.4985"/><text fill="#000000" font-family="sans-serif" font-size="13" lengthAdjust="spacing" textLength="55" x="629" y="383.8326">Provides</text><text fill="#000000" font-family="monospace" font-size="13" lengthAdjust="spacing" textLength="64" x="688" y="383.3365">.contain</text><text fill="#000000" font-family="sans-serif" font-size="13" lengthAdjust="spacing" textLength="4" x="752" y="383.8326">,</text><text fill="#000000" font-family="monospace" font-size="13" lengthAdjust="spacing" textLength="48" x="760" y="383.3365">raw.ta</text><text fill="#000000" font-family="sans-serif" font-size="13" lengthAdjust="spacing" textLength="10" x="812" y="383.8326">&amp;</text><text fill="#000000" font-family="monospace" font-size="13" lengthAdjust="spacing" textLength="104" x="629" y="398.9365">addcontain.ql</text><text fill="#000000" font-family="sans-serif" font-size="13" lengthAdjust="spacing" textLength="19" x="737" y="399.4326">file</text><line style="stroke:#B70000;stroke-width:1.0;" x1="857" x2="899" y1="438.3985" y2="438.3985"/><line style="stroke:#B70000;stroke-width:1.0;" x1="899" x2="899" y1="438.3985" y2="451.3985"/><line style="stroke:#B70000;stroke-width:1.0;" x1="858" x2="899" y1="451.3985" y2="451.3985"/><polygon fill="#B70000" points="868,447.3985,858,451.3985,868,455.3985,864,451.3985" style="stroke:#B70000;stroke-width:1.0;"/><text fill="#000000" font-family="sans-serif" font-size="13" lengthAdjust="spacing" textLength="67" x="864" y="433.3326">Generates</text><text fill="#000000" font-family="monospace" font-size="13" lengthAdjust="spacing" textLength="48" x="935" y="432.8365">con.ta</text><text fill="#000000" font-family="sans-serif" font-size="13" lengthAdjust="spacing" textLength="19" x="987" y="433.3326">file</text><path d="M1018,417.4985 L1018,458.4985 L1207,458.4985 L1207,427.4985 L1197,417.4985 L1018,417.4985 " fill="#F8CDCC" style="stroke:#B70000;stroke-width:0.5;"/><path d="M1197,417.4985 L1197,427.4985 L1207,427.4985 L1197,417.4985 " fill="#F8CDCC" style="stroke:#B70000;stroke-width:0.5;"/><text fill="#000000" font-family="monospace" font-size="13" lengthAdjust="spacing" textLength="48" x="1024" y="434.5365">con.ta</text><text fill="#000000" font-family="sans-serif" font-size="13" lengthAdjust="spacing" textLength="33" x="1076" y="435.0326">file is</text><text fill="#000000" font-family="monospace" font-size="13" lengthAdjust="spacing" textLength="48" x="1113" y="434.5365">raw.ta</text><text fill="#000000" font-family="sans-serif" font-size="13" lengthAdjust="spacing" textLength="27" x="1165" y="435.0326">with</text><text fill="#000000" font-family="monospace" font-size="13" lengthAdjust="spacing" textLength="64" x="1024" y="450.1365">.contain</text><text fill="#000000" font-family="sans-serif" font-size="13" lengthAdjust="spacing" textLength="90" x="1092" y="450.6326">merged into it</text><polygon fill="#B70000" points="638,496.8986,628,500.8986,638,504.8986,634,500.8986" style="stroke:#B70000;stroke-width:1.0;"/><line style="stroke:#B70000;stroke-width:1.0;stroke-dasharray:2.0,2.0;" x1="632" x2="851" y1="500.8986" y2="500.8986"/><text fill="#000000" font-family="sans-serif" font-size="13" lengthAdjust="spacing" textLength="149" x="644" y="480.2326">Outputs file paths from</text><text fill="#000000" font-family="monospace" font-size="13" lengthAdjust="spacing" textLength="48" x="797" y="479.7366">raw.ta</text><text fill="#000000" font-family="sans-serif" font-size="13" lengthAdjust="spacing" textLength="93" x="644" y="495.8327">that weren't in</text><text fill="#000000" font-family="monospace" font-size="13" lengthAdjust="spacing" textLength="64" x="741" y="495.3366">.contain</text><line style="stroke:#B70000;stroke-width:1.0;" x1="627" x2="669" y1="530.4986" y2="530.4986"/><line style="stroke:#B70000;stroke-width:1.0;" x1="669" x2="669" y1="530.4986" y2="543.4986"/><line style="stroke:#B70000;stroke-width:1.0;" x1="628" x2="669" y1="543.4986" y2="543.4986"/><polygon fill="#B70000" points="638,539.4986,628,543.4986,638,547.4986,634,543.4986" style="stroke:#B70000;stroke-width:1.0;"/><text fill="#000000" font-family="sans-serif" font-size="13" lengthAdjust="spacing" textLength="104" x="634" y="525.4327">Writes output to</text><text fill="#000000" font-family="monospace" font-size="13" lengthAdjust="spacing" textLength="88" x="742" y="524.9366">ignored.txt</text><line style="stroke:#B70000;stroke-width:1.0;" x1="627" x2="669" y1="585.1986" y2="585.1986"/><line style="stroke:#B70000;stroke-width:1.0;" x1="669" x2="669" y1="585.1986" y2="598.1986"/><line style="stroke:#B70000;stroke-width:1.0;" x1="628" x2="669" y1="598.1986" y2="598.1986"/><polygon fill="#B70000" points="638,594.1986,628,598.1986,638,602.1986,634,598.1986" style="stroke:#B70000;stroke-width:1.0;"/><text fill="#000000" font-family="sans-serif" font-size="13" lengthAdjust="spacing" textLength="50" x="634" y="580.1327">Creates</text><text fill="#000000" font-family="monospace" font-size="13" lengthAdjust="spacing" textLength="48" x="688" y="579.6366">.ls.ta</text><text fill="#000000" font-family="sans-serif" font-size="13" lengthAdjust="spacing" textLength="19" x="740" y="580.1327">file</text><path d="M771,556.4986 L771,612.4986 L1112,612.4986 L1112,566.4986 L1102,556.4986 L771,556.4986 " fill="#F8CDCC" style="stroke:#B70000;stroke-width:0.5;"/><path d="M1102,556.4986 L1102,566.4986 L1112,566.4986 L1102,556.4986 " fill="#F8CDCC" style="stroke:#B70000;stroke-width:0.5;"/><text fill="#000000" font-family="monospace" font-size="13" lengthAdjust="spacing" textLength="40" x="777" y="573.5366">ls.ta</text><text fill="#000000" font-family="sans-serif" font-size="13" lengthAdjust="spacing" textLength="157" x="821" y="574.0327">file is a concatenation of</text><text fill="#000000" font-family="monospace" font-size="13" lengthAdjust="spacing" textLength="104" x="982" y="573.5366">schema.asv.ta</text><text fill="#000000" font-family="sans-serif" font-size="13" lengthAdjust="spacing" textLength="24" x="777" y="589.6327">and</text><text fill="#000000" font-family="monospace" font-size="13" lengthAdjust="spacing" textLength="56" x="805" y="589.1366">.raw.ta</text><text fill="#000000" font-family="sans-serif" font-size="13" lengthAdjust="spacing" textLength="78" x="865" y="589.6327">(to populate</text><text fill="#000000" font-family="monospace" font-size="13" lengthAdjust="spacing" textLength="48" x="947" y="589.1366">SCHEME</text><text fill="#000000" font-family="sans-serif" font-size="13" lengthAdjust="spacing" textLength="98" x="999" y="589.6327">attributes/tuple</text><text fill="#000000" font-family="sans-serif" font-size="13" lengthAdjust="spacing" textLength="10" x="777" y="605.2327">&amp;</text><text fill="#000000" font-family="monospace" font-size="13" lengthAdjust="spacing" textLength="80" x="791" y="604.7366">INHERITICE</text><text fill="#000000" font-family="sans-serif" font-size="13" lengthAdjust="spacing" textLength="5" x="871" y="605.2327">)</text><polygon fill="#B70000" points="47,635.8986,37,639.8986,47,643.8986,43,639.8986" style="stroke:#B70000;stroke-width:1.0;"/><line style="stroke:#B70000;stroke-width:1.0;stroke-dasharray:2.0,2.0;" x1="41" x2="621" y1="639.8986" y2="639.8986"/><text fill="#000000" font-family="sans-serif" font-size="13" lengthAdjust="spacing" textLength="89" x="53" y="634.8327">Exits (created</text><text fill="#000000" font-family="monospace" font-size="13" lengthAdjust="spacing" textLength="88" x="146" y="634.3366">ignored.txt</text><text fill="#000000" font-family="sans-serif" font-size="13" lengthAdjust="spacing" textLength="4" x="234" y="634.8327">,</text><text fill="#000000" font-family="monospace" font-size="13" lengthAdjust="spacing" textLength="48" x="242" y="634.3366">con.ta</text><text fill="#000000" font-family="sans-serif" font-size="13" lengthAdjust="spacing" textLength="10" x="294" y="634.8327">&amp;</text><text fill="#000000" font-family="monospace" font-size="13" lengthAdjust="spacing" textLength="40" x="308" y="634.3366">ls.ta</text><text fill="#000000" font-family="sans-serif" font-size="13" lengthAdjust="spacing" textLength="31" x="352" y="634.8327">files)</text><polygon fill="#B70000" points="1001,665.4987,1011,669.4987,1001,673.4987,1005,669.4987" style="stroke:#B70000;stroke-width:1.0;"/><line style="stroke:#B70000;stroke-width:1.0;" x1="36" x2="1007" y1="669.4987" y2="669.4987"/><text fill="#000000" font-family="sans-serif" font-size="13" lengthAdjust="spacing" textLength="55" x="43" y="664.4327">Provides</text><text fill="#000000" font-family="monospace" font-size="13" lengthAdjust="spacing" textLength="40" x="102" y="663.9367">ls.ta</text><text fill="#000000" font-family="sans-serif" font-size="13" lengthAdjust="spacing" textLength="33" x="146" y="664.4327">file &amp;</text><text fill="#000000" font-family="monospace" font-size="13" lengthAdjust="spacing" textLength="88" x="183" y="663.9367">ignored.txt</text><line style="stroke:#B70000;stroke-width:1.0;" x1="1023" x2="1065" y1="714.6987" y2="714.6987"/><line style="stroke:#B70000;stroke-width:1.0;" x1="1065" x2="1065" y1="714.6987" y2="727.6987"/><line style="stroke:#B70000;stroke-width:1.0;" x1="1024" x2="1065" y1="727.6987" y2="727.6987"/><polygon fill="#B70000" points="1034,723.6987,1024,727.6987,1034,731.6987,1030,727.6987" style="stroke:#B70000;stroke-width:1.0;"/><text fill="#000000" font-family="sans-serif" font-size="13" lengthAdjust="spacing" textLength="70" x="1030" y="694.0328">Overwrites</text><text fill="#000000" font-family="monospace" font-size="13" lengthAdjust="spacing" textLength="40" x="1104" y="693.5367">ls.ta</text><text fill="#000000" font-family="sans-serif" font-size="13" lengthAdjust="spacing" textLength="94" x="1148" y="694.0328">removing lines</text><text fill="#000000" font-family="sans-serif" font-size="13" lengthAdjust="spacing" textLength="122" x="1030" y="709.6328">that contain files in</text><text fill="#000000" font-family="monospace" font-size="13" lengthAdjust="spacing" textLength="88" x="1156" y="709.1367">ignored.txt</text><polygon fill="#B70000" points="47,753.2987,37,757.2987,47,761.2987,43,757.2987" style="stroke:#B70000;stroke-width:1.0;"/><line style="stroke:#B70000;stroke-width:1.0;stroke-dasharray:2.0,2.0;" x1="41" x2="1017" y1="757.2987" y2="757.2987"/><text fill="#000000" font-family="sans-serif" font-size="13" lengthAdjust="spacing" textLength="40" x="53" y="752.2328">Exits (</text><text fill="#000000" font-family="monospace" font-size="13" lengthAdjust="spacing" textLength="40" x="93" y="751.7367">ls.ta</text><text fill="#000000" font-family="sans-serif" font-size="13" lengthAdjust="spacing" textLength="139" x="137" y="752.2328">is now fully prepared)</text><polygon fill="#B70000" points="1239,782.8987,1249,786.8987,1239,790.8987,1243,786.8987" style="stroke:#B70000;stroke-width:1.0;"/><line style="stroke:#B70000;stroke-width:1.0;" x1="36" x2="1245" y1="786.8987" y2="786.8987"/><text fill="#000000" font-family="sans-serif" font-size="13" lengthAdjust="spacing" textLength="55" x="43" y="781.8328">Provides</text><text fill="#000000" font-family="monospace" font-size="13" lengthAdjust="spacing" textLength="96" x="102" y="781.3367">lseditor.jar</text><text fill="#000000" font-family="sans-serif" font-size="13" lengthAdjust="spacing" textLength="10" x="202" y="781.8328">&amp;</text><text fill="#000000" font-family="monospace" font-size="13" lengthAdjust="spacing" textLength="40" x="216" y="781.3367">ls.ta</text><text fill="#000000" font-family="sans-serif" font-size="13" lengthAdjust="spacing" textLength="19" x="260" y="781.8328">file</text><polygon fill="#B70000" points="1485,812.4987,1495,816.4987,1485,820.4987,1489,816.4987" style="stroke:#B70000;stroke-width:1.0;"/><line style="stroke:#B70000;stroke-width:1.0;" x1="1256" x2="1491" y1="816.4987" y2="816.4987"/><text fill="#000000" font-family="sans-serif" font-size="13" lengthAdjust="spacing" textLength="150" x="1263" y="811.4328">Starts program passing</text><text fill="#000000" font-family="monospace" font-size="13" lengthAdjust="spacing" textLength="40" x="1417" y="810.9367">ls.ta</text><text fill="#000000" font-family="sans-serif" font-size="13" lengthAdjust="spacing" textLength="19" x="1461" y="811.4328">file</text><polygon fill="#B70000" points="47,841.6315,37,845.6315,47,849.6315,43,845.6315" style="stroke:#B70000;stroke-width:1.0;"/><line style="stroke:#B70000;stroke-width:1.0;stroke-dasharray:2.0,2.0;" x1="41" x2="1496" y1="845.6315" y2="845.6315"/><text fill="#000000" font-family="sans-serif" font-size="13" lengthAdjust="spacing" textLength="264" x="53" y="840.5656">Provides GUI for displaying dependencies</text><text fill="#888888" font-family="sans-serif" font-size="10" lengthAdjust="spacing" textLength="215" x="1337" y="14.2822">EECS 4314 FreeBSD Analysis - BitTheory</text><!--SRC=[hLRTRzCm47_FNt4AKc5IMq1C0kq1QSlADYIsYO9uwOkRN1k3OsUsqov2_E-SqxHrlYOGzA5gVL-_-zsTpvPRWH2fB5CIBZ57cQ2CIvWzMirYJeTt6zGRZjiWHPQWXjaiciFfczUdy44ZNimluLmoKHfkO08Nt7v9KUao2CmFBdEcMGO_WtEjrJPIGcbuTl7s5Ns2u3osIb-m-CTQgq8cjVJ3k-WoYcgXqXImPNQhB0vPLR8-etkcBOzvpgGTilLL_blSIsRPafb1muEyn_XN43370bJVGNx41-4QvIHMqZ8kCvHscfTXKs75gIOD5PEsL1x4z3lJhSDO89CJlfPAOz9rAym44zxZJ1XthlJEPI29453KE3lmuvR26PmRKsHemAO8OQZPTcfP6CAAKpEcp00JchgjX2MY1CeMDREOZ879fB8f3FbsYix2WCQ7WXDYM9RahiwCmeIXYLFCs9IPpIx2YCvOajJCJ1z46Evvdhpl9VOCxhNQy8J2j92E3nCmLuMEaPpFYwKfZSKCFixlRYijvvrl27v_sIggD5-dzgpF6cfziv0kRtFGaCpnbx4ynuHa2jP2BI5drgAMZbXcIMefVJ8zcbLyJOC-ACC4H5GCXp-SrgAQW0RuZXJeHc0EuKAgLGSv8QwK275g1l0GeAeqPtGTSMlWHLm1IRgnJe84d-RPhtBlT3JgV7G_xlJdo6inhxZz8nVqdrSmQYT_4dYqa9s-tPN0pxiVmb6-7_bW_wi9uwgUCuU3d1nJRjMv8NDLze1kkKqTLgy-6UerrOox9kNM3_v4BUuAcnVMU3q2AwqoBvGR2EhnBMgKposvRx3Nu6MVzxyKQm3dDyqTOQg2wvew3FUtftsqXEFlNUwchMe6OGQBu8jsaqQEOZAKpBgrJIFNkVqMqjsVvFTGhXU4E5Tv8NRpFO-kPvzcT4xNYERBWc2yj4KkS25Trz_SNiy-ttovYKZbP32p9wQsGStORwLHAoLpyWUTxOrqPt4rfgf1rgXJesESxlxh7Wt5Sm-bxQuTZX4rPeH2ha5mYQRksJgFUdbLdTjgcfwW7LgFGQZyKcrXLGXHGgwHLZCcJGAxYNdaUMkzHPktjBirydZp7mR-dzfzO_VFBRqS3E5KQ_Swp9anZg2MRn-yxzq_RRmvclzzlWuPNNszWHNbd72J2rQwgCd-oSlH_0O0]--></g></svg>