<?xml version="1.0" encoding="us-ascii" standalone="no"?><svg xmlns="http://www.w3.org/2000/svg" xmlns:xlink="http://www.w3.org/1999/xlink" contentStyleType="text/css" height="841px" preserveAspectRatio="none" style="width:805px;height:841px;background:#FFFFFF;" version="1.1" viewBox="0 0 805 841" width="805px" zoomAndPan="magnify"><defs/><g><text fill="#000000" font-family="monospace" font-size="14" font-weight="bold" lengthAdjust="spacing" textLength="48" x="226" y="40.5486">raw.ta</text><text fill="#000000" font-family="sans-serif" font-size="14" font-weight="bold" lengthAdjust="spacing" textLength="292" x="279" y="41.1388">Generation: Custom Include Method</text><rect fill="#FFFFFF" height="554.0946" style="stroke:#181818;stroke-width:1.0;" width="10" x="331" y="188.5695"/><rect fill="none" height="369.3297" style="stroke:#000000;stroke-width:1.5;" width="559" x="229" y="287.0015"/><rect fill="none" height="338.1969" style="stroke:#000000;stroke-width:1.5;" width="539" x="239" y="311.1343"/><rect fill="none" height="249.3313" style="stroke:#000000;stroke-width:1.5;" width="519" x="249" y="393"/><rect fill="none" height="175.5985" style="stroke:#000000;stroke-width:1.5;" width="499" x="259" y="459.7328"/><rect fill="none" height="102.3328" style="stroke:#000000;stroke-width:1.5;" width="479" x="269" y="525.9984"/><line style="stroke:#181818;stroke-width:0.5;stroke-dasharray:5.0,5.0;" x1="27" x2="27" y1="131.7374" y2="760.6641"/><line style="stroke:#181818;stroke-width:0.5;stroke-dasharray:5.0,5.0;" x1="336" x2="336" y1="131.7374" y2="760.6641"/><text fill="#000000" font-family="sans-serif" font-size="14" lengthAdjust="spacing" textLength="38" x="5" y="128.4357">actor</text><ellipse cx="27" cy="63.9406" fill="#F8CDCC" rx="8" ry="8" style="stroke:#B70000;stroke-width:0.5;"/><path d="M27,71.9406 L27,98.9406 M14,79.9406 L40,79.9406 M27,98.9406 L14,113.9406 M27,98.9406 L40,113.9406 " fill="none" style="stroke:#B70000;stroke-width:0.5;"/><text fill="#000000" font-family="sans-serif" font-size="14" lengthAdjust="spacing" textLength="38" x="5" y="772.6592">actor</text><ellipse cx="27" cy="784.461" fill="#F8CDCC" rx="8" ry="8" style="stroke:#B70000;stroke-width:0.5;"/><path d="M27,792.461 L27,819.461 M14,800.461 L40,800.461 M27,819.461 L14,834.461 M27,819.461 L40,834.461 " fill="none" style="stroke:#B70000;stroke-width:0.5;"/><rect fill="#F8CDCC" height="30.2969" rx="2.5" ry="2.5" style="stroke:#B70000;stroke-width:0.5;" width="114" x="279" y="100.4406"/><text fill="#000000" font-family="sans-serif" font-size="14" lengthAdjust="spacing" textLength="100" x="286" y="120.4357">gen-ta-file.py</text><rect fill="#F8CDCC" height="30.2969" rx="2.5" ry="2.5" style="stroke:#B70000;stroke-width:0.5;" width="114" x="279" y="759.6641"/><text fill="#000000" font-family="sans-serif" font-size="14" lengthAdjust="spacing" textLength="100" x="286" y="779.6592">gen-ta-file.py</text><rect fill="#FFFFFF" height="554.0946" style="stroke:#181818;stroke-width:1.0;" width="10" x="331" y="188.5695"/><polygon fill="#B70000" points="319,184.5695,329,188.5695,319,192.5695,323,188.5695" style="stroke:#B70000;stroke-width:1.0;"/><line style="stroke:#B70000;stroke-width:1.0;" x1="27" x2="325" y1="188.5695" y2="188.5695"/><text fill="#000000" font-family="sans-serif" font-size="13" lengthAdjust="spacing" textLength="285" x="34" y="183.5035">Provides Subsystem JSON &amp; FreeBSD source</text><path d="M346,146.7374 L346,216.7374 L568,216.7374 L568,156.7374 L558,146.7374 L346,146.7374 " fill="#F8CDCC" style="stroke:#B70000;stroke-width:0.5;"/><path d="M558,146.7374 L558,156.7374 L568,156.7374 L558,146.7374 " fill="#F8CDCC" style="stroke:#B70000;stroke-width:0.5;"/><text fill="#000000" font-family="sans-serif" font-size="13" lengthAdjust="spacing" textLength="188" x="352" y="163.8043">Subsystem JSON file contains</text><text fill="#000000" font-family="sans-serif" font-size="13" lengthAdjust="spacing" textLength="201" x="352" y="178.9371">the subsystem names mapped</text><text fill="#000000" font-family="sans-serif" font-size="13" lengthAdjust="spacing" textLength="192" x="352" y="194.0699">to glob patterns that matches</text><text fill="#000000" font-family="sans-serif" font-size="13" lengthAdjust="spacing" textLength="101" x="352" y="209.2028">subsystem files</text><line style="stroke:#B70000;stroke-width:1.0;" x1="341" x2="383" y1="259.0015" y2="259.0015"/><line style="stroke:#B70000;stroke-width:1.0;" x1="383" x2="383" y1="259.0015" y2="272.0015"/><line style="stroke:#B70000;stroke-width:1.0;" x1="342" x2="383" y1="272.0015" y2="272.0015"/><polygon fill="#B70000" points="352,268.0015,342,272.0015,352,276.0015,348,272.0015" style="stroke:#B70000;stroke-width:1.0;"/><text fill="#000000" font-family="sans-serif" font-size="13" lengthAdjust="spacing" textLength="79" x="348" y="238.8028">Create dict (</text><text fill="#000000" font-family="monospace" font-size="13" lengthAdjust="spacing" textLength="88" x="427" y="238.3067">header_dirs</text><text fill="#000000" font-family="sans-serif" font-size="13" lengthAdjust="spacing" textLength="259" x="515" y="238.8028">) of directories to header files it contains</text><text fill="#000000" font-family="sans-serif" font-size="13" lengthAdjust="spacing" textLength="201" x="348" y="253.9356">via walking the FreeBSD source</text><path d="M229,287.0015 L307,287.0015 L307,294.1343 L297,304.1343 L229,304.1343 L229,287.0015 " fill="#EEEEEE" style="stroke:#000000;stroke-width:1.5;"/><rect fill="none" height="369.3297" style="stroke:#000000;stroke-width:1.5;" width="559" x="229" y="287.0015"/><text fill="#000000" font-family="sans-serif" font-size="13" font-weight="bold" lengthAdjust="spacing" textLength="33" x="244" y="300.0684">loop</text><text fill="#000000" font-family="sans-serif" font-size="11" font-weight="bold" lengthAdjust="spacing" textLength="143" x="322" y="299.212">[For each Subsystem]</text><path d="M239,311.1343 L317,311.1343 L317,318.2671 L307,328.2671 L239,328.2671 L239,311.1343 " fill="#EEEEEE" style="stroke:#000000;stroke-width:1.5;"/><rect fill="none" height="338.1969" style="stroke:#000000;stroke-width:1.5;" width="539" x="239" y="311.1343"/><text fill="#000000" font-family="sans-serif" font-size="13" font-weight="bold" lengthAdjust="spacing" textLength="33" x="254" y="324.2012">loop</text><text fill="#000000" font-family="sans-serif" font-size="11" font-weight="bold" lengthAdjust="spacing" textLength="327" x="332" y="323.3448">[For each Glob Pattern Matching the Subsystem]</text><line style="stroke:#B70000;stroke-width:1.0;" x1="341" x2="383" y1="365" y2="365"/><line style="stroke:#B70000;stroke-width:1.0;" x1="383" x2="383" y1="365" y2="378"/><line style="stroke:#B70000;stroke-width:1.0;" x1="342" x2="383" y1="378" y2="378"/><polygon fill="#B70000" points="352,374,342,378,352,382,348,378" style="stroke:#B70000;stroke-width:1.0;"/><text fill="#000000" font-family="sans-serif" font-size="13" lengthAdjust="spacing" textLength="44" x="348" y="344.8012">Find all</text><text fill="#000000" font-family="monospace" font-size="13" lengthAdjust="spacing" textLength="8" x="396" y="344.3051">c</text><text fill="#000000" font-family="sans-serif" font-size="13" lengthAdjust="spacing" textLength="4" x="404" y="344.8012">,</text><text fill="#000000" font-family="monospace" font-size="13" lengthAdjust="spacing" textLength="24" x="412" y="344.3051">cpp</text><text fill="#000000" font-family="sans-serif" font-size="13" lengthAdjust="spacing" textLength="10" x="440" y="344.8012">&amp;</text><text fill="#000000" font-family="monospace" font-size="13" lengthAdjust="spacing" textLength="16" x="454" y="344.3051">.h</text><text fill="#000000" font-family="sans-serif" font-size="13" lengthAdjust="spacing" textLength="197" x="348" y="359.934">files matching the glob pattern</text><path d="M249,393 L327,393 L327,400.1328 L317,410.1328 L249,410.1328 L249,393 " fill="#EEEEEE" style="stroke:#000000;stroke-width:1.5;"/><rect fill="none" height="249.3313" style="stroke:#000000;stroke-width:1.5;" width="519" x="249" y="393"/><text fill="#000000" font-family="sans-serif" font-size="13" font-weight="bold" lengthAdjust="spacing" textLength="33" x="264" y="406.0668">loop</text><text fill="#000000" font-family="sans-serif" font-size="11" font-weight="bold" lengthAdjust="spacing" textLength="160" x="342" y="405.2104">[For each matching file]</text><line style="stroke:#B70000;stroke-width:1.0;" x1="341" x2="383" y1="431.7328" y2="431.7328"/><line style="stroke:#B70000;stroke-width:1.0;" x1="383" x2="383" y1="431.7328" y2="444.7328"/><line style="stroke:#B70000;stroke-width:1.0;" x1="342" x2="383" y1="444.7328" y2="444.7328"/><polygon fill="#B70000" points="352,440.7328,342,444.7328,352,448.7328,348,444.7328" style="stroke:#B70000;stroke-width:1.0;"/><text fill="#000000" font-family="sans-serif" font-size="13" lengthAdjust="spacing" textLength="98" x="348" y="426.6669">Add file path to</text><text fill="#000000" font-family="monospace" font-size="13" lengthAdjust="spacing" textLength="64" x="450" y="426.1708">INSTANCE</text><text fill="#000000" font-family="sans-serif" font-size="13" lengthAdjust="spacing" textLength="34" x="518" y="426.6669">array</text><path d="M259,459.7328 L337,459.7328 L337,466.8656 L327,476.8656 L259,476.8656 L259,459.7328 " fill="#EEEEEE" style="stroke:#000000;stroke-width:1.5;"/><rect fill="none" height="175.5985" style="stroke:#000000;stroke-width:1.5;" width="499" x="259" y="459.7328"/><text fill="#000000" font-family="sans-serif" font-size="13" font-weight="bold" lengthAdjust="spacing" textLength="33" x="274" y="472.7997">loop</text><text fill="#000000" font-family="sans-serif" font-size="11" font-weight="bold" lengthAdjust="spacing" textLength="138" x="352" y="471.9432">[For each line in file]</text><line style="stroke:#B70000;stroke-width:1.0;" x1="341" x2="383" y1="497.9984" y2="497.9984"/><line style="stroke:#B70000;stroke-width:1.0;" x1="383" x2="383" y1="497.9984" y2="510.9984"/><line style="stroke:#B70000;stroke-width:1.0;" x1="342" x2="383" y1="510.9984" y2="510.9984"/><polygon fill="#B70000" points="352,506.9984,342,510.9984,352,514.9984,348,510.9984" style="stroke:#B70000;stroke-width:1.0;"/><text fill="#000000" font-family="sans-serif" font-size="13" lengthAdjust="spacing" textLength="281" x="348" y="492.9325">Use regex to get the dependency if it exists</text><path d="M269,525.9984 L335,525.9984 L335,533.1312 L325,543.1312 L269,543.1312 L269,525.9984 " fill="#EEEEEE" style="stroke:#000000;stroke-width:1.5;"/><rect fill="none" height="102.3328" style="stroke:#000000;stroke-width:1.5;" width="479" x="269" y="525.9984"/><text fill="#000000" font-family="sans-serif" font-size="13" font-weight="bold" lengthAdjust="spacing" textLength="21" x="284" y="539.0653">alt</text><text fill="#000000" font-family="sans-serif" font-size="11" font-weight="bold" lengthAdjust="spacing" textLength="153" x="350" y="538.6041">[Dependency found (ie.</text><text fill="#000000" font-family="monospace" font-size="11" font-weight="bold" lengthAdjust="spacing" textLength="105" x="507" y="538.1403">include&#160;&lt;foo.h&gt;</text><text fill="#000000" font-family="sans-serif" font-size="11" font-weight="bold" lengthAdjust="spacing" textLength="10" x="612" y="538.6041">)]</text><line style="stroke:#B70000;stroke-width:1.0;" x1="341" x2="383" y1="564.7312" y2="564.7312"/><line style="stroke:#B70000;stroke-width:1.0;" x1="383" x2="383" y1="564.7312" y2="577.7312"/><line style="stroke:#B70000;stroke-width:1.0;" x1="342" x2="383" y1="577.7312" y2="577.7312"/><polygon fill="#B70000" points="352,573.7312,342,577.7312,352,581.7312,348,577.7312" style="stroke:#B70000;stroke-width:1.0;"/><text fill="#000000" font-family="sans-serif" font-size="13" lengthAdjust="spacing" textLength="147" x="348" y="559.6653">Get headers path from</text><text fill="#000000" font-family="monospace" font-size="13" lengthAdjust="spacing" textLength="88" x="499" y="559.1692">header_dirs</text><text fill="#000000" font-family="sans-serif" font-size="13" lengthAdjust="spacing" textLength="120" x="591" y="559.6653">dict created earlier</text><line style="stroke:#B70000;stroke-width:1.0;" x1="341" x2="383" y1="607.3312" y2="607.3312"/><line style="stroke:#B70000;stroke-width:1.0;" x1="383" x2="383" y1="607.3312" y2="620.3312"/><line style="stroke:#B70000;stroke-width:1.0;" x1="342" x2="383" y1="620.3312" y2="620.3312"/><polygon fill="#B70000" points="352,616.3312,342,620.3312,352,624.3312,348,620.3312" style="stroke:#B70000;stroke-width:1.0;"/><text fill="#000000" font-family="sans-serif" font-size="13" lengthAdjust="spacing" textLength="309" x="348" y="602.2653">Add original file path, and dependent file path to</text><text fill="#000000" font-family="monospace" font-size="13" lengthAdjust="spacing" textLength="48" x="661" y="601.7692">CLinks</text><text fill="#000000" font-family="sans-serif" font-size="13" lengthAdjust="spacing" textLength="23" x="713" y="602.2653">dict</text><line style="stroke:#B70000;stroke-width:1.0;" x1="341" x2="383" y1="700.5313" y2="700.5313"/><line style="stroke:#B70000;stroke-width:1.0;" x1="383" x2="383" y1="700.5313" y2="713.5313"/><line style="stroke:#B70000;stroke-width:1.0;" x1="342" x2="383" y1="713.5313" y2="713.5313"/><polygon fill="#B70000" points="352,709.5313,342,713.5313,352,717.5313,348,713.5313" style="stroke:#B70000;stroke-width:1.0;"/><text fill="#000000" font-family="sans-serif" font-size="13" lengthAdjust="spacing" textLength="34" x="348" y="679.8653">Write</text><text fill="#000000" font-family="monospace" font-size="13" lengthAdjust="spacing" textLength="56" x="386" y="679.3693">.raw.ta</text><text fill="#000000" font-family="sans-serif" font-size="13" lengthAdjust="spacing" textLength="19" x="446" y="679.8653">file</text><text fill="#000000" font-family="sans-serif" font-size="13" lengthAdjust="spacing" textLength="27" x="348" y="695.4654">with</text><text fill="#000000" font-family="monospace" font-size="13" lengthAdjust="spacing" textLength="64" x="379" y="694.9693">INSTANCE</text><text fill="#000000" font-family="sans-serif" font-size="13" lengthAdjust="spacing" textLength="48" x="447" y="695.4654">array &amp;</text><text fill="#000000" font-family="monospace" font-size="13" lengthAdjust="spacing" textLength="48" x="499" y="694.9693">CLinks</text><text fill="#000000" font-family="sans-serif" font-size="13" lengthAdjust="spacing" textLength="23" x="551" y="695.4654">dict</text><polygon fill="#B70000" points="38,738.6641,28,742.6641,38,746.6641,34,742.6641" style="stroke:#B70000;stroke-width:1.0;"/><line style="stroke:#B70000;stroke-width:1.0;stroke-dasharray:2.0,2.0;" x1="32" x2="335" y1="742.6641" y2="742.6641"/><text fill="#000000" font-family="sans-serif" font-size="13" lengthAdjust="spacing" textLength="31" x="44" y="737.5982">Exits</text><text fill="#888888" font-family="sans-serif" font-size="10" lengthAdjust="spacing" textLength="215" x="582" y="14.2822">EECS 4314 FreeBSD Analysis - BitTheory</text><!--SRC=[hLLjQzim4FxkNt5eK3femiOA6s4K4YSf7LjMICU-5CRLkjX77Sb8IjCmzjztSbwT5sZ73BPZJiyzpzqzKWA7aa0fX_DsGANWcWmv36nD1zAP3tOADoOhPvhW6uN2wgGWrEHWC4Z7SFdX_IKC7L5lt8UkmNBXsKCBUXpk2h9kaIJ-aKs53gVmE-awP-UfBQs3DxsFx-HAacuMhEjXzfWxEpDw5Hr-IljfkWfQ9uHxi94DT0fLnuw1Rj45phX24qvXTvVyDzu-1dn0VnAuYHy1_qaIZ5s0-hd-Q5s1oicq0hOcN5AxMgWEt3hxn9eyZ6SFVk43JU7B-Fi8pZOZydRcCeev-0a37UH8Z9G0ZlCYTFQpn3MGMHEGZRyteI3mcnK6fy8xnQeYBJ4BUMaVeC8Go1aFeS0WqP0L9D0jBERqIR8lutXvgQEeMNCMu5offGz_QNPUgRTW9n9n5Bl38aKah8nQSm277UrFZ337KfoPGwnZhpr9QMq5GsapOLPi-v20NCtOTIppTbacV8i5hdCsKI-hSCX60vQbRCXCgOlugYhPb6VogrqeTM-MnKntYNOxVKJXPcs4rl6Nw-bglHoxf2zYIvMw6OtlkgDq8AhGELniCkxHbcm8s3HPNq7zmuiFAQVdI9jJg4lLL97HPB85y2IEb9xP1z_CZsM0_dRX96utE6TgYtfU7MMV9zQsYolnJHFx2e7NecdfCBzipyJ9MRbdowLPizguMXhZIYRtpvHn7EBkdEMWtSxb0b0ANBScx0yi_ShcSIsbIIs0vE1Zzntl5sxEduxZUQBQct-I6BitSnOXXxQfBTsKTiWZHFLfru71CykODPqykFu2]--></g></svg>