<?xml version="1.0" encoding="us-ascii" standalone="no"?><svg xmlns="http://www.w3.org/2000/svg" xmlns:xlink="http://www.w3.org/1999/xlink" contentStyleType="text/css" height="1082px" preserveAspectRatio="none" style="width:1196px;height:1082px;background:#FFFFFF;" version="1.1" viewBox="0 0 1196 1082" width="1196px" zoomAndPan="magnify"><defs/><g><text fill="#000000" font-family="monospace" font-size="14" font-weight="bold" lengthAdjust="spacing" textLength="48" x="428" y="40.5486">raw.ta</text><text fill="#000000" font-family="sans-serif" font-size="14" font-weight="bold" lengthAdjust="spacing" textLength="279" x="481" y="41.1388">Generation: SrcML Include Method</text><rect fill="#FFFFFF" height="86.3984" style="stroke:#181818;stroke-width:1.0;" width="10" x="442" y="178.4703"/><rect fill="#FFFFFF" height="86.8656" style="stroke:#181818;stroke-width:1.0;" width="10" x="442" y="310.0687"/><rect fill="#FFFFFF" height="531.3282" style="stroke:#181818;stroke-width:1.0;" width="10" x="726" y="452"/><rect fill="none" height="264.9313" style="stroke:#000000;stroke-width:1.5;" width="547.5" x="621.5" y="632.0641"/><rect fill="none" height="176.0657" style="stroke:#000000;stroke-width:1.5;" width="527.5" x="631.5" y="713.9297"/><rect fill="none" height="102.3328" style="stroke:#000000;stroke-width:1.5;" width="507.5" x="641.5" y="780.6625"/><line style="stroke:#181818;stroke-width:0.5;stroke-dasharray:5.0,5.0;" x1="42" x2="42" y1="131.7374" y2="1001.3282"/><line style="stroke:#181818;stroke-width:0.5;stroke-dasharray:5.0,5.0;" x1="446.5" x2="446.5" y1="131.7374" y2="1001.3282"/><line style="stroke:#181818;stroke-width:0.5;stroke-dasharray:5.0,5.0;" x1="730.5" x2="730.5" y1="131.7374" y2="1001.3282"/><text fill="#000000" font-family="sans-serif" font-size="14" lengthAdjust="spacing" textLength="38" x="20" y="128.4357">actor</text><ellipse cx="42" cy="63.9406" fill="#F8CDCC" rx="8" ry="8" style="stroke:#B70000;stroke-width:0.5;"/><path d="M42,71.9406 L42,98.9406 M29,79.9406 L55,79.9406 M42,98.9406 L29,113.9406 M42,98.9406 L55,113.9406 " fill="none" style="stroke:#B70000;stroke-width:0.5;"/><text fill="#000000" font-family="sans-serif" font-size="14" lengthAdjust="spacing" textLength="38" x="20" y="1013.3233">actor</text><ellipse cx="42" cy="1025.1251" fill="#F8CDCC" rx="8" ry="8" style="stroke:#B70000;stroke-width:0.5;"/><path d="M42,1033.1251 L42,1060.1251 M29,1041.1251 L55,1041.1251 M42,1060.1251 L29,1075.1251 M42,1060.1251 L55,1075.1251 " fill="none" style="stroke:#B70000;stroke-width:0.5;"/><rect fill="#F8CDCC" height="30.2969" rx="2.5" ry="2.5" style="stroke:#B70000;stroke-width:0.5;" width="53" x="420.5" y="100.4406"/><text fill="#000000" font-family="sans-serif" font-size="14" lengthAdjust="spacing" textLength="39" x="427.5" y="120.4357">srcml</text><rect fill="#F8CDCC" height="30.2969" rx="2.5" ry="2.5" style="stroke:#B70000;stroke-width:0.5;" width="53" x="420.5" y="1000.3282"/><text fill="#000000" font-family="sans-serif" font-size="14" lengthAdjust="spacing" textLength="39" x="427.5" y="1020.3233">srcml</text><rect fill="#F8CDCC" height="30.2969" rx="2.5" ry="2.5" style="stroke:#B70000;stroke-width:0.5;" width="159" x="651.5" y="100.4406"/><text fill="#000000" font-family="sans-serif" font-size="14" lengthAdjust="spacing" textLength="145" x="658.5" y="120.4357">gen-ta-file-srcml.py</text><rect fill="#F8CDCC" height="30.2969" rx="2.5" ry="2.5" style="stroke:#B70000;stroke-width:0.5;" width="159" x="651.5" y="1000.3282"/><text fill="#000000" font-family="sans-serif" font-size="14" lengthAdjust="spacing" textLength="145" x="658.5" y="1020.3233">gen-ta-file-srcml.py</text><rect fill="#FFFFFF" height="86.3984" style="stroke:#181818;stroke-width:1.0;" width="10" x="442" y="178.4703"/><rect fill="#FFFFFF" height="86.8656" style="stroke:#181818;stroke-width:1.0;" width="10" x="442" y="310.0687"/><rect fill="#FFFFFF" height="531.3282" style="stroke:#181818;stroke-width:1.0;" width="10" x="726" y="452"/><polygon fill="#B70000" points="430,174.4703,440,178.4703,430,182.4703,434,178.4703" style="stroke:#B70000;stroke-width:1.0;"/><line style="stroke:#B70000;stroke-width:1.0;" x1="42" x2="436" y1="178.4703" y2="178.4703"/><text fill="#000000" font-family="sans-serif" font-size="13" lengthAdjust="spacing" textLength="160" x="49" y="157.8043">Provides FreeBSD source</text><text fill="#000000" font-family="sans-serif" font-size="13" lengthAdjust="spacing" textLength="98" x="49" y="173.4043">&amp; ouput file (ie.</text><text fill="#000000" font-family="monospace" font-size="13" lengthAdjust="spacing" textLength="88" x="151" y="172.9082">freebsd.xml</text><text fill="#000000" font-family="sans-serif" font-size="13" lengthAdjust="spacing" textLength="5" x="239" y="173.4043">)</text><line style="stroke:#B70000;stroke-width:1.0;" x1="452" x2="494" y1="222.7359" y2="222.7359"/><line style="stroke:#B70000;stroke-width:1.0;" x1="494" x2="494" y1="222.7359" y2="235.7359"/><line style="stroke:#B70000;stroke-width:1.0;" x1="453" x2="494" y1="235.7359" y2="235.7359"/><polygon fill="#B70000" points="463,231.7359,453,235.7359,463,239.7359,459,235.7359" style="stroke:#B70000;stroke-width:1.0;"/><text fill="#000000" font-family="sans-serif" font-size="13" lengthAdjust="spacing" textLength="172" x="459" y="202.5371">Parses source code to XML</text><text fill="#000000" font-family="sans-serif" font-size="13" lengthAdjust="spacing" textLength="139" x="459" y="217.67">&amp; writes to output file</text><polygon fill="#B70000" points="53,260.8687,43,264.8687,53,268.8687,49,264.8687" style="stroke:#B70000;stroke-width:1.0;"/><line style="stroke:#B70000;stroke-width:1.0;stroke-dasharray:2.0,2.0;" x1="47" x2="446" y1="264.8687" y2="264.8687"/><text fill="#000000" font-family="sans-serif" font-size="13" lengthAdjust="spacing" textLength="31" x="59" y="259.8028">Exits</text><polygon fill="#B70000" points="430,306.0687,440,310.0687,430,314.0687,434,310.0687" style="stroke:#B70000;stroke-width:1.0;"/><line style="stroke:#B70000;stroke-width:1.0;" x1="42" x2="436" y1="310.0687" y2="310.0687"/><text fill="#000000" font-family="sans-serif" font-size="13" lengthAdjust="spacing" textLength="55" x="49" y="289.4028">Provides</text><text fill="#000000" font-family="monospace" font-size="13" lengthAdjust="spacing" textLength="88" x="108" y="288.9067">freebsd.xml</text><text fill="#000000" font-family="sans-serif" font-size="13" lengthAdjust="spacing" textLength="97" x="196" y="289.4028">, output file (ie.</text><text fill="#000000" font-family="monospace" font-size="13" lengthAdjust="spacing" textLength="128" x="297" y="288.9067">dependencies.xml</text><text fill="#000000" font-family="sans-serif" font-size="13" lengthAdjust="spacing" textLength="5" x="425" y="289.4028">)</text><text fill="#000000" font-family="sans-serif" font-size="13" lengthAdjust="spacing" textLength="24" x="53" y="305.0028">and</text><text fill="#000000" font-family="monospace" font-size="13" lengthAdjust="spacing" textLength="40" x="81" y="304.5067">xpath</text><text fill="#000000" font-family="sans-serif" font-size="13" lengthAdjust="spacing" textLength="154" x="125" y="305.0028">to get file dependenices</text><path d="M457,282.6687 L457,307.6687 L997,307.6687 L997,292.6687 L987,282.6687 L457,282.6687 " fill="#F8CDCC" style="stroke:#B70000;stroke-width:0.5;"/><path d="M987,282.6687 L987,292.6687 L997,292.6687 L987,282.6687 " fill="#F8CDCC" style="stroke:#B70000;stroke-width:0.5;"/><text fill="#000000" font-family="sans-serif" font-size="13" lengthAdjust="spacing" textLength="51" x="463" y="300.2028">xpath is</text><text fill="#000000" font-family="monospace" font-size="13" font-style="italic" lengthAdjust="spacing" textLength="296" x="518" y="300.1877">src:unit[@type='include']/@filename&#160;|</text><text fill="#000000" font-family="monospace" font-size="13" lengthAdjust="spacing" textLength="160" x="822" y="299.7067">cpp:include/cpp:file</text><line style="stroke:#B70000;stroke-width:1.0;" x1="452" x2="494" y1="354.8015" y2="354.8015"/><line style="stroke:#B70000;stroke-width:1.0;" x1="494" x2="494" y1="354.8015" y2="367.8015"/><line style="stroke:#B70000;stroke-width:1.0;" x1="453" x2="494" y1="367.8015" y2="367.8015"/><polygon fill="#B70000" points="463,363.8015,453,367.8015,463,371.8015,459,367.8015" style="stroke:#B70000;stroke-width:1.0;"/><text fill="#000000" font-family="sans-serif" font-size="13" lengthAdjust="spacing" textLength="168" x="459" y="334.6028">Writes xml elements from</text><text fill="#000000" font-family="monospace" font-size="13" lengthAdjust="spacing" textLength="88" x="631" y="334.1067">freebsd.xml</text><text fill="#000000" font-family="sans-serif" font-size="13" lengthAdjust="spacing" textLength="212" x="459" y="349.7356">matching the xpath to output file</text><polygon fill="#B70000" points="53,392.9344,43,396.9344,53,400.9344,49,396.9344" style="stroke:#B70000;stroke-width:1.0;"/><line style="stroke:#B70000;stroke-width:1.0;stroke-dasharray:2.0,2.0;" x1="47" x2="446" y1="396.9344" y2="396.9344"/><text fill="#000000" font-family="sans-serif" font-size="13" lengthAdjust="spacing" textLength="31" x="59" y="391.8684">Exits</text><polygon fill="#B70000" points="714,448,724,452,714,456,718,452" style="stroke:#B70000;stroke-width:1.0;"/><line style="stroke:#B70000;stroke-width:1.0;" x1="42" x2="720" y1="452" y2="452"/><text fill="#000000" font-family="sans-serif" font-size="13" lengthAdjust="spacing" textLength="170" x="49" y="446.9341">Provides Subsystem JSON,</text><text fill="#000000" font-family="monospace" font-size="13" lengthAdjust="spacing" textLength="128" x="223" y="446.438">dependencies.xml</text><text fill="#000000" font-family="sans-serif" font-size="13" lengthAdjust="spacing" textLength="123" x="351" y="446.9341">, &amp; FreeBSD source</text><path d="M741,409.9344 L741,479.9344 L963,479.9344 L963,419.9344 L953,409.9344 L741,409.9344 " fill="#F8CDCC" style="stroke:#B70000;stroke-width:0.5;"/><path d="M953,409.9344 L953,419.9344 L963,419.9344 L953,409.9344 " fill="#F8CDCC" style="stroke:#B70000;stroke-width:0.5;"/><text fill="#000000" font-family="sans-serif" font-size="13" lengthAdjust="spacing" textLength="188" x="747" y="427.0013">Subsystem JSON file contains</text><text fill="#000000" font-family="sans-serif" font-size="13" lengthAdjust="spacing" textLength="201" x="747" y="442.1341">the subsystem names mapped</text><text fill="#000000" font-family="sans-serif" font-size="13" lengthAdjust="spacing" textLength="192" x="747" y="457.2669">to glob patterns that matches</text><text fill="#000000" font-family="sans-serif" font-size="13" lengthAdjust="spacing" textLength="101" x="747" y="472.3997">subsystem files</text><line style="stroke:#B70000;stroke-width:1.0;" x1="736" x2="778" y1="522.1984" y2="522.1984"/><line style="stroke:#B70000;stroke-width:1.0;" x1="778" x2="778" y1="522.1984" y2="535.1984"/><line style="stroke:#B70000;stroke-width:1.0;" x1="737" x2="778" y1="535.1984" y2="535.1984"/><polygon fill="#B70000" points="747,531.1984,737,535.1984,747,539.1984,743,535.1984" style="stroke:#B70000;stroke-width:1.0;"/><text fill="#000000" font-family="sans-serif" font-size="13" lengthAdjust="spacing" textLength="79" x="743" y="501.9997">Create dict (</text><text fill="#000000" font-family="monospace" font-size="13" lengthAdjust="spacing" textLength="88" x="822" y="501.5036">header_dirs</text><text fill="#000000" font-family="sans-serif" font-size="13" lengthAdjust="spacing" textLength="259" x="910" y="501.9997">) of directories to header files it contains</text><text fill="#000000" font-family="sans-serif" font-size="13" lengthAdjust="spacing" textLength="201" x="743" y="517.1325">via walking the FreeBSD source</text><line style="stroke:#B70000;stroke-width:1.0;" x1="736" x2="778" y1="579.9313" y2="579.9313"/><line style="stroke:#B70000;stroke-width:1.0;" x1="778" x2="778" y1="579.9313" y2="592.9313"/><line style="stroke:#B70000;stroke-width:1.0;" x1="737" x2="778" y1="592.9313" y2="592.9313"/><polygon fill="#B70000" points="747,588.9313,737,592.9313,747,596.9313,743,592.9313" style="stroke:#B70000;stroke-width:1.0;"/><text fill="#000000" font-family="sans-serif" font-size="13" lengthAdjust="spacing" textLength="36" x="743" y="559.7325">Parse</text><text fill="#000000" font-family="monospace" font-size="13" lengthAdjust="spacing" textLength="128" x="783" y="559.2364">dependencies.xml</text><text fill="#000000" font-family="sans-serif" font-size="13" lengthAdjust="spacing" textLength="72" x="915" y="559.7325">into a dict (</text><text fill="#000000" font-family="monospace" font-size="13" lengthAdjust="spacing" textLength="88" x="987" y="559.2364">include_map</text><text fill="#000000" font-family="sans-serif" font-size="13" lengthAdjust="spacing" textLength="69" x="1075" y="559.7325">) of files to</text><text fill="#000000" font-family="sans-serif" font-size="13" lengthAdjust="spacing" textLength="122" x="743" y="574.8653">their dependencies</text><path d="M621.5,632.0641 L699.5,632.0641 L699.5,639.1969 L689.5,649.1969 L621.5,649.1969 L621.5,632.0641 " fill="#EEEEEE" style="stroke:#000000;stroke-width:1.5;"/><rect fill="none" height="264.9313" style="stroke:#000000;stroke-width:1.5;" width="547.5" x="621.5" y="632.0641"/><text fill="#000000" font-family="sans-serif" font-size="13" font-weight="bold" lengthAdjust="spacing" textLength="33" x="636.5" y="645.131">loop</text><text fill="#000000" font-family="sans-serif" font-size="11" font-weight="bold" lengthAdjust="spacing" textLength="327" x="714.5" y="644.2745">[For each Glob Pattern Matching the Subsystem]</text><line style="stroke:#B70000;stroke-width:1.0;" x1="736" x2="778" y1="685.9297" y2="685.9297"/><line style="stroke:#B70000;stroke-width:1.0;" x1="778" x2="778" y1="685.9297" y2="698.9297"/><line style="stroke:#B70000;stroke-width:1.0;" x1="737" x2="778" y1="698.9297" y2="698.9297"/><polygon fill="#B70000" points="747,694.9297,737,698.9297,747,702.9297,743,698.9297" style="stroke:#B70000;stroke-width:1.0;"/><text fill="#000000" font-family="sans-serif" font-size="13" lengthAdjust="spacing" textLength="44" x="743" y="665.731">Find all</text><text fill="#000000" font-family="monospace" font-size="13" lengthAdjust="spacing" textLength="8" x="791" y="665.2349">c</text><text fill="#000000" font-family="sans-serif" font-size="13" lengthAdjust="spacing" textLength="4" x="799" y="665.731">,</text><text fill="#000000" font-family="monospace" font-size="13" lengthAdjust="spacing" textLength="24" x="807" y="665.2349">cpp</text><text fill="#000000" font-family="sans-serif" font-size="13" lengthAdjust="spacing" textLength="10" x="835" y="665.731">&amp;</text><text fill="#000000" font-family="monospace" font-size="13" lengthAdjust="spacing" textLength="16" x="849" y="665.2349">.h</text><text fill="#000000" font-family="sans-serif" font-size="13" lengthAdjust="spacing" textLength="197" x="743" y="680.8638">files matching the glob pattern</text><path d="M631.5,713.9297 L709.5,713.9297 L709.5,721.0625 L699.5,731.0625 L631.5,731.0625 L631.5,713.9297 " fill="#EEEEEE" style="stroke:#000000;stroke-width:1.5;"/><rect fill="none" height="176.0657" style="stroke:#000000;stroke-width:1.5;" width="527.5" x="631.5" y="713.9297"/><text fill="#000000" font-family="sans-serif" font-size="13" font-weight="bold" lengthAdjust="spacing" textLength="33" x="646.5" y="726.9966">loop</text><text fill="#000000" font-family="sans-serif" font-size="11" font-weight="bold" lengthAdjust="spacing" textLength="160" x="724.5" y="726.1402">[For each matching file]</text><line style="stroke:#B70000;stroke-width:1.0;" x1="736" x2="778" y1="752.6625" y2="752.6625"/><line style="stroke:#B70000;stroke-width:1.0;" x1="778" x2="778" y1="752.6625" y2="765.6625"/><line style="stroke:#B70000;stroke-width:1.0;" x1="737" x2="778" y1="765.6625" y2="765.6625"/><polygon fill="#B70000" points="747,761.6625,737,765.6625,747,769.6625,743,765.6625" style="stroke:#B70000;stroke-width:1.0;"/><text fill="#000000" font-family="sans-serif" font-size="13" lengthAdjust="spacing" textLength="98" x="743" y="747.5966">Add file path to</text><text fill="#000000" font-family="monospace" font-size="13" lengthAdjust="spacing" textLength="64" x="845" y="747.1005">INSTANCE</text><text fill="#000000" font-family="sans-serif" font-size="13" lengthAdjust="spacing" textLength="34" x="913" y="747.5966">array</text><path d="M641.5,780.6625 L719.5,780.6625 L719.5,787.7953 L709.5,797.7953 L641.5,797.7953 L641.5,780.6625 " fill="#EEEEEE" style="stroke:#000000;stroke-width:1.5;"/><rect fill="none" height="102.3328" style="stroke:#000000;stroke-width:1.5;" width="507.5" x="641.5" y="780.6625"/><text fill="#000000" font-family="sans-serif" font-size="13" font-weight="bold" lengthAdjust="spacing" textLength="33" x="656.5" y="793.7294">loop</text><text fill="#000000" font-family="sans-serif" font-size="11" font-weight="bold" lengthAdjust="spacing" textLength="256" x="734.5" y="793.2682">[For each dependency of the file from</text><text fill="#000000" font-family="monospace" font-size="11" font-weight="bold" lengthAdjust="spacing" textLength="77" x="994.5" y="792.8045">include_map</text><text fill="#000000" font-family="sans-serif" font-size="11" font-weight="bold" lengthAdjust="spacing" textLength="5" x="1071.5" y="793.2682">]</text><line style="stroke:#B70000;stroke-width:1.0;" x1="736" x2="778" y1="819.3954" y2="819.3954"/><line style="stroke:#B70000;stroke-width:1.0;" x1="778" x2="778" y1="819.3954" y2="832.3954"/><line style="stroke:#B70000;stroke-width:1.0;" x1="737" x2="778" y1="832.3954" y2="832.3954"/><polygon fill="#B70000" points="747,828.3954,737,832.3954,747,836.3954,743,832.3954" style="stroke:#B70000;stroke-width:1.0;"/><text fill="#000000" font-family="sans-serif" font-size="13" lengthAdjust="spacing" textLength="147" x="743" y="814.3294">Get headers path from</text><text fill="#000000" font-family="monospace" font-size="13" lengthAdjust="spacing" textLength="88" x="894" y="813.8334">header_dirs</text><text fill="#000000" font-family="sans-serif" font-size="13" lengthAdjust="spacing" textLength="23" x="986" y="814.3294">dict</text><line style="stroke:#B70000;stroke-width:1.0;" x1="736" x2="778" y1="861.9954" y2="861.9954"/><line style="stroke:#B70000;stroke-width:1.0;" x1="778" x2="778" y1="861.9954" y2="874.9954"/><line style="stroke:#B70000;stroke-width:1.0;" x1="737" x2="778" y1="874.9954" y2="874.9954"/><polygon fill="#B70000" points="747,870.9954,737,874.9954,747,878.9954,743,874.9954" style="stroke:#B70000;stroke-width:1.0;"/><text fill="#000000" font-family="sans-serif" font-size="13" lengthAdjust="spacing" textLength="309" x="743" y="856.9295">Add original file path, and dependent file path to</text><text fill="#000000" font-family="monospace" font-size="13" lengthAdjust="spacing" textLength="48" x="1056" y="856.4334">CLinks</text><text fill="#000000" font-family="sans-serif" font-size="13" lengthAdjust="spacing" textLength="29" x="1108" y="856.9295">map</text><line style="stroke:#B70000;stroke-width:1.0;" x1="736" x2="778" y1="941.1954" y2="941.1954"/><line style="stroke:#B70000;stroke-width:1.0;" x1="778" x2="778" y1="941.1954" y2="954.1954"/><line style="stroke:#B70000;stroke-width:1.0;" x1="737" x2="778" y1="954.1954" y2="954.1954"/><polygon fill="#B70000" points="747,950.1954,737,954.1954,747,958.1954,743,954.1954" style="stroke:#B70000;stroke-width:1.0;"/><text fill="#000000" font-family="sans-serif" font-size="13" lengthAdjust="spacing" textLength="34" x="743" y="920.5295">Write</text><text fill="#000000" font-family="monospace" font-size="13" lengthAdjust="spacing" textLength="56" x="781" y="920.0334">.raw.ta</text><text fill="#000000" font-family="sans-serif" font-size="13" lengthAdjust="spacing" textLength="19" x="841" y="920.5295">file</text><text fill="#000000" font-family="sans-serif" font-size="13" lengthAdjust="spacing" textLength="27" x="743" y="936.1295">with</text><text fill="#000000" font-family="monospace" font-size="13" lengthAdjust="spacing" textLength="64" x="774" y="935.6334">INSTANCE</text><text fill="#000000" font-family="sans-serif" font-size="13" lengthAdjust="spacing" textLength="48" x="842" y="936.1295">array &amp;</text><text fill="#000000" font-family="monospace" font-size="13" lengthAdjust="spacing" textLength="48" x="894" y="935.6334">CLinks</text><text fill="#000000" font-family="sans-serif" font-size="13" lengthAdjust="spacing" textLength="29" x="946" y="936.1295">map</text><polygon fill="#B70000" points="53,979.3282,43,983.3282,53,987.3282,49,983.3282" style="stroke:#B70000;stroke-width:1.0;"/><line style="stroke:#B70000;stroke-width:1.0;stroke-dasharray:2.0,2.0;" x1="47" x2="730" y1="983.3282" y2="983.3282"/><text fill="#000000" font-family="sans-serif" font-size="13" lengthAdjust="spacing" textLength="31" x="59" y="978.2623">Exits</text><text fill="#888888" font-family="sans-serif" font-size="10" lengthAdjust="spacing" textLength="215" x="973" y="14.2822">EECS 4314 FreeBSD Analysis - BitTheory</text><!--SRC=[hLPjQnf14Fv-lsAuGfA2BoqDj0WjKMD2If863BHGIrZlHc_nRlVO7MEaxN_lxDvvwaK3INFWdJflppppp2f9IX72q8X5YqGOmZagD8AaLXqOckZg4YvKbCvZX2kaHCT1WY960uD1VmZ77zuVmvb1x0rFeQj4khJIGXDwacuJr6OP17OcLIwCoE1tq3L6B_ewrGRUz3w-uoi8kX5fqnFHR6hqNCMbzUnJ_xJVButQSC5QsBKct1VbRRk2ReGX6SbSADeNk-doQdLF1Ocni7i3A_kEuBz181mBuE-h3yqlO4sKfHsuCVfUncYhCLWzDn6Er07eUJudc4WUy9745azvmZvZ6xSUiZGCtxfSybuG5ha2VzzCBOpbn4L2Y3HhW3JykBfqoHT64Xlv2psdLPrL2ixXSNPWy2391Z7MIkrlemQoiPb-rKQCEQeOLIJHbhsC50WLi-qX5vImZXdO5CkmbR-CqDQRLZmqC7AQK0TyB4W7ejrcSsUk9FqyeMMEdmzbiGQ7lzedBgaI6S8VQBUZFE-KDl_U6SFm4PdV2xuOBM2A6IgoC34wgpSyKfcWA95g2fHW2Uc_MGwdg9eacYwywOsjV1bkq3wSZ-tI4cRmTVZjkh6Jv0OSr5Is9dDtWIrsjqiKaucq8Y6L7IdNhAqy7BiMCf7d6BEDPvdgCJ0NX4QnwX91u7b23bs7kPms27Q3UOg7la7NHImZWgCmBCwukrWQoze2FM6BGKUcB3HV7eA-7aZQwEDU2bY8TBOQO8smvqFpMxXp7Y0TCw92NQhmZcahKHVuI7jwfO7D746GQft36Gk4TPEinnC0NzksSyV-JS4-N6tgSplg-TsTITvQaQRSOEGKne-SqRFImh2Lk7KeUjXQYaqnx41R-VfbWV9wFhPk71SgNUrW65vS3s-xr_q18nJ6Y6MLlGQX8dhfnk0m-qJbmcyDQfq2NWxrd8-wGfEsG5jMsXAo5yghb7FCy2vC9V_ahobg-2DurJhLkUjVIZLpCBXjZuBTggTxlM0v_Adgf5BzVt4U8xMGNFNnkBoijd3iA_d4sRexv1y0]--></g></svg>